<svg version="1.1" xmlns="http://www.w3.org/2000/svg" xmlns:xlink="http://www.w3.org/1999/xlink" width="1061.54150390625" height="418"><defs/><g><text fill="#eeeeee" stroke="none" font-family="Arial" font-size="24px" font-style="normal" font-weight="normal" text-decoration="none" x="0" y="0"></text><text fill="#eeeeee" stroke="none" font-family="Arial" font-size="24px" font-style="normal" font-weight="normal" text-decoration="none" x="0" y="30"></text><text fill="#eeeeee" stroke="none" font-family="Arial" font-size="24px" font-style="normal" font-weight="normal" text-decoration="none" x="0" y="60"></text><text fill="#eeeeee" stroke="none" font-family="Arial" font-size="24px" font-style="normal" font-weight="normal" text-decoration="none" x="0" y="90"></text><text fill="#eeeeee" stroke="none" font-family="Arial" font-size="24px" font-style="normal" font-weight="normal" text-decoration="none" x="0" y="120"></text><text fill="#eeeeee" stroke="none" font-family="Arial" font-size="24px" font-style="normal" font-weight="normal" text-decoration="none" x="0" y="150"></text><text fill="#eeeeee" stroke="none" font-family="Arial" font-size="24px" font-style="normal" font-weight="normal" text-decoration="none" x="0" y="180"></text><text fill="#eeeeee" stroke="none" font-family="Arial" font-size="24px" font-style="normal" font-weight="normal" text-decoration="none" x="0" y="210"></text><text fill="#eeeeee" stroke="none" font-family="Arial" font-size="24px" font-style="normal" font-weight="normal" text-decoration="none" x="0" y="240"></text><text fill="#eeeeee" stroke="none" font-family="Arial" font-size="24px" font-style="normal" font-weight="normal" text-decoration="none" x="0" y="270"></text><text fill="#eeeeee" stroke="none" font-family="Arial" font-size="24px" font-style="normal" font-weight="normal" text-decoration="none" x="0" y="300"></text><text fill="#eeeeee" stroke="none" font-family="Arial" font-size="24px" font-style="normal" font-weight="normal" text-decoration="none" x="0" y="330"></text><text fill="#eeeeee" stroke="none" font-family="Arial" font-size="24px" font-style="normal" font-weight="normal" text-decoration="none" x="0" y="360"></text><text fill="#eeeeee" stroke="none" font-family="Arial" font-size="24px" font-style="normal" font-weight="normal" text-decoration="none" x="0" y="390"></text><text fill="#eeeeee" stroke="none" font-family="Arial" font-size="24px" font-style="normal" font-weight="normal" text-decoration="none" x="200" y="0"></text><text fill="#eeeeee" stroke="none" font-family="Arial" font-size="24px" font-style="normal" font-weight="normal" text-decoration="none" x="200" y="30"></text><text fill="#eeeeee" stroke="none" font-family="Arial" font-size="24px" font-style="normal" font-weight="normal" text-decoration="none" x="200" y="60"></text><text fill="#eeeeee" stroke="none" font-family="Arial" font-size="24px" font-style="normal" font-weight="normal" text-decoration="none" x="200" y="90"></text><text fill="#eeeeee" stroke="none" font-family="Arial" font-size="24px" font-style="normal" font-weight="normal" text-decoration="none" x="200" y="120"></text><text fill="#eeeeee" stroke="none" font-family="Arial" font-size="24px" font-style="normal" font-weight="normal" text-decoration="none" x="200" y="150"></text><text fill="#eeeeee" stroke="none" font-family="Arial" font-size="24px" font-style="normal" font-weight="normal" text-decoration="none" x="200" y="180"></text><text fill="#eeeeee" stroke="none" font-family="Arial" font-size="24px" font-style="normal" font-weight="normal" text-decoration="none" x="200" y="210"></text><text fill="#eeeeee" stroke="none" font-family="Arial" font-size="24px" font-style="normal" font-weight="normal" text-decoration="none" x="200" y="240"></text><text fill="#eeeeee" stroke="none" font-family="Arial" font-size="24px" font-style="normal" font-weight="normal" text-decoration="none" x="200" y="270"></text><text fill="#eeeeee" stroke="none" font-family="Arial" font-size="24px" font-style="normal" font-weight="normal" text-decoration="none" x="200" y="300"></text><text fill="#eeeeee" stroke="none" font-family="Arial" font-size="24px" font-style="normal" font-weight="normal" text-decoration="none" x="200" y="330"></text><text fill="#eeeeee" stroke="none" font-family="Arial" font-size="24px" font-style="normal" font-weight="normal" text-decoration="none" x="200" y="360"></text><text fill="#eeeeee" stroke="none" font-family="Arial" font-size="24px" font-style="normal" font-weight="normal" text-decoration="none" x="200" y="390"></text><text fill="#eeeeee" stroke="none" font-family="Arial" font-size="24px" font-style="normal" font-weight="normal" text-decoration="none" x="400" y="0"></text><text fill="#eeeeee" stroke="none" font-family="Arial" font-size="24px" font-style="normal" font-weight="normal" text-decoration="none" x="400" y="30"></text><text fill="#eeeeee" stroke="none" font-family="Arial" font-size="24px" font-style="normal" font-weight="normal" text-decoration="none" x="400" y="60"></text><text fill="#eeeeee" stroke="none" font-family="Arial" font-size="24px" font-style="normal" font-weight="normal" text-decoration="none" x="400" y="90"></text><text fill="#eeeeee" stroke="none" font-family="Arial" font-size="24px" font-style="normal" font-weight="normal" text-decoration="none" x="400" y="120"></text><text fill="#eeeeee" stroke="none" font-family="Arial" font-size="24px" font-style="normal" font-weight="normal" text-decoration="none" x="400" y="150"></text><text fill="#eeeeee" stroke="none" font-family="Arial" font-size="24px" font-style="normal" font-weight="normal" text-decoration="none" x="400" y="180"></text><text fill="#eeeeee" stroke="none" font-family="Arial" font-size="24px" font-style="normal" font-weight="normal" text-decoration="none" x="400" y="210"></text><text fill="#eeeeee" stroke="none" font-family="Arial" font-size="24px" font-style="normal" font-weight="normal" text-decoration="none" x="400" y="240"></text><text fill="#eeeeee" stroke="none" font-family="Arial" font-size="24px" font-style="normal" font-weight="normal" text-decoration="none" x="400" y="270"></text><text fill="#eeeeee" stroke="none" font-family="Arial" font-size="24px" font-style="normal" font-weight="normal" text-decoration="none" x="400" y="300"></text><text fill="#eeeeee" stroke="none" font-family="Arial" font-size="24px" font-style="normal" font-weight="normal" text-decoration="none" x="400" y="330"></text><text fill="#eeeeee" stroke="none" font-family="Arial" font-size="24px" font-style="normal" font-weight="normal" text-decoration="none" x="400" y="360"></text><text fill="#eeeeee" stroke="none" font-family="Arial" font-size="24px" font-style="normal" font-weight="normal" text-decoration="none" x="400" y="390"></text><text fill="#eeeeee" stroke="none" font-family="Arial" font-size="24px" font-style="normal" font-weight="normal" text-decoration="none" x="600" y="0"></text><text fill="#eeeeee" stroke="none" font-family="Arial" font-size="24px" font-style="normal" font-weight="normal" text-decoration="none" x="600" y="30"></text><text fill="#eeeeee" stroke="none" font-family="Arial" font-size="24px" font-style="normal" font-weight="normal" text-decoration="none" x="600" y="60"></text><text fill="#eeeeee" stroke="none" font-family="Arial" font-size="24px" font-style="normal" font-weight="normal" text-decoration="none" x="600" y="90"></text><text fill="#eeeeee" stroke="none" font-family="Arial" font-size="24px" font-style="normal" font-weight="normal" text-decoration="none" x="600" y="120"></text><text fill="#eeeeee" stroke="none" font-family="Arial" font-size="24px" font-style="normal" font-weight="normal" text-decoration="none" x="600" y="150"></text><text fill="#eeeeee" stroke="none" font-family="Arial" font-size="24px" font-style="normal" font-weight="normal" text-decoration="none" x="600" y="180"></text><text fill="#eeeeee" stroke="none" font-family="Arial" font-size="24px" font-style="normal" font-weight="normal" text-decoration="none" x="600" y="210"></text><text fill="#eeeeee" stroke="none" font-family="Arial" font-size="24px" font-style="normal" font-weight="normal" text-decoration="none" x="600" y="240"></text><text fill="#eeeeee" stroke="none" font-family="Arial" font-size="24px" font-style="normal" font-weight="normal" text-decoration="none" x="600" y="270"></text><text fill="#eeeeee" stroke="none" font-family="Arial" font-size="24px" font-style="normal" font-weight="normal" text-decoration="none" x="600" y="300"></text><text fill="#eeeeee" stroke="none" font-family="Arial" font-size="24px" font-style="normal" font-weight="normal" text-decoration="none" x="600" y="330"></text><text fill="#eeeeee" stroke="none" font-family="Arial" font-size="24px" font-style="normal" font-weight="normal" text-decoration="none" x="600" y="360"></text><text fill="#eeeeee" stroke="none" font-family="Arial" font-size="24px" font-style="normal" font-weight="normal" text-decoration="none" x="600" y="390"></text><text fill="#eeeeee" stroke="none" font-family="Arial" font-size="24px" font-style="normal" font-weight="normal" text-decoration="none" x="800" y="0"></text><text fill="#eeeeee" stroke="none" font-family="Arial" font-size="24px" font-style="normal" font-weight="normal" text-decoration="none" x="800" y="30"></text><text fill="#eeeeee" stroke="none" font-family="Arial" font-size="24px" font-style="normal" font-weight="normal" text-decoration="none" x="800" y="60"></text><text fill="#eeeeee" stroke="none" font-family="Arial" font-size="24px" font-style="normal" font-weight="normal" text-decoration="none" x="800" y="90"></text><text fill="#eeeeee" stroke="none" font-family="Arial" font-size="24px" font-style="normal" font-weight="normal" text-decoration="none" x="800" y="120"></text><text fill="#eeeeee" stroke="none" font-family="Arial" font-size="24px" font-style="normal" font-weight="normal" text-decoration="none" x="800" y="150"></text><text fill="#eeeeee" stroke="none" font-family="Arial" font-size="24px" font-style="normal" font-weight="normal" text-decoration="none" x="800" y="180"></text><text fill="#eeeeee" stroke="none" font-family="Arial" font-size="24px" font-style="normal" font-weight="normal" text-decoration="none" x="800" y="210"></text><text fill="#eeeeee" stroke="none" font-family="Arial" font-size="24px" font-style="normal" font-weight="normal" text-decoration="none" x="800" y="240"></text><text fill="#eeeeee" stroke="none" font-family="Arial" font-size="24px" font-style="normal" font-weight="normal" text-decoration="none" x="800" y="270"></text><text fill="#eeeeee" stroke="none" font-family="Arial" font-size="24px" font-style="normal" font-weight="normal" text-decoration="none" x="800" y="300"></text><text fill="#eeeeee" stroke="none" font-family="Arial" font-size="24px" font-style="normal" font-weight="normal" text-decoration="none" x="800" y="330"></text><text fill="#eeeeee" stroke="none" font-family="Arial" font-size="24px" font-style="normal" font-weight="normal" text-decoration="none" x="800" y="360"></text><text fill="#eeeeee" stroke="none" font-family="Arial" font-size="24px" font-style="normal" font-weight="normal" text-decoration="none" x="800" y="390"></text><text fill="#eeeeee" stroke="none" font-family="Arial" font-size="24px" font-style="normal" font-weight="normal" text-decoration="none" x="1000" y="0"></text><text fill="#eeeeee" stroke="none" font-family="Arial" font-size="24px" font-style="normal" font-weight="normal" text-decoration="none" x="1000" y="30"></text><text fill="#eeeeee" stroke="none" font-family="Arial" font-size="24px" font-style="normal" font-weight="normal" text-decoration="none" x="1000" y="60"></text><text fill="#eeeeee" stroke="none" font-family="Arial" font-size="24px" font-style="normal" font-weight="normal" text-decoration="none" x="1000" y="90"></text><text fill="#eeeeee" stroke="none" font-family="Arial" font-size="24px" font-style="normal" font-weight="normal" text-decoration="none" x="1000" y="120"></text><text fill="#eeeeee" stroke="none" font-family="Arial" font-size="24px" font-style="normal" font-weight="normal" text-decoration="none" x="1000" y="150"></text><text fill="#eeeeee" stroke="none" font-family="Arial" font-size="24px" font-style="normal" font-weight="normal" text-decoration="none" x="1000" y="180"></text><text fill="#eeeeee" stroke="none" font-family="Arial" font-size="24px" font-style="normal" font-weight="normal" text-decoration="none" x="1000" y="210"></text><text fill="#eeeeee" stroke="none" font-family="Arial" font-size="24px" font-style="normal" font-weight="normal" text-decoration="none" x="1000" y="240"></text><text fill="#eeeeee" stroke="none" font-family="Arial" font-size="24px" font-style="normal" font-weight="normal" text-decoration="none" x="1000" y="270"></text><text fill="#eeeeee" stroke="none" font-family="Arial" font-size="24px" font-style="normal" font-weight="normal" text-decoration="none" x="1000" y="300"></text><text fill="#eeeeee" stroke="none" font-family="Arial" font-size="24px" font-style="normal" font-weight="normal" text-decoration="none" x="1000" y="330"></text><text fill="#eeeeee" stroke="none" font-family="Arial" font-size="24px" font-style="normal" font-weight="normal" text-decoration="none" x="1000" y="360"></text><text fill="#eeeeee" stroke="none" font-family="Arial" font-size="24px" font-style="normal" font-weight="normal" text-decoration="none" x="1000" y="390"></text><g transform="translate(-62,-137) scale(1,1)"><rect fill="#C0C0C0" stroke="none" x="310" y="154" width="303.1630859375" height="145" opacity="0.2"/></g><g transform="translate(-62,-137) scale(1,1)"><rect fill="#ffffff" stroke="none" x="303" y="147" width="303.1630859375" height="145"/></g><g transform="translate(-62,-137) scale(1,1)"><path fill="none" stroke="#000000" d="M 303 147 L 606.1630859375 147 L 606.1630859375 292 L 303 292 L 303 147 Z Z" stroke-miterlimit="10"/></g><g transform="translate(-62,-137) scale(1,1)"><path fill="none" stroke="#000000" d="M 303 187 L 606.1630859375 187" stroke-miterlimit="10"/></g><g transform="translate(-62,-137) scale(1,1)"><path fill="none" stroke="#000000" d="M 303 225 L 606.1630859375 225" stroke-miterlimit="10"/></g><g transform="translate(-62,-137) scale(1,1)"><g><path fill="none" stroke="none"/><text fill="#000000" stroke="none" font-family="Arial" font-size="13px" font-style="normal" font-weight="bold" text-decoration="none" x="421.716552734375" y="165">ClientsCtrl</text></g></g><g transform="translate(-62,-137) scale(1,1)"><g><path fill="none" stroke="none"/><text fill="#000000" stroke="none" font-family="Arial" font-size="13px" font-style="normal" font-weight="normal" text-decoration="none" x="408.71337890625" y="180">(from controller)</text></g></g><g transform="translate(-62,-137) scale(1,1)"><g><path fill="none" stroke="none"/><text fill="#000000" stroke="none" font-family="Arial" font-size="13px" font-style="normal" font-weight="normal" text-decoration="none" x="308" y="203">-model: ListeClients</text></g></g><g transform="translate(-62,-137) scale(1,1)"><g><path fill="none" stroke="none"/><text fill="#000000" stroke="none" font-family="Arial" font-size="13px" font-style="normal" font-weight="normal" text-decoration="none" x="308" y="218">-view: ClientsView</text></g></g><g transform="translate(-62,-137) scale(1,1)"><g><path fill="none" stroke="none"/><text fill="#000000" stroke="none" font-family="Arial" font-size="13px" font-style="normal" font-weight="normal" text-decoration="none" x="308" y="241">+ClientsCtrl(model: ListeClients, view: ClientsView)</text></g></g><g transform="translate(-62,-137) scale(1,1)"><g><path fill="none" stroke="none"/><text fill="#000000" stroke="none" font-family="Arial" font-size="13px" font-style="normal" font-weight="normal" text-decoration="none" x="308" y="256">+ajouterClient()</text></g></g><g transform="translate(-62,-137) scale(1,1)"><g><path fill="none" stroke="none"/><text fill="#000000" stroke="none" font-family="Arial" font-size="13px" font-style="normal" font-weight="normal" text-decoration="none" x="308" y="271">+supprimerClient()</text></g></g><g transform="translate(-62,-137) scale(1,1)"><g><path fill="none" stroke="none"/><text fill="#000000" stroke="none" font-family="Arial" font-size="13px" font-style="normal" font-weight="normal" text-decoration="none" x="308" y="286">+editerClient()</text></g></g><g transform="translate(-62,-137) scale(1,1)"><rect fill="#C0C0C0" stroke="none" x="79" y="168" width="149.1689453125" height="132" opacity="0.2"/></g><g transform="translate(-62,-137) scale(1,1)"><rect fill="#ffffff" stroke="none" x="72" y="161" width="149.1689453125" height="132"/></g><g transform="translate(-62,-137) scale(1,1)"><path fill="none" stroke="#000000" d="M 72 161 L 221.1689453125 161 L 221.1689453125 293 L 72 293 L 72 161 Z Z" stroke-miterlimit="10"/></g><g transform="translate(-62,-137) scale(1,1)"><path fill="none" stroke="#000000" d="M 72 201 L 221.1689453125 201" stroke-miterlimit="10"/></g><g transform="translate(-62,-137) scale(1,1)"><path fill="none" stroke="#000000" d="M 72 284 L 221.1689453125 284" stroke-miterlimit="10"/></g><g transform="translate(-62,-137) scale(1,1)"><g><path fill="none" stroke="none"/><text fill="#000000" stroke="none" font-family="Arial" font-size="13px" font-style="normal" font-weight="bold" text-decoration="none" x="110.21875" y="179">ClientsView</text></g></g><g transform="translate(-62,-137) scale(1,1)"><g><path fill="none" stroke="none"/><text fill="#000000" stroke="none" font-family="Arial" font-size="13px" font-style="normal" font-weight="normal" text-decoration="none" x="114.4462890625" y="194">(from view)</text></g></g><g transform="translate(-62,-137) scale(1,1)"><g><path fill="none" stroke="none"/><text fill="#000000" stroke="none" font-family="Arial" font-size="13px" font-style="normal" font-weight="normal" text-decoration="none" x="77" y="217">-menu: MenuBar</text></g></g><g transform="translate(-62,-137) scale(1,1)"><g><path fill="none" stroke="none"/><text fill="#000000" stroke="none" font-family="Arial" font-size="13px" font-style="normal" font-weight="normal" text-decoration="none" x="77" y="232">-listeClients: ListView</text></g></g><g transform="translate(-62,-137) scale(1,1)"><g><path fill="none" stroke="none"/><text fill="#000000" stroke="none" font-family="Arial" font-size="13px" font-style="normal" font-weight="normal" text-decoration="none" x="77" y="247">-ajouterClient: Button</text></g></g><g transform="translate(-62,-137) scale(1,1)"><g><path fill="none" stroke="none"/><text fill="#000000" stroke="none" font-family="Arial" font-size="13px" font-style="normal" font-weight="normal" text-decoration="none" x="77" y="262">-supprimerClient: Button</text></g></g><g transform="translate(-62,-137) scale(1,1)"><g><path fill="none" stroke="none"/><text fill="#000000" stroke="none" font-family="Arial" font-size="13px" font-style="normal" font-weight="normal" text-decoration="none" x="77" y="277">-editerClient: Button</text></g></g><g transform="translate(-62,-137) scale(1,1)"><path fill="none" stroke="#000000" d="M 222 225 L 302 223" stroke-miterlimit="10"/></g><g transform="translate(-62,-137) scale(1,1)"><path fill="#FFFFFF" stroke="none" d="M 291.94570456282133 227.46219041076557 L 302 223 L 291.7352944179201 219.0457846147159 L 280.0068717790213 223.54982820552448"/></g><g transform="translate(-62,-137) scale(1,1)"><path fill="none" stroke="#000000" d="M 291.94570456282133 227.46219041076557 L 302 223 L 291.7352944179201 219.0457846147159 L 280.0068717790213 223.54982820552448 L 291.94570456282133 227.46219041076557" stroke-miterlimit="10"/></g><g transform="translate(-62,-137) scale(1,1)"><path fill="none" stroke="#000000" d="M 232.05429543717867 220.53780958923446 L 222 225 L 232.26470558207993 228.9542153852841" stroke-miterlimit="10"/></g><g transform="translate(-62,-137) scale(1,1)"><rect fill="#C0C0C0" stroke="none" x="695" y="154" width="189.99072265625" height="145" opacity="0.2"/></g><g transform="translate(-62,-137) scale(1,1)"><rect fill="#ffffff" stroke="none" x="688" y="147" width="189.99072265625" height="145"/></g><g transform="translate(-62,-137) scale(1,1)"><path fill="none" stroke="#000000" d="M 688 147 L 877.99072265625 147 L 877.99072265625 292 L 688 292 L 688 147 Z Z" stroke-miterlimit="10"/></g><g transform="translate(-62,-137) scale(1,1)"><path fill="none" stroke="#000000" d="M 688 187 L 877.99072265625 187" stroke-miterlimit="10"/></g><g transform="translate(-62,-137) scale(1,1)"><path fill="none" stroke="#000000" d="M 688 210 L 877.99072265625 210" stroke-miterlimit="10"/></g><g transform="translate(-62,-137) scale(1,1)"><g><path fill="none" stroke="none"/><text fill="#000000" stroke="none" font-family="Arial" font-size="13px" font-style="normal" font-weight="bold" text-decoration="none" x="746.153564453125" y="165">ListeClients</text></g></g><g transform="translate(-62,-137) scale(1,1)"><g><path fill="none" stroke="none"/><text fill="#000000" stroke="none" font-family="Arial" font-size="13px" font-style="normal" font-weight="normal" text-decoration="none" x="746.15673828125" y="180">(from model)</text></g></g><g transform="translate(-62,-137) scale(1,1)"><g><path fill="none" stroke="none"/><text fill="#000000" stroke="none" font-family="Arial" font-size="13px" font-style="normal" font-weight="normal" text-decoration="none" x="693" y="203">-clients: ArrayList&lt;Client&gt;</text></g></g><g transform="translate(-62,-137) scale(1,1)"><g><path fill="none" stroke="none"/><text fill="#000000" stroke="none" font-family="Arial" font-size="13px" font-style="normal" font-weight="normal" text-decoration="none" x="693" y="226">+ListeClients()</text></g></g><g transform="translate(-62,-137) scale(1,1)"><g><path fill="none" stroke="none"/><text fill="#000000" stroke="none" font-family="Arial" font-size="13px" font-style="normal" font-weight="normal" text-decoration="none" x="693" y="241">+getClients(): ArrayList&lt;Client&gt;</text></g></g><g transform="translate(-62,-137) scale(1,1)"><g><path fill="none" stroke="none"/><text fill="#000000" stroke="none" font-family="Arial" font-size="13px" font-style="normal" font-weight="normal" text-decoration="none" x="693" y="256">+ajouter(c: Client)</text></g></g><g transform="translate(-62,-137) scale(1,1)"><g><path fill="none" stroke="none"/><text fill="#000000" stroke="none" font-family="Arial" font-size="13px" font-style="normal" font-weight="normal" text-decoration="none" x="693" y="271">+supprimer(c: Client)</text></g></g><g transform="translate(-62,-137) scale(1,1)"><g><path fill="none" stroke="none"/><text fill="#000000" stroke="none" font-family="Arial" font-size="13px" font-style="normal" font-weight="normal" text-decoration="none" x="693" y="286">+editer(c: Client)</text></g></g><g transform="translate(-62,-137) scale(1,1)"><path fill="none" stroke="#000000" d="M 687 219 L 607 219" stroke-miterlimit="10"/></g><g transform="translate(-62,-137) scale(1,1)"><path fill="#FFFFFF" stroke="none" d="M 617.1626748576241 214.790482243984 L 607 219 L 617.1626748576241 223.209517756016 L 629 219"/></g><g transform="translate(-62,-137) scale(1,1)"><path fill="none" stroke="#000000" d="M 617.1626748576241 214.790482243984 L 607 219 L 617.1626748576241 223.209517756016 L 629 219 L 617.1626748576241 214.790482243984" stroke-miterlimit="10"/></g><g transform="translate(-62,-137) scale(1,1)"><path fill="none" stroke="#000000" d="M 676.8373251423759 223.209517756016 L 687 219 L 676.8373251423758 214.790482243984" stroke-miterlimit="10"/></g><g transform="translate(-62,-137) scale(1,1)"><rect fill="#C0C0C0" stroke="none" x="967" y="197" width="74" height="59" opacity="0.2"/></g><g transform="translate(-62,-137) scale(1,1)"><rect fill="#ffffff" stroke="none" x="960" y="190" width="74" height="59"/></g><g transform="translate(-62,-137) scale(1,1)"><path fill="none" stroke="#000000" d="M 960 190 L 1034 190 L 1034 249 L 960 249 L 960 190 Z Z" stroke-miterlimit="10"/></g><g transform="translate(-62,-137) scale(1,1)"><path fill="none" stroke="#000000" d="M 960 230 L 1034 230" stroke-miterlimit="10"/></g><g transform="translate(-62,-137) scale(1,1)"><path fill="none" stroke="#000000" d="M 960 240 L 1034 240" stroke-miterlimit="10"/></g><g transform="translate(-62,-137) scale(1,1)"><g><path fill="none" stroke="none"/><text fill="#000000" stroke="none" font-family="Arial" font-size="13px" font-style="normal" font-weight="bold" text-decoration="none" x="964.5" y="208">ClientDAO</text></g></g><g transform="translate(-62,-137) scale(1,1)"><g><path fill="none" stroke="none"/><text fill="#000000" stroke="none" font-family="Arial" font-size="13px" font-style="normal" font-weight="normal" text-decoration="none" x="965.214111328125" y="223">(from data)</text></g></g><g transform="translate(-62,-137) scale(1,1)"><rect fill="#C0C0C0" stroke="none" x="894" y="392" width="216.54150390625" height="160" opacity="0.2"/></g><g transform="translate(-62,-137) scale(1,1)"><rect fill="#C0C0C0" stroke="none" x="1071.51611328125" y="359" width="48.025390625" height="37" opacity="0.2"/></g><g transform="translate(-62,-137) scale(1,1)"><rect fill="#ffffff" stroke="none" x="887" y="385" width="216.54150390625" height="160"/></g><g transform="translate(-62,-137) scale(1,1)"><path fill="none" stroke="#000000" d="M 887 385 L 1103.54150390625 385 L 1103.54150390625 545 L 887 545 L 887 385 Z Z" stroke-miterlimit="10"/></g><g transform="translate(-62,-137) scale(1,1)"><path fill="none" stroke="#000000" d="M 887 425 L 1103.54150390625 425" stroke-miterlimit="10"/></g><g transform="translate(-62,-137) scale(1,1)"><path fill="none" stroke="#000000" d="M 887 448 L 1103.54150390625 448" stroke-miterlimit="10"/></g><g transform="translate(-62,-137) scale(1,1)"><g><path fill="none" stroke="none"/><text fill="#000000" stroke="none" font-family="Arial" font-size="13px" font-style="italic" font-weight="bold" text-decoration="none" x="980.82666015625" y="403">DAO</text></g></g><g transform="translate(-62,-137) scale(1,1)"><g><path fill="none" stroke="none"/><text fill="#000000" stroke="none" font-family="Arial" font-size="13px" font-style="normal" font-weight="normal" text-decoration="none" x="963.48486328125" y="418">(from data)</text></g></g><g transform="translate(-62,-137) scale(1,1)"><g><path fill="none" stroke="none"/><text fill="#000000" stroke="none" font-family="Arial" font-size="13px" font-style="normal" font-weight="normal" text-decoration="none" x="892" y="441">-connexion: Connection</text></g></g><g transform="translate(-62,-137) scale(1,1)"><g><path fill="none" stroke="none"/><text fill="#000000" stroke="none" font-family="Arial" font-size="13px" font-style="normal" font-weight="normal" text-decoration="none" x="892" y="464">+DAO(connexion: Connection)</text></g></g><g transform="translate(-62,-137) scale(1,1)"><g><path fill="none" stroke="none"/><text fill="#000000" stroke="none" font-family="Arial" font-size="13px" font-style="italic" font-weight="normal" text-decoration="none" x="892" y="479">+insert(model: Model): boolean</text></g></g><g transform="translate(-62,-137) scale(1,1)"><g><path fill="none" stroke="none"/><text fill="#000000" stroke="none" font-family="Arial" font-size="13px" font-style="italic" font-weight="normal" text-decoration="none" x="892" y="494">+get(id: IdType): Model</text></g></g><g transform="translate(-62,-137) scale(1,1)"><g><path fill="none" stroke="none"/><text fill="#000000" stroke="none" font-family="Arial" font-size="13px" font-style="italic" font-weight="normal" text-decoration="none" x="892" y="509">+getAll(): ArrayList&lt;Model&gt;</text></g></g><g transform="translate(-62,-137) scale(1,1)"><g><path fill="none" stroke="none"/><text fill="#000000" stroke="none" font-family="Arial" font-size="13px" font-style="italic" font-weight="normal" text-decoration="none" x="892" y="524">+update(model: Model): boolean</text></g></g><g transform="translate(-62,-137) scale(1,1)"><g><path fill="none" stroke="none"/><text fill="#000000" stroke="none" font-family="Arial" font-size="13px" font-style="italic" font-weight="normal" text-decoration="none" x="892" y="539">+delete(model: Model): boolean</text></g></g><g transform="translate(-62,-137) scale(1,1)"><rect fill="#ffffff" stroke="none" x="1064.51611328125" y="352" width="48.025390625" height="37"/></g><g transform="translate(-62,-137) scale(1,1)"><path fill="none" stroke="#000000" d="M 1064.51611328125 352 L 1112.54150390625 352 L 1112.54150390625 389 L 1064.51611328125 389 L 1064.51611328125 352 Z Z" stroke-miterlimit="10" stroke-dasharray="3"/></g><g transform="translate(-62,-137) scale(1,1)"><g><path fill="none" stroke="none"/><text fill="#000000" stroke="none" font-family="Arial" font-size="13px" font-style="normal" font-weight="normal" text-decoration="none" x="1069.51611328125" y="368">Model</text></g></g><g transform="translate(-62,-137) scale(1,1)"><g><path fill="none" stroke="none"/><text fill="#000000" stroke="none" font-family="Arial" font-size="13px" font-style="normal" font-weight="normal" text-decoration="none" x="1069.51611328125" y="383">IdType</text></g></g><g transform="translate(-62,-137) scale(1,1)"><path fill="none" stroke="#000000" d="M 997 250 L 999 351" stroke-miterlimit="10"/></g><g transform="translate(-62,-137) scale(1,1)"><path fill="#FFFFFF" stroke="none" d="M 990.1802113467039 330.8453149835779 L 999 351 L 1007.0149820824131 330.5119531868312"/></g><g transform="translate(-62,-137) scale(1,1)"><path fill="none" stroke="#000000" d="M 990.1802113467039 330.8453149835779 L 999 351 L 1007.0149820824131 330.5119531868312 L 990.1802113467039 330.8453149835779" stroke-miterlimit="10"/></g><g transform="translate(-62,-137) scale(1,1)"><path fill="none" stroke="#000000" d="M 879 219 L 959 219" stroke-miterlimit="10" stroke-dasharray="3"/></g><g transform="translate(-62,-137) scale(1,1)"><path fill="none" stroke="#000000" d="M 948.8373251423759 223.209517756016 L 959 219 L 948.8373251423758 214.790482243984" stroke-miterlimit="10"/></g><g transform="translate(-62,-137) scale(1,1)"><g><path fill="none" stroke="none"/><text fill="#000000" stroke="none" font-family="Arial" font-size="13px" font-style="normal" font-weight="normal" text-decoration="none" x="900.5" y="206.5">«uses»</text></g></g><g transform="translate(-62,-137) scale(1,1)"><rect fill="#C0C0C0" stroke="none" x="559" y="415" width="165.45703125" height="113" opacity="0.2"/></g><g transform="translate(-62,-137) scale(1,1)"><rect fill="#ffffff" stroke="none" x="552" y="408" width="165.45703125" height="113"/></g><g transform="translate(-62,-137) scale(1,1)"><path fill="none" stroke="#000000" d="M 552 408 L 717.45703125 408 L 717.45703125 521 L 552 521 L 552 408 Z Z" stroke-miterlimit="10"/></g><g transform="translate(-62,-137) scale(1,1)"><path fill="none" stroke="#000000" d="M 552 461 L 717.45703125 461" stroke-miterlimit="10"/></g><g transform="translate(-62,-137) scale(1,1)"><path fill="none" stroke="#000000" d="M 552 484 L 717.45703125 484" stroke-miterlimit="10"/></g><g transform="translate(-62,-137) scale(1,1)"><g><path fill="none" stroke="none"/><text fill="#000000" stroke="none" font-family="Arial" font-size="13px" font-style="normal" font-weight="normal" text-decoration="none" x="600.39404296875" y="424">«Singleton»</text></g></g><g transform="translate(-62,-137) scale(1,1)"><g><path fill="none" stroke="none"/><text fill="#000000" stroke="none" font-family="Arial" font-size="13px" font-style="normal" font-weight="bold" text-decoration="none" x="579.478515625" y="439">SingleConnection</text></g></g><g transform="translate(-62,-137) scale(1,1)"><g><path fill="none" stroke="none"/><text fill="#000000" stroke="none" font-family="Arial" font-size="13px" font-style="normal" font-weight="normal" text-decoration="none" x="602.942626953125" y="454">(from data)</text></g></g><g transform="translate(-62,-137) scale(1,1)"><g><path fill="none" stroke="none"/><text fill="#000000" stroke="none" font-family="Arial" font-size="13px" font-style="normal" font-weight="normal" text-decoration="none" x="557" y="477">-connexion: Connection</text><path fill="none" stroke="#000000" d="M 557 478.5 L 693.5888671875 478.5" stroke-miterlimit="10"/></g></g><g transform="translate(-62,-137) scale(1,1)"><g><path fill="none" stroke="none"/><text fill="#000000" stroke="none" font-family="Arial" font-size="13px" font-style="normal" font-weight="normal" text-decoration="none" x="557" y="500">-SingleConnection()</text></g></g><g transform="translate(-62,-137) scale(1,1)"><g><path fill="none" stroke="none"/><text fill="#000000" stroke="none" font-family="Arial" font-size="13px" font-style="normal" font-weight="normal" text-decoration="none" x="557" y="515">+getInstance(): Connection</text><path fill="none" stroke="#000000" d="M 557 516.5 L 713.45703125 516.5" stroke-miterlimit="10"/></g></g><g transform="translate(-62,-137) scale(1,1)"><path fill="none" stroke="#000000" d="M 886 453 L 718 460" stroke-miterlimit="10" stroke-dasharray="3"/></g><g transform="translate(-62,-137) scale(1,1)"><path fill="none" stroke="#000000" d="M 727.9786200441779 455.3710538981392 L 718 460 L 728.329109078495 463.7827907217494" stroke-miterlimit="10"/></g><g transform="translate(-62,-137) scale(1,1)"><g><path fill="none" stroke="none"/><text fill="#000000" stroke="none" font-family="Arial" font-size="13px" font-style="normal" font-weight="normal" text-decoration="none" x="782.5" y="488.5">«uses»</text></g></g><g transform="translate(-62,-137) scale(1,1)"><path fill="none" stroke="#000000" d="M 718 460 L 886 453" stroke-miterlimit="10"/></g><g transform="translate(-62,-137) scale(1,1)"><path fill="#FFFFFF" stroke="none" d="M 876.0213799558221 457.6289461018608 L 886 453 L 875.670890921505 449.2172092782506 L 864.0190723919683 453.915871983668"/></g><g transform="translate(-62,-137) scale(1,1)"><path fill="none" stroke="#000000" d="M 876.0213799558221 457.6289461018608 L 886 453 L 875.670890921505 449.2172092782506 L 864.0190723919683 453.915871983668 L 876.0213799558221 457.6289461018608" stroke-miterlimit="10"/></g></g></svg>
