<svg version="1.1" xmlns="http://www.w3.org/2000/svg" xmlns:xlink="http://www.w3.org/1999/xlink" width="404.72509765625" height="680"><defs/><g><text fill="#eeeeee" stroke="none" font-family="Arial" font-size="24px" font-style="normal" font-weight="normal" text-decoration="none" x="0" y="0"></text><text fill="#eeeeee" stroke="none" font-family="Arial" font-size="24px" font-style="normal" font-weight="normal" text-decoration="none" x="0" y="30"></text><text fill="#eeeeee" stroke="none" font-family="Arial" font-size="24px" font-style="normal" font-weight="normal" text-decoration="none" x="0" y="60"></text><text fill="#eeeeee" stroke="none" font-family="Arial" font-size="24px" font-style="normal" font-weight="normal" text-decoration="none" x="0" y="90"></text><text fill="#eeeeee" stroke="none" font-family="Arial" font-size="24px" font-style="normal" font-weight="normal" text-decoration="none" x="0" y="120"></text><text fill="#eeeeee" stroke="none" font-family="Arial" font-size="24px" font-style="normal" font-weight="normal" text-decoration="none" x="0" y="150"></text><text fill="#eeeeee" stroke="none" font-family="Arial" font-size="24px" font-style="normal" font-weight="normal" text-decoration="none" x="0" y="180"></text><text fill="#eeeeee" stroke="none" font-family="Arial" font-size="24px" font-style="normal" font-weight="normal" text-decoration="none" x="0" y="210"></text><text fill="#eeeeee" stroke="none" font-family="Arial" font-size="24px" font-style="normal" font-weight="normal" text-decoration="none" x="0" y="240"></text><text fill="#eeeeee" stroke="none" font-family="Arial" font-size="24px" font-style="normal" font-weight="normal" text-decoration="none" x="0" y="270"></text><text fill="#eeeeee" stroke="none" font-family="Arial" font-size="24px" font-style="normal" font-weight="normal" text-decoration="none" x="0" y="300"></text><text fill="#eeeeee" stroke="none" font-family="Arial" font-size="24px" font-style="normal" font-weight="normal" text-decoration="none" x="0" y="330"></text><text fill="#eeeeee" stroke="none" font-family="Arial" font-size="24px" font-style="normal" font-weight="normal" text-decoration="none" x="0" y="360"></text><text fill="#eeeeee" stroke="none" font-family="Arial" font-size="24px" font-style="normal" font-weight="normal" text-decoration="none" x="0" y="390"></text><text fill="#eeeeee" stroke="none" font-family="Arial" font-size="24px" font-style="normal" font-weight="normal" text-decoration="none" x="0" y="420"></text><text fill="#eeeeee" stroke="none" font-family="Arial" font-size="24px" font-style="normal" font-weight="normal" text-decoration="none" x="0" y="450"></text><text fill="#eeeeee" stroke="none" font-family="Arial" font-size="24px" font-style="normal" font-weight="normal" text-decoration="none" x="0" y="480"></text><text fill="#eeeeee" stroke="none" font-family="Arial" font-size="24px" font-style="normal" font-weight="normal" text-decoration="none" x="0" y="510"></text><text fill="#eeeeee" stroke="none" font-family="Arial" font-size="24px" font-style="normal" font-weight="normal" text-decoration="none" x="0" y="540"></text><text fill="#eeeeee" stroke="none" font-family="Arial" font-size="24px" font-style="normal" font-weight="normal" text-decoration="none" x="0" y="570"></text><text fill="#eeeeee" stroke="none" font-family="Arial" font-size="24px" font-style="normal" font-weight="normal" text-decoration="none" x="0" y="600"></text><text fill="#eeeeee" stroke="none" font-family="Arial" font-size="24px" font-style="normal" font-weight="normal" text-decoration="none" x="0" y="630"></text><text fill="#eeeeee" stroke="none" font-family="Arial" font-size="24px" font-style="normal" font-weight="normal" text-decoration="none" x="0" y="660"></text><text fill="#eeeeee" stroke="none" font-family="Arial" font-size="24px" font-style="normal" font-weight="normal" text-decoration="none" x="200" y="0"></text><text fill="#eeeeee" stroke="none" font-family="Arial" font-size="24px" font-style="normal" font-weight="normal" text-decoration="none" x="200" y="30"></text><text fill="#eeeeee" stroke="none" font-family="Arial" font-size="24px" font-style="normal" font-weight="normal" text-decoration="none" x="200" y="60"></text><text fill="#eeeeee" stroke="none" font-family="Arial" font-size="24px" font-style="normal" font-weight="normal" text-decoration="none" x="200" y="90"></text><text fill="#eeeeee" stroke="none" font-family="Arial" font-size="24px" font-style="normal" font-weight="normal" text-decoration="none" x="200" y="120"></text><text fill="#eeeeee" stroke="none" font-family="Arial" font-size="24px" font-style="normal" font-weight="normal" text-decoration="none" x="200" y="150"></text><text fill="#eeeeee" stroke="none" font-family="Arial" font-size="24px" font-style="normal" font-weight="normal" text-decoration="none" x="200" y="180"></text><text fill="#eeeeee" stroke="none" font-family="Arial" font-size="24px" font-style="normal" font-weight="normal" text-decoration="none" x="200" y="210"></text><text fill="#eeeeee" stroke="none" font-family="Arial" font-size="24px" font-style="normal" font-weight="normal" text-decoration="none" x="200" y="240"></text><text fill="#eeeeee" stroke="none" font-family="Arial" font-size="24px" font-style="normal" font-weight="normal" text-decoration="none" x="200" y="270"></text><text fill="#eeeeee" stroke="none" font-family="Arial" font-size="24px" font-style="normal" font-weight="normal" text-decoration="none" x="200" y="300"></text><text fill="#eeeeee" stroke="none" font-family="Arial" font-size="24px" font-style="normal" font-weight="normal" text-decoration="none" x="200" y="330"></text><text fill="#eeeeee" stroke="none" font-family="Arial" font-size="24px" font-style="normal" font-weight="normal" text-decoration="none" x="200" y="360"></text><text fill="#eeeeee" stroke="none" font-family="Arial" font-size="24px" font-style="normal" font-weight="normal" text-decoration="none" x="200" y="390"></text><text fill="#eeeeee" stroke="none" font-family="Arial" font-size="24px" font-style="normal" font-weight="normal" text-decoration="none" x="200" y="420"></text><text fill="#eeeeee" stroke="none" font-family="Arial" font-size="24px" font-style="normal" font-weight="normal" text-decoration="none" x="200" y="450"></text><text fill="#eeeeee" stroke="none" font-family="Arial" font-size="24px" font-style="normal" font-weight="normal" text-decoration="none" x="200" y="480"></text><text fill="#eeeeee" stroke="none" font-family="Arial" font-size="24px" font-style="normal" font-weight="normal" text-decoration="none" x="200" y="510"></text><text fill="#eeeeee" stroke="none" font-family="Arial" font-size="24px" font-style="normal" font-weight="normal" text-decoration="none" x="200" y="540"></text><text fill="#eeeeee" stroke="none" font-family="Arial" font-size="24px" font-style="normal" font-weight="normal" text-decoration="none" x="200" y="570"></text><text fill="#eeeeee" stroke="none" font-family="Arial" font-size="24px" font-style="normal" font-weight="normal" text-decoration="none" x="200" y="600"></text><text fill="#eeeeee" stroke="none" font-family="Arial" font-size="24px" font-style="normal" font-weight="normal" text-decoration="none" x="200" y="630"></text><text fill="#eeeeee" stroke="none" font-family="Arial" font-size="24px" font-style="normal" font-weight="normal" text-decoration="none" x="200" y="660"></text><text fill="#eeeeee" stroke="none" font-family="Arial" font-size="24px" font-style="normal" font-weight="normal" text-decoration="none" x="400" y="0"></text><text fill="#eeeeee" stroke="none" font-family="Arial" font-size="24px" font-style="normal" font-weight="normal" text-decoration="none" x="400" y="30"></text><text fill="#eeeeee" stroke="none" font-family="Arial" font-size="24px" font-style="normal" font-weight="normal" text-decoration="none" x="400" y="60"></text><text fill="#eeeeee" stroke="none" font-family="Arial" font-size="24px" font-style="normal" font-weight="normal" text-decoration="none" x="400" y="90"></text><text fill="#eeeeee" stroke="none" font-family="Arial" font-size="24px" font-style="normal" font-weight="normal" text-decoration="none" x="400" y="120"></text><text fill="#eeeeee" stroke="none" font-family="Arial" font-size="24px" font-style="normal" font-weight="normal" text-decoration="none" x="400" y="150"></text><text fill="#eeeeee" stroke="none" font-family="Arial" font-size="24px" font-style="normal" font-weight="normal" text-decoration="none" x="400" y="180"></text><text fill="#eeeeee" stroke="none" font-family="Arial" font-size="24px" font-style="normal" font-weight="normal" text-decoration="none" x="400" y="210"></text><text fill="#eeeeee" stroke="none" font-family="Arial" font-size="24px" font-style="normal" font-weight="normal" text-decoration="none" x="400" y="240"></text><text fill="#eeeeee" stroke="none" font-family="Arial" font-size="24px" font-style="normal" font-weight="normal" text-decoration="none" x="400" y="270"></text><text fill="#eeeeee" stroke="none" font-family="Arial" font-size="24px" font-style="normal" font-weight="normal" text-decoration="none" x="400" y="300"></text><text fill="#eeeeee" stroke="none" font-family="Arial" font-size="24px" font-style="normal" font-weight="normal" text-decoration="none" x="400" y="330"></text><text fill="#eeeeee" stroke="none" font-family="Arial" font-size="24px" font-style="normal" font-weight="normal" text-decoration="none" x="400" y="360"></text><text fill="#eeeeee" stroke="none" font-family="Arial" font-size="24px" font-style="normal" font-weight="normal" text-decoration="none" x="400" y="390"></text><text fill="#eeeeee" stroke="none" font-family="Arial" font-size="24px" font-style="normal" font-weight="normal" text-decoration="none" x="400" y="420"></text><text fill="#eeeeee" stroke="none" font-family="Arial" font-size="24px" font-style="normal" font-weight="normal" text-decoration="none" x="400" y="450"></text><text fill="#eeeeee" stroke="none" font-family="Arial" font-size="24px" font-style="normal" font-weight="normal" text-decoration="none" x="400" y="480"></text><text fill="#eeeeee" stroke="none" font-family="Arial" font-size="24px" font-style="normal" font-weight="normal" text-decoration="none" x="400" y="510"></text><text fill="#eeeeee" stroke="none" font-family="Arial" font-size="24px" font-style="normal" font-weight="normal" text-decoration="none" x="400" y="540"></text><text fill="#eeeeee" stroke="none" font-family="Arial" font-size="24px" font-style="normal" font-weight="normal" text-decoration="none" x="400" y="570"></text><text fill="#eeeeee" stroke="none" font-family="Arial" font-size="24px" font-style="normal" font-weight="normal" text-decoration="none" x="400" y="600"></text><text fill="#eeeeee" stroke="none" font-family="Arial" font-size="24px" font-style="normal" font-weight="normal" text-decoration="none" x="400" y="630"></text><text fill="#eeeeee" stroke="none" font-family="Arial" font-size="24px" font-style="normal" font-weight="normal" text-decoration="none" x="400" y="660"></text><g transform="translate(-158,-46) scale(1,1)"><rect fill="#C0C0C0" stroke="none" x="271" y="247" width="245.58349609375" height="115" opacity="0.2"/></g><g transform="translate(-158,-46) scale(1,1)"><rect fill="#ffffff" stroke="none" x="264" y="240" width="245.58349609375" height="115"/></g><g transform="translate(-158,-46) scale(1,1)"><path fill="none" stroke="#000000" d="M 264 240 L 509.58349609375 240 L 509.58349609375 355 L 264 355 L 264 240 Z Z" stroke-miterlimit="10"/></g><g transform="translate(-158,-46) scale(1,1)"><path fill="none" stroke="#000000" d="M 264 280 L 509.58349609375 280" stroke-miterlimit="10"/></g><g transform="translate(-158,-46) scale(1,1)"><path fill="none" stroke="#000000" d="M 264 333 L 509.58349609375 333" stroke-miterlimit="10"/></g><g transform="translate(-158,-46) scale(1,1)"><g><path fill="none" stroke="none"/><text fill="#000000" stroke="none" font-family="Arial" font-size="13px" font-style="normal" font-weight="bold" text-decoration="none" x="342.015380859375" y="258">ConnexionCtrl</text></g></g><g transform="translate(-158,-46) scale(1,1)"><g><path fill="none" stroke="none"/><text fill="#000000" stroke="none" font-family="Arial" font-size="13px" font-style="normal" font-weight="normal" text-decoration="none" x="340.923583984375" y="273">(from controller)</text></g></g><g transform="translate(-158,-46) scale(1,1)"><g><path fill="none" stroke="none"/><text fill="#000000" stroke="none" font-family="Arial" font-size="13px" font-style="normal" font-weight="normal" text-decoration="none" x="269" y="296">-utilisateur: Utilisateur</text></g></g><g transform="translate(-158,-46) scale(1,1)"><g><path fill="none" stroke="none"/><text fill="#000000" stroke="none" font-family="Arial" font-size="13px" font-style="normal" font-weight="normal" text-decoration="none" x="269" y="311">-connexionView ConnexionView</text></g></g><g transform="translate(-158,-46) scale(1,1)"><g><path fill="none" stroke="none"/><text fill="#000000" stroke="none" font-family="Arial" font-size="13px" font-style="normal" font-weight="normal" text-decoration="none" x="269" y="326">-tableaudebordView: TableaudebordView</text></g></g><g transform="translate(-158,-46) scale(1,1)"><g><path fill="none" stroke="none"/><text fill="#000000" stroke="none" font-family="Arial" font-size="13px" font-style="normal" font-weight="normal" text-decoration="none" x="269" y="349">+connexionButtonClick()</text></g></g><g transform="translate(-158,-46) scale(1,1)"><rect fill="#C0C0C0" stroke="none" x="175" y="63" width="231.91064453125" height="102" opacity="0.2"/></g><g transform="translate(-158,-46) scale(1,1)"><rect fill="#ffffff" stroke="none" x="168" y="56" width="231.91064453125" height="102"/></g><g transform="translate(-158,-46) scale(1,1)"><path fill="none" stroke="#000000" d="M 168 56 L 399.91064453125 56 L 399.91064453125 158 L 168 158 L 168 56 Z Z" stroke-miterlimit="10"/></g><g transform="translate(-158,-46) scale(1,1)"><path fill="none" stroke="#000000" d="M 168 96 L 399.91064453125 96" stroke-miterlimit="10"/></g><g transform="translate(-158,-46) scale(1,1)"><path fill="none" stroke="#000000" d="M 168 149 L 399.91064453125 149" stroke-miterlimit="10"/></g><g transform="translate(-158,-46) scale(1,1)"><g><path fill="none" stroke="none"/><text fill="#000000" stroke="none" font-family="Arial" font-size="13px" font-style="normal" font-weight="bold" text-decoration="none" x="235.67822265625" y="74">ConnexionView</text></g></g><g transform="translate(-158,-46) scale(1,1)"><g><path fill="none" stroke="none"/><text fill="#000000" stroke="none" font-family="Arial" font-size="13px" font-style="normal" font-weight="normal" text-decoration="none" x="251.817138671875" y="89">(from view)</text></g></g><g transform="translate(-158,-46) scale(1,1)"><g><path fill="none" stroke="none"/><text fill="#000000" stroke="none" font-family="Arial" font-size="13px" font-style="normal" font-weight="normal" text-decoration="none" x="173" y="112">-identifiantTextField: TextField</text></g></g><g transform="translate(-158,-46) scale(1,1)"><g><path fill="none" stroke="none"/><text fill="#000000" stroke="none" font-family="Arial" font-size="13px" font-style="normal" font-weight="normal" text-decoration="none" x="173" y="127">-motdepasseTextField: PasswordField</text></g></g><g transform="translate(-158,-46) scale(1,1)"><g><path fill="none" stroke="none"/><text fill="#000000" stroke="none" font-family="Arial" font-size="13px" font-style="normal" font-weight="normal" text-decoration="none" x="173" y="142">-connexionButton: Button</text></g></g><g transform="translate(-158,-46) scale(1,1)"><path fill="none" stroke="#000000" d="M 311 159 L 355 239" stroke-miterlimit="10"/></g><g transform="translate(-158,-46) scale(1,1)"><path fill="#FFFFFF" stroke="none" d="M 346.4139700125948 232.12394814916445 L 355 239 L 353.7908628639509 228.06665708091862 L 344.39778750501256 219.72325000911377"/></g><g transform="translate(-158,-46) scale(1,1)"><path fill="none" stroke="#000000" d="M 346.4139700125948 232.12394814916445 L 355 239 L 353.7908628639509 228.06665708091862 L 344.39778750501256 219.72325000911377 L 346.4139700125948 232.12394814916445" stroke-miterlimit="10"/></g><g transform="translate(-158,-46) scale(1,1)"><path fill="none" stroke="#000000" d="M 319.5860299874052 165.87605185083555 L 311 159 L 312.20913713604915 169.93334291908138" stroke-miterlimit="10"/></g><g transform="translate(-158,-46) scale(1,1)"><rect fill="#C0C0C0" stroke="none" x="439" y="127" width="130.60205078125" height="39" opacity="0.2"/></g><g transform="translate(-158,-46) scale(1,1)"><rect fill="#ffffff" stroke="none" x="432" y="120" width="130.60205078125" height="39"/></g><g transform="translate(-158,-46) scale(1,1)"><path fill="none" stroke="#000000" d="M 432 120 L 562.60205078125 120 L 562.60205078125 159 L 432 159 L 432 120 Z Z" stroke-miterlimit="10"/></g><g transform="translate(-158,-46) scale(1,1)"><g><path fill="none" stroke="none"/><text fill="#000000" stroke="none" font-family="Arial" font-size="13px" font-style="normal" font-weight="bold" text-decoration="none" x="436.5" y="138">TableaudebordView</text></g></g><g transform="translate(-158,-46) scale(1,1)"><g><path fill="none" stroke="none"/><text fill="#000000" stroke="none" font-family="Arial" font-size="13px" font-style="normal" font-weight="normal" text-decoration="none" x="465.162841796875" y="153">(from view)</text></g></g><g transform="translate(-158,-46) scale(1,1)"><path fill="none" stroke="#000000" d="M 482 160 L 427 239" stroke-miterlimit="10"/></g><g transform="translate(-158,-46) scale(1,1)"><path fill="#FFFFFF" stroke="none" d="M 429.3519121437779 228.2543725512211 L 427 239 L 436.2613590627562 233.0647469884845 L 439.57011417383274 220.94474509576756"/></g><g transform="translate(-158,-46) scale(1,1)"><path fill="none" stroke="#000000" d="M 429.3519121437779 228.2543725512211 L 427 239 L 436.2613590627562 233.0647469884845 L 439.57011417383274 220.94474509576756 L 429.3519121437779 228.2543725512211" stroke-miterlimit="10"/></g><g transform="translate(-158,-46) scale(1,1)"><rect fill="#C0C0C0" stroke="none" x="303" y="431" width="180.62158203125" height="100" opacity="0.2"/></g><g transform="translate(-158,-46) scale(1,1)"><rect fill="#ffffff" stroke="none" x="296" y="424" width="180.62158203125" height="100"/></g><g transform="translate(-158,-46) scale(1,1)"><path fill="none" stroke="#000000" d="M 296 424 L 476.62158203125 424 L 476.62158203125 524 L 296 524 L 296 424 Z Z" stroke-miterlimit="10"/></g><g transform="translate(-158,-46) scale(1,1)"><path fill="none" stroke="#000000" d="M 296 464 L 476.62158203125 464" stroke-miterlimit="10"/></g><g transform="translate(-158,-46) scale(1,1)"><path fill="none" stroke="#000000" d="M 296 502 L 476.62158203125 502" stroke-miterlimit="10"/></g><g transform="translate(-158,-46) scale(1,1)"><g><path fill="none" stroke="none"/><text fill="#000000" stroke="none" font-family="Arial" font-size="13px" font-style="italic" font-weight="bold" text-decoration="none" x="354.52490234375" y="442">Utilisateur</text></g></g><g transform="translate(-158,-46) scale(1,1)"><g><path fill="none" stroke="none"/><text fill="#000000" stroke="none" font-family="Arial" font-size="13px" font-style="normal" font-weight="normal" text-decoration="none" x="349.47216796875" y="457">(from model)</text></g></g><g transform="translate(-158,-46) scale(1,1)"><g><path fill="none" stroke="none"/><text fill="#000000" stroke="none" font-family="Arial" font-size="13px" font-style="normal" font-weight="normal" text-decoration="none" x="301" y="480">-mail: String</text></g></g><g transform="translate(-158,-46) scale(1,1)"><g><path fill="none" stroke="none"/><text fill="#000000" stroke="none" font-family="Arial" font-size="13px" font-style="normal" font-weight="normal" text-decoration="none" x="301" y="495">-mdp: String</text></g></g><g transform="translate(-158,-46) scale(1,1)"><g><path fill="none" stroke="none"/><text fill="#000000" stroke="none" font-family="Arial" font-size="13px" font-style="italic" font-weight="normal" text-decoration="none" x="301" y="518">+verifieIdentifiants(): boolean</text></g></g><g transform="translate(-158,-46) scale(1,1)"><path fill="none" stroke="#000000" d="M 386 423 L 386 356" stroke-miterlimit="10"/></g><g transform="translate(-158,-46) scale(1,1)"><path fill="#FFFFFF" stroke="none" d="M 390.209517756016 366.16267485762415 L 386 356 L 381.790482243984 366.16267485762415 L 386 378"/></g><g transform="translate(-158,-46) scale(1,1)"><path fill="none" stroke="#000000" d="M 390.209517756016 366.16267485762415 L 386 356 L 381.790482243984 366.16267485762415 L 386 378 L 390.209517756016 366.16267485762415" stroke-miterlimit="10"/></g><g transform="translate(-158,-46) scale(1,1)"><path fill="none" stroke="#000000" d="M 381.790482243984 412.83732514237585 L 386 423 L 390.209517756016 412.83732514237585" stroke-miterlimit="10"/></g><g transform="translate(-158,-46) scale(1,1)"><rect fill="#C0C0C0" stroke="none" x="271" y="591" width="100.42529296875" height="87" opacity="0.2"/></g><g transform="translate(-158,-46) scale(1,1)"><rect fill="#ffffff" stroke="none" x="264" y="584" width="100.42529296875" height="87"/></g><g transform="translate(-158,-46) scale(1,1)"><path fill="none" stroke="#000000" d="M 264 584 L 364.42529296875 584 L 364.42529296875 671 L 264 671 L 264 584 Z Z" stroke-miterlimit="10"/></g><g transform="translate(-158,-46) scale(1,1)"><path fill="none" stroke="#000000" d="M 264 624 L 364.42529296875 624" stroke-miterlimit="10"/></g><g transform="translate(-158,-46) scale(1,1)"><path fill="none" stroke="#000000" d="M 264 662 L 364.42529296875 662" stroke-miterlimit="10"/></g><g transform="translate(-158,-46) scale(1,1)"><g><path fill="none" stroke="none"/><text fill="#000000" stroke="none" font-family="Arial" font-size="13px" font-style="normal" font-weight="bold" text-decoration="none" x="293.9921875" y="602">Admin</text></g></g><g transform="translate(-158,-46) scale(1,1)"><g><path fill="none" stroke="none"/><text fill="#000000" stroke="none" font-family="Arial" font-size="13px" font-style="normal" font-weight="normal" text-decoration="none" x="277.3740234375" y="617">(from model)</text></g></g><g transform="translate(-158,-46) scale(1,1)"><g><path fill="none" stroke="none"/><text fill="#000000" stroke="none" font-family="Arial" font-size="13px" font-style="normal" font-weight="normal" text-decoration="none" x="269" y="640">-idAdmin: int</text></g></g><g transform="translate(-158,-46) scale(1,1)"><g><path fill="none" stroke="none"/><text fill="#000000" stroke="none" font-family="Arial" font-size="13px" font-style="normal" font-weight="normal" text-decoration="none" x="269" y="655">-pseudo: String</text></g></g><g transform="translate(-158,-46) scale(1,1)"><path fill="none" stroke="#000000" d="M 335 583 L 362 525" stroke-miterlimit="10"/></g><g transform="translate(-158,-46) scale(1,1)"><path fill="#FFFFFF" stroke="none" d="M 361.0546477599145 546.9796794594954 L 362 525 L 345.7895546263097 539.8735154145415"/></g><g transform="translate(-158,-46) scale(1,1)"><path fill="none" stroke="#000000" d="M 361.0546477599145 546.9796794594954 L 362 525 L 345.7895546263097 539.8735154145415 L 361.0546477599145 546.9796794594954" stroke-miterlimit="10"/></g><g transform="translate(-158,-46) scale(1,1)"><rect fill="#C0C0C0" stroke="none" x="415" y="591" width="117.75439453125" height="132" opacity="0.2"/></g><g transform="translate(-158,-46) scale(1,1)"><rect fill="#ffffff" stroke="none" x="408" y="584" width="117.75439453125" height="132"/></g><g transform="translate(-158,-46) scale(1,1)"><path fill="none" stroke="#000000" d="M 408 584 L 525.75439453125 584 L 525.75439453125 716 L 408 716 L 408 584 Z Z" stroke-miterlimit="10"/></g><g transform="translate(-158,-46) scale(1,1)"><path fill="none" stroke="#000000" d="M 408 624 L 525.75439453125 624" stroke-miterlimit="10"/></g><g transform="translate(-158,-46) scale(1,1)"><path fill="none" stroke="#000000" d="M 408 707 L 525.75439453125 707" stroke-miterlimit="10"/></g><g transform="translate(-158,-46) scale(1,1)"><g><path fill="none" stroke="none"/><text fill="#000000" stroke="none" font-family="Arial" font-size="13px" font-style="normal" font-weight="bold" text-decoration="none" x="432.206298828125" y="602">Producteur</text></g></g><g transform="translate(-158,-46) scale(1,1)"><g><path fill="none" stroke="none"/><text fill="#000000" stroke="none" font-family="Arial" font-size="13px" font-style="normal" font-weight="normal" text-decoration="none" x="430.03857421875" y="617">(from model)</text></g></g><g transform="translate(-158,-46) scale(1,1)"><g><path fill="none" stroke="none"/><text fill="#000000" stroke="none" font-family="Arial" font-size="13px" font-style="normal" font-weight="normal" text-decoration="none" x="413" y="640">-SIRET: String</text></g></g><g transform="translate(-158,-46) scale(1,1)"><g><path fill="none" stroke="none"/><text fill="#000000" stroke="none" font-family="Arial" font-size="13px" font-style="normal" font-weight="normal" text-decoration="none" x="413" y="655">-nom: String</text></g></g><g transform="translate(-158,-46) scale(1,1)"><g><path fill="none" stroke="none"/><text fill="#000000" stroke="none" font-family="Arial" font-size="13px" font-style="normal" font-weight="normal" text-decoration="none" x="413" y="670">-prenom: String</text></g></g><g transform="translate(-158,-46) scale(1,1)"><g><path fill="none" stroke="none"/><text fill="#000000" stroke="none" font-family="Arial" font-size="13px" font-style="normal" font-weight="normal" text-decoration="none" x="413" y="685">-numTel: String</text></g></g><g transform="translate(-158,-46) scale(1,1)"><g><path fill="none" stroke="none"/><text fill="#000000" stroke="none" font-family="Arial" font-size="13px" font-style="normal" font-weight="normal" text-decoration="none" x="413" y="700">-adresse: Adresse</text></g></g><g transform="translate(-158,-46) scale(1,1)"><path fill="none" stroke="#000000" d="M 436 583 L 409 525" stroke-miterlimit="10"/></g><g transform="translate(-158,-46) scale(1,1)"><path fill="#FFFFFF" stroke="none" d="M 425.2104453736903 539.8735154145415 L 409 525 L 409.9453522400855 546.9796794594954"/></g><g transform="translate(-158,-46) scale(1,1)"><path fill="none" stroke="#000000" d="M 425.2104453736903 539.8735154145415 L 409 525 L 409.9453522400855 546.9796794594954 L 425.2104453736903 539.8735154145415" stroke-miterlimit="10"/></g></g></svg>