<svg version="1.1" xmlns="http://www.w3.org/2000/svg" xmlns:xlink="http://www.w3.org/1999/xlink" width="881.81787109375" height="359"><defs/><g><text fill="#eeeeee" stroke="none" font-family="Arial" font-size="24px" font-style="normal" font-weight="normal" text-decoration="none" x="0" y="0"></text><text fill="#eeeeee" stroke="none" font-family="Arial" font-size="24px" font-style="normal" font-weight="normal" text-decoration="none" x="0" y="30"></text><text fill="#eeeeee" stroke="none" font-family="Arial" font-size="24px" font-style="normal" font-weight="normal" text-decoration="none" x="0" y="60"></text><text fill="#eeeeee" stroke="none" font-family="Arial" font-size="24px" font-style="normal" font-weight="normal" text-decoration="none" x="0" y="90"></text><text fill="#eeeeee" stroke="none" font-family="Arial" font-size="24px" font-style="normal" font-weight="normal" text-decoration="none" x="0" y="120"></text><text fill="#eeeeee" stroke="none" font-family="Arial" font-size="24px" font-style="normal" font-weight="normal" text-decoration="none" x="0" y="150"></text><text fill="#eeeeee" stroke="none" font-family="Arial" font-size="24px" font-style="normal" font-weight="normal" text-decoration="none" x="0" y="180"></text><text fill="#eeeeee" stroke="none" font-family="Arial" font-size="24px" font-style="normal" font-weight="normal" text-decoration="none" x="0" y="210"></text><text fill="#eeeeee" stroke="none" font-family="Arial" font-size="24px" font-style="normal" font-weight="normal" text-decoration="none" x="0" y="240"></text><text fill="#eeeeee" stroke="none" font-family="Arial" font-size="24px" font-style="normal" font-weight="normal" text-decoration="none" x="0" y="270"></text><text fill="#eeeeee" stroke="none" font-family="Arial" font-size="24px" font-style="normal" font-weight="normal" text-decoration="none" x="0" y="300"></text><text fill="#eeeeee" stroke="none" font-family="Arial" font-size="24px" font-style="normal" font-weight="normal" text-decoration="none" x="0" y="330"></text><text fill="#eeeeee" stroke="none" font-family="Arial" font-size="24px" font-style="normal" font-weight="normal" text-decoration="none" x="200" y="0"></text><text fill="#eeeeee" stroke="none" font-family="Arial" font-size="24px" font-style="normal" font-weight="normal" text-decoration="none" x="200" y="30"></text><text fill="#eeeeee" stroke="none" font-family="Arial" font-size="24px" font-style="normal" font-weight="normal" text-decoration="none" x="200" y="60"></text><text fill="#eeeeee" stroke="none" font-family="Arial" font-size="24px" font-style="normal" font-weight="normal" text-decoration="none" x="200" y="90"></text><text fill="#eeeeee" stroke="none" font-family="Arial" font-size="24px" font-style="normal" font-weight="normal" text-decoration="none" x="200" y="120"></text><text fill="#eeeeee" stroke="none" font-family="Arial" font-size="24px" font-style="normal" font-weight="normal" text-decoration="none" x="200" y="150"></text><text fill="#eeeeee" stroke="none" font-family="Arial" font-size="24px" font-style="normal" font-weight="normal" text-decoration="none" x="200" y="180"></text><text fill="#eeeeee" stroke="none" font-family="Arial" font-size="24px" font-style="normal" font-weight="normal" text-decoration="none" x="200" y="210"></text><text fill="#eeeeee" stroke="none" font-family="Arial" font-size="24px" font-style="normal" font-weight="normal" text-decoration="none" x="200" y="240"></text><text fill="#eeeeee" stroke="none" font-family="Arial" font-size="24px" font-style="normal" font-weight="normal" text-decoration="none" x="200" y="270"></text><text fill="#eeeeee" stroke="none" font-family="Arial" font-size="24px" font-style="normal" font-weight="normal" text-decoration="none" x="200" y="300"></text><text fill="#eeeeee" stroke="none" font-family="Arial" font-size="24px" font-style="normal" font-weight="normal" text-decoration="none" x="200" y="330"></text><text fill="#eeeeee" stroke="none" font-family="Arial" font-size="24px" font-style="normal" font-weight="normal" text-decoration="none" x="400" y="0"></text><text fill="#eeeeee" stroke="none" font-family="Arial" font-size="24px" font-style="normal" font-weight="normal" text-decoration="none" x="400" y="30"></text><text fill="#eeeeee" stroke="none" font-family="Arial" font-size="24px" font-style="normal" font-weight="normal" text-decoration="none" x="400" y="60"></text><text fill="#eeeeee" stroke="none" font-family="Arial" font-size="24px" font-style="normal" font-weight="normal" text-decoration="none" x="400" y="90"></text><text fill="#eeeeee" stroke="none" font-family="Arial" font-size="24px" font-style="normal" font-weight="normal" text-decoration="none" x="400" y="120"></text><text fill="#eeeeee" stroke="none" font-family="Arial" font-size="24px" font-style="normal" font-weight="normal" text-decoration="none" x="400" y="150"></text><text fill="#eeeeee" stroke="none" font-family="Arial" font-size="24px" font-style="normal" font-weight="normal" text-decoration="none" x="400" y="180"></text><text fill="#eeeeee" stroke="none" font-family="Arial" font-size="24px" font-style="normal" font-weight="normal" text-decoration="none" x="400" y="210"></text><text fill="#eeeeee" stroke="none" font-family="Arial" font-size="24px" font-style="normal" font-weight="normal" text-decoration="none" x="400" y="240"></text><text fill="#eeeeee" stroke="none" font-family="Arial" font-size="24px" font-style="normal" font-weight="normal" text-decoration="none" x="400" y="270"></text><text fill="#eeeeee" stroke="none" font-family="Arial" font-size="24px" font-style="normal" font-weight="normal" text-decoration="none" x="400" y="300"></text><text fill="#eeeeee" stroke="none" font-family="Arial" font-size="24px" font-style="normal" font-weight="normal" text-decoration="none" x="400" y="330"></text><text fill="#eeeeee" stroke="none" font-family="Arial" font-size="24px" font-style="normal" font-weight="normal" text-decoration="none" x="600" y="0"></text><text fill="#eeeeee" stroke="none" font-family="Arial" font-size="24px" font-style="normal" font-weight="normal" text-decoration="none" x="600" y="30"></text><text fill="#eeeeee" stroke="none" font-family="Arial" font-size="24px" font-style="normal" font-weight="normal" text-decoration="none" x="600" y="60"></text><text fill="#eeeeee" stroke="none" font-family="Arial" font-size="24px" font-style="normal" font-weight="normal" text-decoration="none" x="600" y="90"></text><text fill="#eeeeee" stroke="none" font-family="Arial" font-size="24px" font-style="normal" font-weight="normal" text-decoration="none" x="600" y="120"></text><text fill="#eeeeee" stroke="none" font-family="Arial" font-size="24px" font-style="normal" font-weight="normal" text-decoration="none" x="600" y="150"></text><text fill="#eeeeee" stroke="none" font-family="Arial" font-size="24px" font-style="normal" font-weight="normal" text-decoration="none" x="600" y="180"></text><text fill="#eeeeee" stroke="none" font-family="Arial" font-size="24px" font-style="normal" font-weight="normal" text-decoration="none" x="600" y="210"></text><text fill="#eeeeee" stroke="none" font-family="Arial" font-size="24px" font-style="normal" font-weight="normal" text-decoration="none" x="600" y="240"></text><text fill="#eeeeee" stroke="none" font-family="Arial" font-size="24px" font-style="normal" font-weight="normal" text-decoration="none" x="600" y="270"></text><text fill="#eeeeee" stroke="none" font-family="Arial" font-size="24px" font-style="normal" font-weight="normal" text-decoration="none" x="600" y="300"></text><text fill="#eeeeee" stroke="none" font-family="Arial" font-size="24px" font-style="normal" font-weight="normal" text-decoration="none" x="600" y="330"></text><text fill="#eeeeee" stroke="none" font-family="Arial" font-size="24px" font-style="normal" font-weight="normal" text-decoration="none" x="800" y="0"></text><text fill="#eeeeee" stroke="none" font-family="Arial" font-size="24px" font-style="normal" font-weight="normal" text-decoration="none" x="800" y="30"></text><text fill="#eeeeee" stroke="none" font-family="Arial" font-size="24px" font-style="normal" font-weight="normal" text-decoration="none" x="800" y="60"></text><text fill="#eeeeee" stroke="none" font-family="Arial" font-size="24px" font-style="normal" font-weight="normal" text-decoration="none" x="800" y="90"></text><text fill="#eeeeee" stroke="none" font-family="Arial" font-size="24px" font-style="normal" font-weight="normal" text-decoration="none" x="800" y="120"></text><text fill="#eeeeee" stroke="none" font-family="Arial" font-size="24px" font-style="normal" font-weight="normal" text-decoration="none" x="800" y="150"></text><text fill="#eeeeee" stroke="none" font-family="Arial" font-size="24px" font-style="normal" font-weight="normal" text-decoration="none" x="800" y="180"></text><text fill="#eeeeee" stroke="none" font-family="Arial" font-size="24px" font-style="normal" font-weight="normal" text-decoration="none" x="800" y="210"></text><text fill="#eeeeee" stroke="none" font-family="Arial" font-size="24px" font-style="normal" font-weight="normal" text-decoration="none" x="800" y="240"></text><text fill="#eeeeee" stroke="none" font-family="Arial" font-size="24px" font-style="normal" font-weight="normal" text-decoration="none" x="800" y="270"></text><text fill="#eeeeee" stroke="none" font-family="Arial" font-size="24px" font-style="normal" font-weight="normal" text-decoration="none" x="800" y="300"></text><text fill="#eeeeee" stroke="none" font-family="Arial" font-size="24px" font-style="normal" font-weight="normal" text-decoration="none" x="800" y="330"></text><g transform="translate(-126,-110) scale(1,1)"><rect fill="#C0C0C0" stroke="none" x="527" y="263" width="100.736328125" height="59" opacity="0.2"/></g><g transform="translate(-126,-110) scale(1,1)"><rect fill="#ffffff" stroke="none" x="520" y="256" width="100.736328125" height="59"/></g><g transform="translate(-126,-110) scale(1,1)"><path fill="none" stroke="#000000" d="M 520 256 L 620.736328125 256 L 620.736328125 315 L 520 315 L 520 256 Z Z" stroke-miterlimit="10"/></g><g transform="translate(-126,-110) scale(1,1)"><path fill="none" stroke="#000000" d="M 520 296 L 620.736328125 296" stroke-miterlimit="10"/></g><g transform="translate(-126,-110) scale(1,1)"><path fill="none" stroke="#000000" d="M 520 306 L 620.736328125 306" stroke-miterlimit="10"/></g><g transform="translate(-126,-110) scale(1,1)"><g><path fill="none" stroke="none"/><text fill="#000000" stroke="none" font-family="Arial" font-size="13px" font-style="normal" font-weight="bold" text-decoration="none" x="529.1845703125" y="274">VehiculesCtrl</text></g></g><g transform="translate(-126,-110) scale(1,1)"><g><path fill="none" stroke="none"/><text fill="#000000" stroke="none" font-family="Arial" font-size="13px" font-style="normal" font-weight="normal" text-decoration="none" x="524.5" y="289">(from controller)</text></g></g><g transform="translate(-126,-110) scale(1,1)"><rect fill="#C0C0C0" stroke="none" x="783" y="207" width="221.81787109375" height="145" opacity="0.2"/></g><g transform="translate(-126,-110) scale(1,1)"><rect fill="#ffffff" stroke="none" x="776" y="200" width="221.81787109375" height="145"/></g><g transform="translate(-126,-110) scale(1,1)"><path fill="none" stroke="#000000" d="M 776 200 L 997.81787109375 200 L 997.81787109375 345 L 776 345 L 776 200 Z Z" stroke-miterlimit="10"/></g><g transform="translate(-126,-110) scale(1,1)"><path fill="none" stroke="#000000" d="M 776 240 L 997.81787109375 240" stroke-miterlimit="10"/></g><g transform="translate(-126,-110) scale(1,1)"><path fill="none" stroke="#000000" d="M 776 263 L 997.81787109375 263" stroke-miterlimit="10"/></g><g transform="translate(-126,-110) scale(1,1)"><g><path fill="none" stroke="none"/><text fill="#000000" stroke="none" font-family="Arial" font-size="13px" font-style="normal" font-weight="bold" text-decoration="none" x="841.74853515625" y="218">ListeVehicules</text></g></g><g transform="translate(-126,-110) scale(1,1)"><g><path fill="none" stroke="none"/><text fill="#000000" stroke="none" font-family="Arial" font-size="13px" font-style="normal" font-weight="normal" text-decoration="none" x="850.0703125" y="233">(from model)</text></g></g><g transform="translate(-126,-110) scale(1,1)"><g><path fill="none" stroke="none"/><text fill="#000000" stroke="none" font-family="Arial" font-size="13px" font-style="normal" font-weight="normal" text-decoration="none" x="781" y="256">-vehicules: ArrayList&lt;Vehicule&gt;</text></g></g><g transform="translate(-126,-110) scale(1,1)"><g><path fill="none" stroke="none"/><text fill="#000000" stroke="none" font-family="Arial" font-size="13px" font-style="normal" font-weight="normal" text-decoration="none" x="781" y="279">+ListeVehicules()</text></g></g><g transform="translate(-126,-110) scale(1,1)"><g><path fill="none" stroke="none"/><text fill="#000000" stroke="none" font-family="Arial" font-size="13px" font-style="normal" font-weight="normal" text-decoration="none" x="781" y="294">+getVehicules(): ArrayList&lt;Vehicule&gt;</text></g></g><g transform="translate(-126,-110) scale(1,1)"><g><path fill="none" stroke="none"/><text fill="#000000" stroke="none" font-family="Arial" font-size="13px" font-style="normal" font-weight="normal" text-decoration="none" x="781" y="309">+ajouter(v: Vehicule)</text></g></g><g transform="translate(-126,-110) scale(1,1)"><g><path fill="none" stroke="none"/><text fill="#000000" stroke="none" font-family="Arial" font-size="13px" font-style="normal" font-weight="normal" text-decoration="none" x="781" y="324">+supprimer(v: Vehicule)</text></g></g><g transform="translate(-126,-110) scale(1,1)"><g><path fill="none" stroke="none"/><text fill="#000000" stroke="none" font-family="Arial" font-size="13px" font-style="normal" font-weight="normal" text-decoration="none" x="781" y="339">+editer(v: Vehicule)</text></g></g><g transform="translate(-126,-110) scale(1,1)"><rect fill="#C0C0C0" stroke="none" x="143" y="127" width="165.08251953125" height="132" opacity="0.2"/></g><g transform="translate(-126,-110) scale(1,1)"><rect fill="#ffffff" stroke="none" x="136" y="120" width="165.08251953125" height="132"/></g><g transform="translate(-126,-110) scale(1,1)"><path fill="none" stroke="#000000" d="M 136 120 L 301.08251953125 120 L 301.08251953125 252 L 136 252 L 136 120 Z Z" stroke-miterlimit="10"/></g><g transform="translate(-126,-110) scale(1,1)"><path fill="none" stroke="#000000" d="M 136 160 L 301.08251953125 160" stroke-miterlimit="10"/></g><g transform="translate(-126,-110) scale(1,1)"><path fill="none" stroke="#000000" d="M 136 243 L 301.08251953125 243" stroke-miterlimit="10"/></g><g transform="translate(-126,-110) scale(1,1)"><g><path fill="none" stroke="none"/><text fill="#000000" stroke="none" font-family="Arial" font-size="13px" font-style="normal" font-weight="bold" text-decoration="none" x="173.85693359375" y="138">VehiculesView</text></g></g><g transform="translate(-126,-110) scale(1,1)"><g><path fill="none" stroke="none"/><text fill="#000000" stroke="none" font-family="Arial" font-size="13px" font-style="normal" font-weight="normal" text-decoration="none" x="186.403076171875" y="153">(from view)</text></g></g><g transform="translate(-126,-110) scale(1,1)"><g><path fill="none" stroke="none"/><text fill="#000000" stroke="none" font-family="Arial" font-size="13px" font-style="normal" font-weight="normal" text-decoration="none" x="141" y="176">-menu: MenuBar</text></g></g><g transform="translate(-126,-110) scale(1,1)"><g><path fill="none" stroke="none"/><text fill="#000000" stroke="none" font-family="Arial" font-size="13px" font-style="normal" font-weight="normal" text-decoration="none" x="141" y="191">-listeVehicules: ListView</text></g></g><g transform="translate(-126,-110) scale(1,1)"><g><path fill="none" stroke="none"/><text fill="#000000" stroke="none" font-family="Arial" font-size="13px" font-style="normal" font-weight="normal" text-decoration="none" x="141" y="206">-ajouterVehicule: Button</text></g></g><g transform="translate(-126,-110) scale(1,1)"><g><path fill="none" stroke="none"/><text fill="#000000" stroke="none" font-family="Arial" font-size="13px" font-style="normal" font-weight="normal" text-decoration="none" x="141" y="221">-supprimerVehicule: Button</text></g></g><g transform="translate(-126,-110) scale(1,1)"><g><path fill="none" stroke="none"/><text fill="#000000" stroke="none" font-family="Arial" font-size="13px" font-style="normal" font-weight="normal" text-decoration="none" x="141" y="236">-editerVehicule: Button</text></g></g><g transform="translate(-126,-110) scale(1,1)"><rect fill="#C0C0C0" stroke="none" x="167" y="319" width="130.86865234375" height="147" opacity="0.2"/></g><g transform="translate(-126,-110) scale(1,1)"><rect fill="#ffffff" stroke="none" x="160" y="312" width="130.86865234375" height="147"/></g><g transform="translate(-126,-110) scale(1,1)"><path fill="none" stroke="#000000" d="M 160 312 L 290.86865234375 312 L 290.86865234375 459 L 160 459 L 160 312 Z Z" stroke-miterlimit="10"/></g><g transform="translate(-126,-110) scale(1,1)"><path fill="none" stroke="#000000" d="M 160 352 L 290.86865234375 352" stroke-miterlimit="10"/></g><g transform="translate(-126,-110) scale(1,1)"><path fill="none" stroke="#000000" d="M 160 450 L 290.86865234375 450" stroke-miterlimit="10"/></g><g transform="translate(-126,-110) scale(1,1)"><g><path fill="none" stroke="none"/><text fill="#000000" stroke="none" font-family="Arial" font-size="13px" font-style="normal" font-weight="bold" text-decoration="none" x="164.5" y="330">VehiculesFormView</text></g></g><g transform="translate(-126,-110) scale(1,1)"><g><path fill="none" stroke="none"/><text fill="#000000" stroke="none" font-family="Arial" font-size="13px" font-style="normal" font-weight="normal" text-decoration="none" x="193.296142578125" y="345">(from view)</text></g></g><g transform="translate(-126,-110) scale(1,1)"><g><path fill="none" stroke="none"/><text fill="#000000" stroke="none" font-family="Arial" font-size="13px" font-style="normal" font-weight="normal" text-decoration="none" x="165" y="368">-immatLabel: Label</text></g></g><g transform="translate(-126,-110) scale(1,1)"><g><path fill="none" stroke="none"/><text fill="#000000" stroke="none" font-family="Arial" font-size="13px" font-style="normal" font-weight="normal" text-decoration="none" x="165" y="383">-immat: TextField</text></g></g><g transform="translate(-126,-110) scale(1,1)"><g><path fill="none" stroke="none"/><text fill="#000000" stroke="none" font-family="Arial" font-size="13px" font-style="normal" font-weight="normal" text-decoration="none" x="165" y="398">-poidsLabel: Label</text></g></g><g transform="translate(-126,-110) scale(1,1)"><g><path fill="none" stroke="none"/><text fill="#000000" stroke="none" font-family="Arial" font-size="13px" font-style="normal" font-weight="normal" text-decoration="none" x="165" y="413">-poids: TextField</text></g></g><g transform="translate(-126,-110) scale(1,1)"><g><path fill="none" stroke="none"/><text fill="#000000" stroke="none" font-family="Arial" font-size="13px" font-style="normal" font-weight="normal" text-decoration="none" x="165" y="428">-enregistrer: Button</text></g></g><g transform="translate(-126,-110) scale(1,1)"><g><path fill="none" stroke="none"/><text fill="#000000" stroke="none" font-family="Arial" font-size="13px" font-style="normal" font-weight="normal" text-decoration="none" x="165" y="443">-annuler: Button</text></g></g><g transform="translate(-126,-110) scale(1,1)"><path fill="none" stroke="#000000" d="M 302 210 L 519 271" stroke-miterlimit="10"/></g><g transform="translate(-126,-110) scale(1,1)"><path fill="#FFFFFF" stroke="none" d="M 508.07735687932364 272.30225468259533 L 519 271 L 510.355691863994 264.1973580977843 L 497.8208845762656 265.04642377489495"/></g><g transform="translate(-126,-110) scale(1,1)"><path fill="none" stroke="#000000" d="M 508.07735687932364 272.30225468259533 L 519 271 L 510.355691863994 264.1973580977843 L 497.8208845762656 265.04642377489495 L 508.07735687932364 272.30225468259533" stroke-miterlimit="10"/></g><g transform="translate(-126,-110) scale(1,1)"><path fill="none" stroke="#000000" d="M 312.92264312067636 208.69774531740464 L 302 210 L 310.644308136006 216.80264190221573" stroke-miterlimit="10"/></g><g transform="translate(-126,-110) scale(1,1)"><path fill="none" stroke="#000000" d="M 775 277 L 622 283" stroke-miterlimit="10"/></g><g transform="translate(-126,-110) scale(1,1)"><path fill="#FFFFFF" stroke="none" d="M 631.9899170838505 278.39548518758045 L 622 283 L 632.3198217614179 286.80805446554626 L 643.9831029160939 282.1379175327022"/></g><g transform="translate(-126,-110) scale(1,1)"><path fill="none" stroke="#000000" d="M 631.9899170838505 278.39548518758045 L 622 283 L 632.3198217614179 286.80805446554626 L 643.9831029160939 282.1379175327022 L 631.9899170838505 278.39548518758045" stroke-miterlimit="10"/></g><g transform="translate(-126,-110) scale(1,1)"><path fill="none" stroke="#000000" d="M 765.0100829161495 281.60451481241955 L 775 277 L 764.6801782385821 273.19194553445374" stroke-miterlimit="10"/></g><g transform="translate(-126,-110) scale(1,1)"><path fill="none" stroke="#000000" d="M 292 366 L 519 300" stroke-miterlimit="10"/></g><g transform="translate(-126,-110) scale(1,1)"><path fill="#FFFFFF" stroke="none" d="M 510.4166738806513 306.87942677327885 L 519 300 L 508.06618257381115 298.7951612179347 L 497.8747960543231 306.14212978156246"/></g><g transform="translate(-126,-110) scale(1,1)"><path fill="none" stroke="#000000" d="M 510.4166738806513 306.87942677327885 L 519 300 L 508.06618257381115 298.7951612179347 L 497.8747960543231 306.14212978156246 L 510.4166738806513 306.87942677327885" stroke-miterlimit="10"/></g><g transform="translate(-126,-110) scale(1,1)"><path fill="none" stroke="#000000" d="M 300.5833261193487 359.12057322672115 L 292 366 L 302.93381742618885 367.2048387820653" stroke-miterlimit="10"/></g></g></svg>