<svg version="1.1" xmlns="http://www.w3.org/2000/svg" xmlns:xlink="http://www.w3.org/1999/xlink" width="964.16259765625" height="558"><defs/><g><text fill="#eeeeee" stroke="none" font-family="Arial" font-size="24px" font-style="normal" font-weight="normal" text-decoration="none" x="0" y="0"></text><text fill="#eeeeee" stroke="none" font-family="Arial" font-size="24px" font-style="normal" font-weight="normal" text-decoration="none" x="0" y="30"></text><text fill="#eeeeee" stroke="none" font-family="Arial" font-size="24px" font-style="normal" font-weight="normal" text-decoration="none" x="0" y="60"></text><text fill="#eeeeee" stroke="none" font-family="Arial" font-size="24px" font-style="normal" font-weight="normal" text-decoration="none" x="0" y="90"></text><text fill="#eeeeee" stroke="none" font-family="Arial" font-size="24px" font-style="normal" font-weight="normal" text-decoration="none" x="0" y="120"></text><text fill="#eeeeee" stroke="none" font-family="Arial" font-size="24px" font-style="normal" font-weight="normal" text-decoration="none" x="0" y="150"></text><text fill="#eeeeee" stroke="none" font-family="Arial" font-size="24px" font-style="normal" font-weight="normal" text-decoration="none" x="0" y="180"></text><text fill="#eeeeee" stroke="none" font-family="Arial" font-size="24px" font-style="normal" font-weight="normal" text-decoration="none" x="0" y="210"></text><text fill="#eeeeee" stroke="none" font-family="Arial" font-size="24px" font-style="normal" font-weight="normal" text-decoration="none" x="0" y="240"></text><text fill="#eeeeee" stroke="none" font-family="Arial" font-size="24px" font-style="normal" font-weight="normal" text-decoration="none" x="0" y="270"></text><text fill="#eeeeee" stroke="none" font-family="Arial" font-size="24px" font-style="normal" font-weight="normal" text-decoration="none" x="0" y="300"></text><text fill="#eeeeee" stroke="none" font-family="Arial" font-size="24px" font-style="normal" font-weight="normal" text-decoration="none" x="0" y="330"></text><text fill="#eeeeee" stroke="none" font-family="Arial" font-size="24px" font-style="normal" font-weight="normal" text-decoration="none" x="0" y="360"></text><text fill="#eeeeee" stroke="none" font-family="Arial" font-size="24px" font-style="normal" font-weight="normal" text-decoration="none" x="0" y="390"></text><text fill="#eeeeee" stroke="none" font-family="Arial" font-size="24px" font-style="normal" font-weight="normal" text-decoration="none" x="0" y="420"></text><text fill="#eeeeee" stroke="none" font-family="Arial" font-size="24px" font-style="normal" font-weight="normal" text-decoration="none" x="0" y="450"></text><text fill="#eeeeee" stroke="none" font-family="Arial" font-size="24px" font-style="normal" font-weight="normal" text-decoration="none" x="0" y="480"></text><text fill="#eeeeee" stroke="none" font-family="Arial" font-size="24px" font-style="normal" font-weight="normal" text-decoration="none" x="0" y="510"></text><text fill="#eeeeee" stroke="none" font-family="Arial" font-size="24px" font-style="normal" font-weight="normal" text-decoration="none" x="0" y="540"></text><text fill="#eeeeee" stroke="none" font-family="Arial" font-size="24px" font-style="normal" font-weight="normal" text-decoration="none" x="200" y="0"></text><text fill="#eeeeee" stroke="none" font-family="Arial" font-size="24px" font-style="normal" font-weight="normal" text-decoration="none" x="200" y="30"></text><text fill="#eeeeee" stroke="none" font-family="Arial" font-size="24px" font-style="normal" font-weight="normal" text-decoration="none" x="200" y="60"></text><text fill="#eeeeee" stroke="none" font-family="Arial" font-size="24px" font-style="normal" font-weight="normal" text-decoration="none" x="200" y="90"></text><text fill="#eeeeee" stroke="none" font-family="Arial" font-size="24px" font-style="normal" font-weight="normal" text-decoration="none" x="200" y="120"></text><text fill="#eeeeee" stroke="none" font-family="Arial" font-size="24px" font-style="normal" font-weight="normal" text-decoration="none" x="200" y="150"></text><text fill="#eeeeee" stroke="none" font-family="Arial" font-size="24px" font-style="normal" font-weight="normal" text-decoration="none" x="200" y="180"></text><text fill="#eeeeee" stroke="none" font-family="Arial" font-size="24px" font-style="normal" font-weight="normal" text-decoration="none" x="200" y="210"></text><text fill="#eeeeee" stroke="none" font-family="Arial" font-size="24px" font-style="normal" font-weight="normal" text-decoration="none" x="200" y="240"></text><text fill="#eeeeee" stroke="none" font-family="Arial" font-size="24px" font-style="normal" font-weight="normal" text-decoration="none" x="200" y="270"></text><text fill="#eeeeee" stroke="none" font-family="Arial" font-size="24px" font-style="normal" font-weight="normal" text-decoration="none" x="200" y="300"></text><text fill="#eeeeee" stroke="none" font-family="Arial" font-size="24px" font-style="normal" font-weight="normal" text-decoration="none" x="200" y="330"></text><text fill="#eeeeee" stroke="none" font-family="Arial" font-size="24px" font-style="normal" font-weight="normal" text-decoration="none" x="200" y="360"></text><text fill="#eeeeee" stroke="none" font-family="Arial" font-size="24px" font-style="normal" font-weight="normal" text-decoration="none" x="200" y="390"></text><text fill="#eeeeee" stroke="none" font-family="Arial" font-size="24px" font-style="normal" font-weight="normal" text-decoration="none" x="200" y="420"></text><text fill="#eeeeee" stroke="none" font-family="Arial" font-size="24px" font-style="normal" font-weight="normal" text-decoration="none" x="200" y="450"></text><text fill="#eeeeee" stroke="none" font-family="Arial" font-size="24px" font-style="normal" font-weight="normal" text-decoration="none" x="200" y="480"></text><text fill="#eeeeee" stroke="none" font-family="Arial" font-size="24px" font-style="normal" font-weight="normal" text-decoration="none" x="200" y="510"></text><text fill="#eeeeee" stroke="none" font-family="Arial" font-size="24px" font-style="normal" font-weight="normal" text-decoration="none" x="200" y="540"></text><text fill="#eeeeee" stroke="none" font-family="Arial" font-size="24px" font-style="normal" font-weight="normal" text-decoration="none" x="400" y="0"></text><text fill="#eeeeee" stroke="none" font-family="Arial" font-size="24px" font-style="normal" font-weight="normal" text-decoration="none" x="400" y="30"></text><text fill="#eeeeee" stroke="none" font-family="Arial" font-size="24px" font-style="normal" font-weight="normal" text-decoration="none" x="400" y="60"></text><text fill="#eeeeee" stroke="none" font-family="Arial" font-size="24px" font-style="normal" font-weight="normal" text-decoration="none" x="400" y="90"></text><text fill="#eeeeee" stroke="none" font-family="Arial" font-size="24px" font-style="normal" font-weight="normal" text-decoration="none" x="400" y="120"></text><text fill="#eeeeee" stroke="none" font-family="Arial" font-size="24px" font-style="normal" font-weight="normal" text-decoration="none" x="400" y="150"></text><text fill="#eeeeee" stroke="none" font-family="Arial" font-size="24px" font-style="normal" font-weight="normal" text-decoration="none" x="400" y="180"></text><text fill="#eeeeee" stroke="none" font-family="Arial" font-size="24px" font-style="normal" font-weight="normal" text-decoration="none" x="400" y="210"></text><text fill="#eeeeee" stroke="none" font-family="Arial" font-size="24px" font-style="normal" font-weight="normal" text-decoration="none" x="400" y="240"></text><text fill="#eeeeee" stroke="none" font-family="Arial" font-size="24px" font-style="normal" font-weight="normal" text-decoration="none" x="400" y="270"></text><text fill="#eeeeee" stroke="none" font-family="Arial" font-size="24px" font-style="normal" font-weight="normal" text-decoration="none" x="400" y="300"></text><text fill="#eeeeee" stroke="none" font-family="Arial" font-size="24px" font-style="normal" font-weight="normal" text-decoration="none" x="400" y="330"></text><text fill="#eeeeee" stroke="none" font-family="Arial" font-size="24px" font-style="normal" font-weight="normal" text-decoration="none" x="400" y="360"></text><text fill="#eeeeee" stroke="none" font-family="Arial" font-size="24px" font-style="normal" font-weight="normal" text-decoration="none" x="400" y="390"></text><text fill="#eeeeee" stroke="none" font-family="Arial" font-size="24px" font-style="normal" font-weight="normal" text-decoration="none" x="400" y="420"></text><text fill="#eeeeee" stroke="none" font-family="Arial" font-size="24px" font-style="normal" font-weight="normal" text-decoration="none" x="400" y="450"></text><text fill="#eeeeee" stroke="none" font-family="Arial" font-size="24px" font-style="normal" font-weight="normal" text-decoration="none" x="400" y="480"></text><text fill="#eeeeee" stroke="none" font-family="Arial" font-size="24px" font-style="normal" font-weight="normal" text-decoration="none" x="400" y="510"></text><text fill="#eeeeee" stroke="none" font-family="Arial" font-size="24px" font-style="normal" font-weight="normal" text-decoration="none" x="400" y="540"></text><text fill="#eeeeee" stroke="none" font-family="Arial" font-size="24px" font-style="normal" font-weight="normal" text-decoration="none" x="600" y="0"></text><text fill="#eeeeee" stroke="none" font-family="Arial" font-size="24px" font-style="normal" font-weight="normal" text-decoration="none" x="600" y="30"></text><text fill="#eeeeee" stroke="none" font-family="Arial" font-size="24px" font-style="normal" font-weight="normal" text-decoration="none" x="600" y="60"></text><text fill="#eeeeee" stroke="none" font-family="Arial" font-size="24px" font-style="normal" font-weight="normal" text-decoration="none" x="600" y="90"></text><text fill="#eeeeee" stroke="none" font-family="Arial" font-size="24px" font-style="normal" font-weight="normal" text-decoration="none" x="600" y="120"></text><text fill="#eeeeee" stroke="none" font-family="Arial" font-size="24px" font-style="normal" font-weight="normal" text-decoration="none" x="600" y="150"></text><text fill="#eeeeee" stroke="none" font-family="Arial" font-size="24px" font-style="normal" font-weight="normal" text-decoration="none" x="600" y="180"></text><text fill="#eeeeee" stroke="none" font-family="Arial" font-size="24px" font-style="normal" font-weight="normal" text-decoration="none" x="600" y="210"></text><text fill="#eeeeee" stroke="none" font-family="Arial" font-size="24px" font-style="normal" font-weight="normal" text-decoration="none" x="600" y="240"></text><text fill="#eeeeee" stroke="none" font-family="Arial" font-size="24px" font-style="normal" font-weight="normal" text-decoration="none" x="600" y="270"></text><text fill="#eeeeee" stroke="none" font-family="Arial" font-size="24px" font-style="normal" font-weight="normal" text-decoration="none" x="600" y="300"></text><text fill="#eeeeee" stroke="none" font-family="Arial" font-size="24px" font-style="normal" font-weight="normal" text-decoration="none" x="600" y="330"></text><text fill="#eeeeee" stroke="none" font-family="Arial" font-size="24px" font-style="normal" font-weight="normal" text-decoration="none" x="600" y="360"></text><text fill="#eeeeee" stroke="none" font-family="Arial" font-size="24px" font-style="normal" font-weight="normal" text-decoration="none" x="600" y="390"></text><text fill="#eeeeee" stroke="none" font-family="Arial" font-size="24px" font-style="normal" font-weight="normal" text-decoration="none" x="600" y="420"></text><text fill="#eeeeee" stroke="none" font-family="Arial" font-size="24px" font-style="normal" font-weight="normal" text-decoration="none" x="600" y="450"></text><text fill="#eeeeee" stroke="none" font-family="Arial" font-size="24px" font-style="normal" font-weight="normal" text-decoration="none" x="600" y="480"></text><text fill="#eeeeee" stroke="none" font-family="Arial" font-size="24px" font-style="normal" font-weight="normal" text-decoration="none" x="600" y="510"></text><text fill="#eeeeee" stroke="none" font-family="Arial" font-size="24px" font-style="normal" font-weight="normal" text-decoration="none" x="600" y="540"></text><text fill="#eeeeee" stroke="none" font-family="Arial" font-size="24px" font-style="normal" font-weight="normal" text-decoration="none" x="800" y="0"></text><text fill="#eeeeee" stroke="none" font-family="Arial" font-size="24px" font-style="normal" font-weight="normal" text-decoration="none" x="800" y="30"></text><text fill="#eeeeee" stroke="none" font-family="Arial" font-size="24px" font-style="normal" font-weight="normal" text-decoration="none" x="800" y="60"></text><text fill="#eeeeee" stroke="none" font-family="Arial" font-size="24px" font-style="normal" font-weight="normal" text-decoration="none" x="800" y="90"></text><text fill="#eeeeee" stroke="none" font-family="Arial" font-size="24px" font-style="normal" font-weight="normal" text-decoration="none" x="800" y="120"></text><text fill="#eeeeee" stroke="none" font-family="Arial" font-size="24px" font-style="normal" font-weight="normal" text-decoration="none" x="800" y="150"></text><text fill="#eeeeee" stroke="none" font-family="Arial" font-size="24px" font-style="normal" font-weight="normal" text-decoration="none" x="800" y="180"></text><text fill="#eeeeee" stroke="none" font-family="Arial" font-size="24px" font-style="normal" font-weight="normal" text-decoration="none" x="800" y="210"></text><text fill="#eeeeee" stroke="none" font-family="Arial" font-size="24px" font-style="normal" font-weight="normal" text-decoration="none" x="800" y="240"></text><text fill="#eeeeee" stroke="none" font-family="Arial" font-size="24px" font-style="normal" font-weight="normal" text-decoration="none" x="800" y="270"></text><text fill="#eeeeee" stroke="none" font-family="Arial" font-size="24px" font-style="normal" font-weight="normal" text-decoration="none" x="800" y="300"></text><text fill="#eeeeee" stroke="none" font-family="Arial" font-size="24px" font-style="normal" font-weight="normal" text-decoration="none" x="800" y="330"></text><text fill="#eeeeee" stroke="none" font-family="Arial" font-size="24px" font-style="normal" font-weight="normal" text-decoration="none" x="800" y="360"></text><text fill="#eeeeee" stroke="none" font-family="Arial" font-size="24px" font-style="normal" font-weight="normal" text-decoration="none" x="800" y="390"></text><text fill="#eeeeee" stroke="none" font-family="Arial" font-size="24px" font-style="normal" font-weight="normal" text-decoration="none" x="800" y="420"></text><text fill="#eeeeee" stroke="none" font-family="Arial" font-size="24px" font-style="normal" font-weight="normal" text-decoration="none" x="800" y="450"></text><text fill="#eeeeee" stroke="none" font-family="Arial" font-size="24px" font-style="normal" font-weight="normal" text-decoration="none" x="800" y="480"></text><text fill="#eeeeee" stroke="none" font-family="Arial" font-size="24px" font-style="normal" font-weight="normal" text-decoration="none" x="800" y="510"></text><text fill="#eeeeee" stroke="none" font-family="Arial" font-size="24px" font-style="normal" font-weight="normal" text-decoration="none" x="800" y="540"></text><g transform="translate(-55,-78) scale(1,1)"><rect fill="#C0C0C0" stroke="none" x="413" y="255" width="245.58349609375" height="130" opacity="0.2"/></g><g transform="translate(-55,-78) scale(1,1)"><rect fill="#ffffff" stroke="none" x="406" y="248" width="245.58349609375" height="130"/></g><g transform="translate(-55,-78) scale(1,1)"><path fill="none" stroke="#000000" d="M 406 248 L 651.58349609375 248 L 651.58349609375 378 L 406 378 L 406 248 Z Z" stroke-miterlimit="10"/></g><g transform="translate(-55,-78) scale(1,1)"><path fill="none" stroke="#000000" d="M 406 288 L 651.58349609375 288" stroke-miterlimit="10"/></g><g transform="translate(-55,-78) scale(1,1)"><path fill="none" stroke="#000000" d="M 406 326 L 651.58349609375 326" stroke-miterlimit="10"/></g><g transform="translate(-55,-78) scale(1,1)"><g><path fill="none" stroke="none"/><text fill="#000000" stroke="none" font-family="Arial" font-size="13px" font-style="normal" font-weight="bold" text-decoration="none" x="484.015380859375" y="266">ConnexionCtrl</text></g></g><g transform="translate(-55,-78) scale(1,1)"><g><path fill="none" stroke="none"/><text fill="#000000" stroke="none" font-family="Arial" font-size="13px" font-style="normal" font-weight="normal" text-decoration="none" x="482.923583984375" y="281">(from controller)</text></g></g><g transform="translate(-55,-78) scale(1,1)"><g><path fill="none" stroke="none"/><text fill="#000000" stroke="none" font-family="Arial" font-size="13px" font-style="normal" font-weight="normal" text-decoration="none" x="411" y="304">-connexionView ConnexionView</text></g></g><g transform="translate(-55,-78) scale(1,1)"><g><path fill="none" stroke="none"/><text fill="#000000" stroke="none" font-family="Arial" font-size="13px" font-style="normal" font-weight="normal" text-decoration="none" x="411" y="319">-tableaudebordView: TableaudebordView</text></g></g><g transform="translate(-55,-78) scale(1,1)"><g><path fill="none" stroke="none"/><text fill="#000000" stroke="none" font-family="Arial" font-size="13px" font-style="normal" font-weight="normal" text-decoration="none" x="411" y="342">+verifieIdentifiants()</text></g></g><g transform="translate(-55,-78) scale(1,1)"><g><path fill="none" stroke="none"/><text fill="#000000" stroke="none" font-family="Arial" font-size="13px" font-style="normal" font-weight="normal" text-decoration="none" x="411" y="357">+buttonPressed()</text></g></g><g transform="translate(-55,-78) scale(1,1)"><g><path fill="none" stroke="none"/><text fill="#000000" stroke="none" font-family="Arial" font-size="13px" font-style="normal" font-weight="normal" text-decoration="none" x="411" y="372">-valideIdentifiant(): boolean</text></g></g><g transform="translate(-55,-78) scale(1,1)"><rect fill="#C0C0C0" stroke="none" x="791" y="254" width="176.29248046875" height="130" opacity="0.2"/></g><g transform="translate(-55,-78) scale(1,1)"><rect fill="#ffffff" stroke="none" x="784" y="247" width="176.29248046875" height="130"/></g><g transform="translate(-55,-78) scale(1,1)"><path fill="none" stroke="#000000" d="M 784 247 L 960.29248046875 247 L 960.29248046875 377 L 784 377 L 784 247 Z Z" stroke-miterlimit="10"/></g><g transform="translate(-55,-78) scale(1,1)"><path fill="none" stroke="#000000" d="M 784 287 L 960.29248046875 287" stroke-miterlimit="10"/></g><g transform="translate(-55,-78) scale(1,1)"><path fill="none" stroke="#000000" d="M 784 325 L 960.29248046875 325" stroke-miterlimit="10"/></g><g transform="translate(-55,-78) scale(1,1)"><g><path fill="none" stroke="none"/><text fill="#000000" stroke="none" font-family="Arial" font-size="13px" font-style="italic" font-weight="bold" text-decoration="none" x="840.3603515625" y="265">Utilisateur</text></g></g><g transform="translate(-55,-78) scale(1,1)"><g><path fill="none" stroke="none"/><text fill="#000000" stroke="none" font-family="Arial" font-size="13px" font-style="normal" font-weight="normal" text-decoration="none" x="835.3076171875" y="280">(from model)</text></g></g><g transform="translate(-55,-78) scale(1,1)"><g><path fill="none" stroke="none"/><text fill="#000000" stroke="none" font-family="Arial" font-size="13px" font-style="normal" font-weight="normal" text-decoration="none" x="789" y="303">-mail: String</text></g></g><g transform="translate(-55,-78) scale(1,1)"><g><path fill="none" stroke="none"/><text fill="#000000" stroke="none" font-family="Arial" font-size="13px" font-style="normal" font-weight="normal" text-decoration="none" x="789" y="318">-mdp: String</text></g></g><g transform="translate(-55,-78) scale(1,1)"><g><path fill="none" stroke="none"/><text fill="#000000" stroke="none" font-family="Arial" font-size="13px" font-style="italic" font-weight="normal" text-decoration="none" x="789" y="341">+verifieIdentifiants(): boolean</text></g></g><g transform="translate(-55,-78) scale(1,1)"><g><path fill="none" stroke="none"/><text fill="#000000" stroke="none" font-family="Arial" font-size="13px" font-style="normal" font-weight="normal" text-decoration="none" x="789" y="356">+getMail(): String</text></g></g><g transform="translate(-55,-78) scale(1,1)"><g><path fill="none" stroke="none"/><text fill="#000000" stroke="none" font-family="Arial" font-size="13px" font-style="normal" font-weight="normal" text-decoration="none" x="789" y="371">+getMdp(): String</text></g></g><g transform="translate(-55,-78) scale(1,1)"><rect fill="#C0C0C0" stroke="none" x="919" y="447" width="97.16259765625" height="87" opacity="0.2"/></g><g transform="translate(-55,-78) scale(1,1)"><rect fill="#ffffff" stroke="none" x="912" y="440" width="97.16259765625" height="87"/></g><g transform="translate(-55,-78) scale(1,1)"><path fill="none" stroke="#000000" d="M 912 440 L 1009.16259765625 440 L 1009.16259765625 527 L 912 527 L 912 440 Z Z" stroke-miterlimit="10"/></g><g transform="translate(-55,-78) scale(1,1)"><path fill="none" stroke="#000000" d="M 912 480 L 1009.16259765625 480" stroke-miterlimit="10"/></g><g transform="translate(-55,-78) scale(1,1)"><path fill="none" stroke="#000000" d="M 912 518 L 1009.16259765625 518" stroke-miterlimit="10"/></g><g transform="translate(-55,-78) scale(1,1)"><g><path fill="none" stroke="none"/><text fill="#000000" stroke="none" font-family="Arial" font-size="13px" font-style="normal" font-weight="bold" text-decoration="none" x="940.36083984375" y="458">Admin</text></g></g><g transform="translate(-55,-78) scale(1,1)"><g><path fill="none" stroke="none"/><text fill="#000000" stroke="none" font-family="Arial" font-size="13px" font-style="normal" font-weight="normal" text-decoration="none" x="923.74267578125" y="473">(from model)</text></g></g><g transform="translate(-55,-78) scale(1,1)"><g><path fill="none" stroke="none"/><text fill="#000000" stroke="none" font-family="Arial" font-size="13px" font-style="normal" font-weight="normal" text-decoration="none" x="917" y="496">-idAdmin: int</text></g></g><g transform="translate(-55,-78) scale(1,1)"><g><path fill="none" stroke="none"/><text fill="#000000" stroke="none" font-family="Arial" font-size="13px" font-style="normal" font-weight="normal" text-decoration="none" x="917" y="511">-pseudo: String</text></g></g><g transform="translate(-55,-78) scale(1,1)"><path fill="none" stroke="#000000" d="M 937 439 L 906 378" stroke-miterlimit="10"/></g><g transform="translate(-55,-78) scale(1,1)"><path fill="#FFFFFF" stroke="none" d="M 922.713842032745 392.30550539143746 L 906 378 L 907.7029511704486 399.93399091162087"/></g><g transform="translate(-55,-78) scale(1,1)"><path fill="none" stroke="#000000" d="M 922.713842032745 392.30550539143746 L 906 378 L 907.7029511704486 399.93399091162087 L 922.713842032745 392.30550539143746" stroke-miterlimit="10"/></g><g transform="translate(-55,-78) scale(1,1)"><rect fill="#C0C0C0" stroke="none" x="751" y="447" width="114.49169921875" height="132" opacity="0.2"/></g><g transform="translate(-55,-78) scale(1,1)"><rect fill="#ffffff" stroke="none" x="744" y="440" width="114.49169921875" height="132"/></g><g transform="translate(-55,-78) scale(1,1)"><path fill="none" stroke="#000000" d="M 744 440 L 858.49169921875 440 L 858.49169921875 572 L 744 572 L 744 440 Z Z" stroke-miterlimit="10"/></g><g transform="translate(-55,-78) scale(1,1)"><path fill="none" stroke="#000000" d="M 744 480 L 858.49169921875 480" stroke-miterlimit="10"/></g><g transform="translate(-55,-78) scale(1,1)"><path fill="none" stroke="#000000" d="M 744 563 L 858.49169921875 563" stroke-miterlimit="10"/></g><g transform="translate(-55,-78) scale(1,1)"><g><path fill="none" stroke="none"/><text fill="#000000" stroke="none" font-family="Arial" font-size="13px" font-style="normal" font-weight="bold" text-decoration="none" x="766.574951171875" y="458">Producteur</text></g></g><g transform="translate(-55,-78) scale(1,1)"><g><path fill="none" stroke="none"/><text fill="#000000" stroke="none" font-family="Arial" font-size="13px" font-style="normal" font-weight="normal" text-decoration="none" x="764.4072265625" y="473">(from model)</text></g></g><g transform="translate(-55,-78) scale(1,1)"><g><path fill="none" stroke="none"/><text fill="#000000" stroke="none" font-family="Arial" font-size="13px" font-style="normal" font-weight="normal" text-decoration="none" x="749" y="496">-SIRET: String</text></g></g><g transform="translate(-55,-78) scale(1,1)"><g><path fill="none" stroke="none"/><text fill="#000000" stroke="none" font-family="Arial" font-size="13px" font-style="normal" font-weight="normal" text-decoration="none" x="749" y="511">-nom: String</text></g></g><g transform="translate(-55,-78) scale(1,1)"><g><path fill="none" stroke="none"/><text fill="#000000" stroke="none" font-family="Arial" font-size="13px" font-style="normal" font-weight="normal" text-decoration="none" x="749" y="526">-prenom: String</text></g></g><g transform="translate(-55,-78) scale(1,1)"><g><path fill="none" stroke="none"/><text fill="#000000" stroke="none" font-family="Arial" font-size="13px" font-style="normal" font-weight="normal" text-decoration="none" x="749" y="541">-numTel: String</text></g></g><g transform="translate(-55,-78) scale(1,1)"><g><path fill="none" stroke="none"/><text fill="#000000" stroke="none" font-family="Arial" font-size="13px" font-style="normal" font-weight="normal" text-decoration="none" x="749" y="556">-adresse: Adresse</text></g></g><g transform="translate(-55,-78) scale(1,1)"><path fill="none" stroke="#000000" d="M 826 439 L 848 378" stroke-miterlimit="10"/></g><g transform="translate(-55,-78) scale(1,1)"><path fill="#FFFFFF" stroke="none" d="M 849.0240184720597 399.9761549450508 L 848 378 L 833.184602219602 394.2635785917054"/></g><g transform="translate(-55,-78) scale(1,1)"><path fill="none" stroke="#000000" d="M 849.0240184720597 399.9761549450508 L 848 378 L 833.184602219602 394.2635785917054 L 849.0240184720597 399.9761549450508" stroke-miterlimit="10"/></g><g transform="translate(-55,-78) scale(1,1)"><rect fill="#C0C0C0" stroke="none" x="72" y="136" width="202.62890625" height="235" opacity="0.2"/></g><g transform="translate(-55,-78) scale(1,1)"><rect fill="#ffffff" stroke="none" x="65" y="129" width="202.62890625" height="235"/></g><g transform="translate(-55,-78) scale(1,1)"><path fill="none" stroke="#000000" d="M 65 129 L 267.62890625 129 L 267.62890625 364 L 65 364 L 65 129 Z Z" stroke-miterlimit="10"/></g><g transform="translate(-55,-78) scale(1,1)"><path fill="none" stroke="#000000" d="M 65 169 L 267.62890625 169" stroke-miterlimit="10"/></g><g transform="translate(-55,-78) scale(1,1)"><path fill="none" stroke="#000000" d="M 65 297 L 267.62890625 297" stroke-miterlimit="10"/></g><g transform="translate(-55,-78) scale(1,1)"><g><path fill="none" stroke="none"/><text fill="#000000" stroke="none" font-family="Arial" font-size="13px" font-style="normal" font-weight="bold" text-decoration="none" x="118.037353515625" y="147">ConnexionView</text></g></g><g transform="translate(-55,-78) scale(1,1)"><g><path fill="none" stroke="none"/><text fill="#000000" stroke="none" font-family="Arial" font-size="13px" font-style="normal" font-weight="normal" text-decoration="none" x="134.17626953125" y="162">(from view)</text></g></g><g transform="translate(-55,-78) scale(1,1)"><g><path fill="none" stroke="none"/><text fill="#000000" stroke="none" font-family="Arial" font-size="13px" font-style="normal" font-weight="normal" text-decoration="none" x="70" y="185">-identifiantLabel: Label</text></g></g><g transform="translate(-55,-78) scale(1,1)"><g><path fill="none" stroke="none"/><text fill="#000000" stroke="none" font-family="Arial" font-size="13px" font-style="normal" font-weight="normal" text-decoration="none" x="70" y="200">-identifiant: TextField</text></g></g><g transform="translate(-55,-78) scale(1,1)"><g><path fill="none" stroke="none"/><text fill="#000000" stroke="none" font-family="Arial" font-size="13px" font-style="normal" font-weight="normal" text-decoration="none" x="70" y="215">-motdepasseLabel: Label</text></g></g><g transform="translate(-55,-78) scale(1,1)"><g><path fill="none" stroke="none"/><text fill="#000000" stroke="none" font-family="Arial" font-size="13px" font-style="normal" font-weight="normal" text-decoration="none" x="70" y="230">-motdepasse: PasswordField</text></g></g><g transform="translate(-55,-78) scale(1,1)"><g><path fill="none" stroke="none"/><text fill="#000000" stroke="none" font-family="Arial" font-size="13px" font-style="normal" font-weight="normal" text-decoration="none" x="70" y="245">-modeLabel: Label</text></g></g><g transform="translate(-55,-78) scale(1,1)"><g><path fill="none" stroke="none"/><text fill="#000000" stroke="none" font-family="Arial" font-size="13px" font-style="normal" font-weight="normal" text-decoration="none" x="70" y="260">-mode: CheckBox</text></g></g><g transform="translate(-55,-78) scale(1,1)"><g><path fill="none" stroke="none"/><text fill="#000000" stroke="none" font-family="Arial" font-size="13px" font-style="normal" font-weight="normal" text-decoration="none" x="70" y="275">-messageErreur: Label</text></g></g><g transform="translate(-55,-78) scale(1,1)"><g><path fill="none" stroke="none"/><text fill="#000000" stroke="none" font-family="Arial" font-size="13px" font-style="normal" font-weight="normal" text-decoration="none" x="70" y="290">-seConnecter: Button</text></g></g><g transform="translate(-55,-78) scale(1,1)"><g><path fill="none" stroke="none"/><text fill="#000000" stroke="none" font-family="Arial" font-size="13px" font-style="normal" font-weight="normal" text-decoration="none" x="70" y="313">+getIdentifiant(): String</text></g></g><g transform="translate(-55,-78) scale(1,1)"><g><path fill="none" stroke="none"/><text fill="#000000" stroke="none" font-family="Arial" font-size="13px" font-style="normal" font-weight="normal" text-decoration="none" x="70" y="328">+getMdp(): String</text></g></g><g transform="translate(-55,-78) scale(1,1)"><g><path fill="none" stroke="none"/><text fill="#000000" stroke="none" font-family="Arial" font-size="13px" font-style="normal" font-weight="normal" text-decoration="none" x="70" y="343">+getConnexionMode(): String</text></g></g><g transform="translate(-55,-78) scale(1,1)"><g><path fill="none" stroke="none"/><text fill="#000000" stroke="none" font-family="Arial" font-size="13px" font-style="normal" font-weight="normal" text-decoration="none" x="70" y="358">+setMessageErreur()</text></g></g><g transform="translate(-55,-78) scale(1,1)"><path fill="none" stroke="#000000" d="M 269 265 L 405 290" stroke-miterlimit="10"/></g><g transform="translate(-55,-78) scale(1,1)"><path fill="#FFFFFF" stroke="none" d="M 394.2437397753143 292.3027952533484 L 405 290 L 395.76585331559073 284.02249759424444 L 383.3625394809244 286.0225256398758"/></g><g transform="translate(-55,-78) scale(1,1)"><path fill="none" stroke="#000000" d="M 394.2437397753143 292.3027952533484 L 405 290 L 395.76585331559073 284.02249759424444 L 383.3625394809244 286.0225256398758 L 394.2437397753143 292.3027952533484" stroke-miterlimit="10"/></g><g transform="translate(-55,-78) scale(1,1)"><path fill="none" stroke="#000000" d="M 279.7562602246857 262.6972047466516 L 269 265 L 278.23414668440927 270.97750240575556" stroke-miterlimit="10"/></g><g transform="translate(-55,-78) scale(1,1)"><rect fill="#C0C0C0" stroke="none" x="143" y="351" width="130.60205078125" height="39" opacity="0.2"/></g><g transform="translate(-55,-78) scale(1,1)"><rect fill="#ffffff" stroke="none" x="136" y="344" width="130.60205078125" height="39"/></g><g transform="translate(-55,-78) scale(1,1)"><path fill="none" stroke="#000000" d="M 136 344 L 266.60205078125 344 L 266.60205078125 383 L 136 383 L 136 344 Z Z" stroke-miterlimit="10"/></g><g transform="translate(-55,-78) scale(1,1)"><g><path fill="none" stroke="none"/><text fill="#000000" stroke="none" font-family="Arial" font-size="13px" font-style="normal" font-weight="bold" text-decoration="none" x="140.5" y="362">TableaudebordView</text></g></g><g transform="translate(-55,-78) scale(1,1)"><g><path fill="none" stroke="none"/><text fill="#000000" stroke="none" font-family="Arial" font-size="13px" font-style="normal" font-weight="normal" text-decoration="none" x="169.162841796875" y="377">(from view)</text></g></g><g transform="translate(-55,-78) scale(1,1)"><path fill="none" stroke="#000000" d="M 268 353 L 405 332" stroke-miterlimit="10"/></g><g transform="translate(-55,-78) scale(1,1)"><path fill="#FFFFFF" stroke="none" d="M 395.592458693295 337.7007163201338 L 405 332 L 394.3168485801489 329.37887891532375 L 383.2539908943046 335.3333298629168"/></g><g transform="translate(-55,-78) scale(1,1)"><path fill="none" stroke="#000000" d="M 395.592458693295 337.7007163201338 L 405 332 L 394.3168485801489 329.37887891532375 L 383.2539908943046 335.3333298629168 L 395.592458693295 337.7007163201338" stroke-miterlimit="10"/></g><g transform="translate(-55,-78) scale(1,1)"><rect fill="#C0C0C0" stroke="none" x="191" y="543" width="101.94873046875" height="90" opacity="0.2"/></g><g transform="translate(-55,-78) scale(1,1)"><rect fill="#ffffff" stroke="none" x="184" y="536" width="101.94873046875" height="90"/></g><g transform="translate(-55,-78) scale(1,1)"><path fill="none" stroke="#000000" d="M 184 536 L 285.94873046875 536 L 285.94873046875 626 L 184 626 L 184 536 Z Z" stroke-miterlimit="10"/></g><g transform="translate(-55,-78) scale(1,1)"><path fill="none" stroke="#000000" d="M 184 589 L 285.94873046875 589" stroke-miterlimit="10"/></g><g transform="translate(-55,-78) scale(1,1)"><g><path fill="none" stroke="none"/><text fill="#000000" stroke="none" font-family="Arial" font-size="13px" font-style="normal" font-weight="normal" text-decoration="none" x="191.6103515625" y="552">«enumeration»</text></g></g><g transform="translate(-55,-78) scale(1,1)"><g><path fill="none" stroke="none"/><text fill="#000000" stroke="none" font-family="Arial" font-size="13px" font-style="normal" font-weight="bold" text-decoration="none" x="188.5" y="567">TypeUtilisateur</text></g></g><g transform="translate(-55,-78) scale(1,1)"><g><path fill="none" stroke="none"/><text fill="#000000" stroke="none" font-family="Arial" font-size="13px" font-style="normal" font-weight="normal" text-decoration="none" x="198.1357421875" y="582">(from model)</text></g></g><g transform="translate(-55,-78) scale(1,1)"><g><path fill="none" stroke="none"/><text fill="#000000" stroke="none" font-family="Arial" font-size="13px" font-style="normal" font-weight="normal" text-decoration="none" x="189" y="605">Producteur</text></g></g><g transform="translate(-55,-78) scale(1,1)"><g><path fill="none" stroke="none"/><text fill="#000000" stroke="none" font-family="Arial" font-size="13px" font-style="normal" font-weight="normal" text-decoration="none" x="189" y="620">Admin</text></g></g><g transform="translate(-55,-78) scale(1,1)"><path fill="none" stroke="#000000" d="M 653 313 L 783 312" stroke-miterlimit="10"/></g><g transform="translate(-55,-78) scale(1,1)"><path fill="none" stroke="#000000" d="M 772.8700057477299 316.2875653288289 L 783 312 L 772.8052458520439 307.86877888963437" stroke-miterlimit="10"/></g><g transform="translate(-55,-78) scale(1,1)"><g><path fill="none" stroke="none"/><text fill="#000000" stroke="none" font-family="Arial" font-size="13px" font-style="normal" font-weight="normal" text-decoration="none" x="687.5" y="329.5">«creates»</text></g></g><g transform="translate(-55,-78) scale(1,1)"><path fill="#ffffff" stroke="none" d="M 664 88 L 749 88 L 759 98 L 759 137 L 664 137 L 664 88"/></g><g transform="translate(-55,-78) scale(1,1)"><path fill="none" stroke="#000000" d="M 664 88 L 749 88 L 759 98 L 759 137 L 664 137 L 664 88 L 664 88" stroke-miterlimit="10"/></g><g transform="translate(-55,-78) scale(1,1)"><path fill="none" stroke="#000000" d="M 749 88 L 749 98 L 759 98 L 749 88" stroke-miterlimit="10"/></g><g transform="translate(-55,-78) scale(1,1)"><g><path fill="none" stroke="none"/><text fill="#000000" stroke="none" font-family="Arial" font-size="13px" font-style="normal" font-weight="normal" text-decoration="none" x="669" y="103">Crée et</text><text fill="#000000" stroke="none" font-family="Arial" font-size="13px" font-style="normal" font-weight="normal" text-decoration="none" x="669" y="116">demande des</text><text fill="#000000" stroke="none" font-family="Arial" font-size="13px" font-style="normal" font-weight="normal" text-decoration="none" x="669" y="129">services</text></g></g><g transform="translate(-55,-78) scale(1,1)"><path fill="none" stroke="#000000" d="M 713 139 L 718 312" stroke-miterlimit="10" stroke-dasharray="3"/></g></g></svg>