<svg version="1.1" xmlns="http://www.w3.org/2000/svg" xmlns:xlink="http://www.w3.org/1999/xlink" width="1253.54150390625" height="445"><defs/><g><text fill="#eeeeee" stroke="none" font-family="Arial" font-size="24px" font-style="normal" font-weight="normal" text-decoration="none" x="0" y="0">UNREGISTERED</text><text fill="#eeeeee" stroke="none" font-family="Arial" font-size="24px" font-style="normal" font-weight="normal" text-decoration="none" x="0" y="30">UNREGISTERED</text><text fill="#eeeeee" stroke="none" font-family="Arial" font-size="24px" font-style="normal" font-weight="normal" text-decoration="none" x="0" y="60">UNREGISTERED</text><text fill="#eeeeee" stroke="none" font-family="Arial" font-size="24px" font-style="normal" font-weight="normal" text-decoration="none" x="0" y="90">UNREGISTERED</text><text fill="#eeeeee" stroke="none" font-family="Arial" font-size="24px" font-style="normal" font-weight="normal" text-decoration="none" x="0" y="120">UNREGISTERED</text><text fill="#eeeeee" stroke="none" font-family="Arial" font-size="24px" font-style="normal" font-weight="normal" text-decoration="none" x="0" y="150">UNREGISTERED</text><text fill="#eeeeee" stroke="none" font-family="Arial" font-size="24px" font-style="normal" font-weight="normal" text-decoration="none" x="0" y="180">UNREGISTERED</text><text fill="#eeeeee" stroke="none" font-family="Arial" font-size="24px" font-style="normal" font-weight="normal" text-decoration="none" x="0" y="210">UNREGISTERED</text><text fill="#eeeeee" stroke="none" font-family="Arial" font-size="24px" font-style="normal" font-weight="normal" text-decoration="none" x="0" y="240">UNREGISTERED</text><text fill="#eeeeee" stroke="none" font-family="Arial" font-size="24px" font-style="normal" font-weight="normal" text-decoration="none" x="0" y="270">UNREGISTERED</text><text fill="#eeeeee" stroke="none" font-family="Arial" font-size="24px" font-style="normal" font-weight="normal" text-decoration="none" x="0" y="300">UNREGISTERED</text><text fill="#eeeeee" stroke="none" font-family="Arial" font-size="24px" font-style="normal" font-weight="normal" text-decoration="none" x="0" y="330">UNREGISTERED</text><text fill="#eeeeee" stroke="none" font-family="Arial" font-size="24px" font-style="normal" font-weight="normal" text-decoration="none" x="0" y="360">UNREGISTERED</text><text fill="#eeeeee" stroke="none" font-family="Arial" font-size="24px" font-style="normal" font-weight="normal" text-decoration="none" x="0" y="390">UNREGISTERED</text><text fill="#eeeeee" stroke="none" font-family="Arial" font-size="24px" font-style="normal" font-weight="normal" text-decoration="none" x="0" y="420">UNREGISTERED</text><text fill="#eeeeee" stroke="none" font-family="Arial" font-size="24px" font-style="normal" font-weight="normal" text-decoration="none" x="200" y="0">UNREGISTERED</text><text fill="#eeeeee" stroke="none" font-family="Arial" font-size="24px" font-style="normal" font-weight="normal" text-decoration="none" x="200" y="30">UNREGISTERED</text><text fill="#eeeeee" stroke="none" font-family="Arial" font-size="24px" font-style="normal" font-weight="normal" text-decoration="none" x="200" y="60">UNREGISTERED</text><text fill="#eeeeee" stroke="none" font-family="Arial" font-size="24px" font-style="normal" font-weight="normal" text-decoration="none" x="200" y="90">UNREGISTERED</text><text fill="#eeeeee" stroke="none" font-family="Arial" font-size="24px" font-style="normal" font-weight="normal" text-decoration="none" x="200" y="120">UNREGISTERED</text><text fill="#eeeeee" stroke="none" font-family="Arial" font-size="24px" font-style="normal" font-weight="normal" text-decoration="none" x="200" y="150">UNREGISTERED</text><text fill="#eeeeee" stroke="none" font-family="Arial" font-size="24px" font-style="normal" font-weight="normal" text-decoration="none" x="200" y="180">UNREGISTERED</text><text fill="#eeeeee" stroke="none" font-family="Arial" font-size="24px" font-style="normal" font-weight="normal" text-decoration="none" x="200" y="210">UNREGISTERED</text><text fill="#eeeeee" stroke="none" font-family="Arial" font-size="24px" font-style="normal" font-weight="normal" text-decoration="none" x="200" y="240">UNREGISTERED</text><text fill="#eeeeee" stroke="none" font-family="Arial" font-size="24px" font-style="normal" font-weight="normal" text-decoration="none" x="200" y="270">UNREGISTERED</text><text fill="#eeeeee" stroke="none" font-family="Arial" font-size="24px" font-style="normal" font-weight="normal" text-decoration="none" x="200" y="300">UNREGISTERED</text><text fill="#eeeeee" stroke="none" font-family="Arial" font-size="24px" font-style="normal" font-weight="normal" text-decoration="none" x="200" y="330">UNREGISTERED</text><text fill="#eeeeee" stroke="none" font-family="Arial" font-size="24px" font-style="normal" font-weight="normal" text-decoration="none" x="200" y="360">UNREGISTERED</text><text fill="#eeeeee" stroke="none" font-family="Arial" font-size="24px" font-style="normal" font-weight="normal" text-decoration="none" x="200" y="390">UNREGISTERED</text><text fill="#eeeeee" stroke="none" font-family="Arial" font-size="24px" font-style="normal" font-weight="normal" text-decoration="none" x="200" y="420">UNREGISTERED</text><text fill="#eeeeee" stroke="none" font-family="Arial" font-size="24px" font-style="normal" font-weight="normal" text-decoration="none" x="400" y="0">UNREGISTERED</text><text fill="#eeeeee" stroke="none" font-family="Arial" font-size="24px" font-style="normal" font-weight="normal" text-decoration="none" x="400" y="30">UNREGISTERED</text><text fill="#eeeeee" stroke="none" font-family="Arial" font-size="24px" font-style="normal" font-weight="normal" text-decoration="none" x="400" y="60">UNREGISTERED</text><text fill="#eeeeee" stroke="none" font-family="Arial" font-size="24px" font-style="normal" font-weight="normal" text-decoration="none" x="400" y="90">UNREGISTERED</text><text fill="#eeeeee" stroke="none" font-family="Arial" font-size="24px" font-style="normal" font-weight="normal" text-decoration="none" x="400" y="120">UNREGISTERED</text><text fill="#eeeeee" stroke="none" font-family="Arial" font-size="24px" font-style="normal" font-weight="normal" text-decoration="none" x="400" y="150">UNREGISTERED</text><text fill="#eeeeee" stroke="none" font-family="Arial" font-size="24px" font-style="normal" font-weight="normal" text-decoration="none" x="400" y="180">UNREGISTERED</text><text fill="#eeeeee" stroke="none" font-family="Arial" font-size="24px" font-style="normal" font-weight="normal" text-decoration="none" x="400" y="210">UNREGISTERED</text><text fill="#eeeeee" stroke="none" font-family="Arial" font-size="24px" font-style="normal" font-weight="normal" text-decoration="none" x="400" y="240">UNREGISTERED</text><text fill="#eeeeee" stroke="none" font-family="Arial" font-size="24px" font-style="normal" font-weight="normal" text-decoration="none" x="400" y="270">UNREGISTERED</text><text fill="#eeeeee" stroke="none" font-family="Arial" font-size="24px" font-style="normal" font-weight="normal" text-decoration="none" x="400" y="300">UNREGISTERED</text><text fill="#eeeeee" stroke="none" font-family="Arial" font-size="24px" font-style="normal" font-weight="normal" text-decoration="none" x="400" y="330">UNREGISTERED</text><text fill="#eeeeee" stroke="none" font-family="Arial" font-size="24px" font-style="normal" font-weight="normal" text-decoration="none" x="400" y="360">UNREGISTERED</text><text fill="#eeeeee" stroke="none" font-family="Arial" font-size="24px" font-style="normal" font-weight="normal" text-decoration="none" x="400" y="390">UNREGISTERED</text><text fill="#eeeeee" stroke="none" font-family="Arial" font-size="24px" font-style="normal" font-weight="normal" text-decoration="none" x="400" y="420">UNREGISTERED</text><text fill="#eeeeee" stroke="none" font-family="Arial" font-size="24px" font-style="normal" font-weight="normal" text-decoration="none" x="600" y="0">UNREGISTERED</text><text fill="#eeeeee" stroke="none" font-family="Arial" font-size="24px" font-style="normal" font-weight="normal" text-decoration="none" x="600" y="30">UNREGISTERED</text><text fill="#eeeeee" stroke="none" font-family="Arial" font-size="24px" font-style="normal" font-weight="normal" text-decoration="none" x="600" y="60">UNREGISTERED</text><text fill="#eeeeee" stroke="none" font-family="Arial" font-size="24px" font-style="normal" font-weight="normal" text-decoration="none" x="600" y="90">UNREGISTERED</text><text fill="#eeeeee" stroke="none" font-family="Arial" font-size="24px" font-style="normal" font-weight="normal" text-decoration="none" x="600" y="120">UNREGISTERED</text><text fill="#eeeeee" stroke="none" font-family="Arial" font-size="24px" font-style="normal" font-weight="normal" text-decoration="none" x="600" y="150">UNREGISTERED</text><text fill="#eeeeee" stroke="none" font-family="Arial" font-size="24px" font-style="normal" font-weight="normal" text-decoration="none" x="600" y="180">UNREGISTERED</text><text fill="#eeeeee" stroke="none" font-family="Arial" font-size="24px" font-style="normal" font-weight="normal" text-decoration="none" x="600" y="210">UNREGISTERED</text><text fill="#eeeeee" stroke="none" font-family="Arial" font-size="24px" font-style="normal" font-weight="normal" text-decoration="none" x="600" y="240">UNREGISTERED</text><text fill="#eeeeee" stroke="none" font-family="Arial" font-size="24px" font-style="normal" font-weight="normal" text-decoration="none" x="600" y="270">UNREGISTERED</text><text fill="#eeeeee" stroke="none" font-family="Arial" font-size="24px" font-style="normal" font-weight="normal" text-decoration="none" x="600" y="300">UNREGISTERED</text><text fill="#eeeeee" stroke="none" font-family="Arial" font-size="24px" font-style="normal" font-weight="normal" text-decoration="none" x="600" y="330">UNREGISTERED</text><text fill="#eeeeee" stroke="none" font-family="Arial" font-size="24px" font-style="normal" font-weight="normal" text-decoration="none" x="600" y="360">UNREGISTERED</text><text fill="#eeeeee" stroke="none" font-family="Arial" font-size="24px" font-style="normal" font-weight="normal" text-decoration="none" x="600" y="390">UNREGISTERED</text><text fill="#eeeeee" stroke="none" font-family="Arial" font-size="24px" font-style="normal" font-weight="normal" text-decoration="none" x="600" y="420">UNREGISTERED</text><text fill="#eeeeee" stroke="none" font-family="Arial" font-size="24px" font-style="normal" font-weight="normal" text-decoration="none" x="800" y="0">UNREGISTERED</text><text fill="#eeeeee" stroke="none" font-family="Arial" font-size="24px" font-style="normal" font-weight="normal" text-decoration="none" x="800" y="30">UNREGISTERED</text><text fill="#eeeeee" stroke="none" font-family="Arial" font-size="24px" font-style="normal" font-weight="normal" text-decoration="none" x="800" y="60">UNREGISTERED</text><text fill="#eeeeee" stroke="none" font-family="Arial" font-size="24px" font-style="normal" font-weight="normal" text-decoration="none" x="800" y="90">UNREGISTERED</text><text fill="#eeeeee" stroke="none" font-family="Arial" font-size="24px" font-style="normal" font-weight="normal" text-decoration="none" x="800" y="120">UNREGISTERED</text><text fill="#eeeeee" stroke="none" font-family="Arial" font-size="24px" font-style="normal" font-weight="normal" text-decoration="none" x="800" y="150">UNREGISTERED</text><text fill="#eeeeee" stroke="none" font-family="Arial" font-size="24px" font-style="normal" font-weight="normal" text-decoration="none" x="800" y="180">UNREGISTERED</text><text fill="#eeeeee" stroke="none" font-family="Arial" font-size="24px" font-style="normal" font-weight="normal" text-decoration="none" x="800" y="210">UNREGISTERED</text><text fill="#eeeeee" stroke="none" font-family="Arial" font-size="24px" font-style="normal" font-weight="normal" text-decoration="none" x="800" y="240">UNREGISTERED</text><text fill="#eeeeee" stroke="none" font-family="Arial" font-size="24px" font-style="normal" font-weight="normal" text-decoration="none" x="800" y="270">UNREGISTERED</text><text fill="#eeeeee" stroke="none" font-family="Arial" font-size="24px" font-style="normal" font-weight="normal" text-decoration="none" x="800" y="300">UNREGISTERED</text><text fill="#eeeeee" stroke="none" font-family="Arial" font-size="24px" font-style="normal" font-weight="normal" text-decoration="none" x="800" y="330">UNREGISTERED</text><text fill="#eeeeee" stroke="none" font-family="Arial" font-size="24px" font-style="normal" font-weight="normal" text-decoration="none" x="800" y="360">UNREGISTERED</text><text fill="#eeeeee" stroke="none" font-family="Arial" font-size="24px" font-style="normal" font-weight="normal" text-decoration="none" x="800" y="390">UNREGISTERED</text><text fill="#eeeeee" stroke="none" font-family="Arial" font-size="24px" font-style="normal" font-weight="normal" text-decoration="none" x="800" y="420">UNREGISTERED</text><text fill="#eeeeee" stroke="none" font-family="Arial" font-size="24px" font-style="normal" font-weight="normal" text-decoration="none" x="1000" y="0">UNREGISTERED</text><text fill="#eeeeee" stroke="none" font-family="Arial" font-size="24px" font-style="normal" font-weight="normal" text-decoration="none" x="1000" y="30">UNREGISTERED</text><text fill="#eeeeee" stroke="none" font-family="Arial" font-size="24px" font-style="normal" font-weight="normal" text-decoration="none" x="1000" y="60">UNREGISTERED</text><text fill="#eeeeee" stroke="none" font-family="Arial" font-size="24px" font-style="normal" font-weight="normal" text-decoration="none" x="1000" y="90">UNREGISTERED</text><text fill="#eeeeee" stroke="none" font-family="Arial" font-size="24px" font-style="normal" font-weight="normal" text-decoration="none" x="1000" y="120">UNREGISTERED</text><text fill="#eeeeee" stroke="none" font-family="Arial" font-size="24px" font-style="normal" font-weight="normal" text-decoration="none" x="1000" y="150">UNREGISTERED</text><text fill="#eeeeee" stroke="none" font-family="Arial" font-size="24px" font-style="normal" font-weight="normal" text-decoration="none" x="1000" y="180">UNREGISTERED</text><text fill="#eeeeee" stroke="none" font-family="Arial" font-size="24px" font-style="normal" font-weight="normal" text-decoration="none" x="1000" y="210">UNREGISTERED</text><text fill="#eeeeee" stroke="none" font-family="Arial" font-size="24px" font-style="normal" font-weight="normal" text-decoration="none" x="1000" y="240">UNREGISTERED</text><text fill="#eeeeee" stroke="none" font-family="Arial" font-size="24px" font-style="normal" font-weight="normal" text-decoration="none" x="1000" y="270">UNREGISTERED</text><text fill="#eeeeee" stroke="none" font-family="Arial" font-size="24px" font-style="normal" font-weight="normal" text-decoration="none" x="1000" y="300">UNREGISTERED</text><text fill="#eeeeee" stroke="none" font-family="Arial" font-size="24px" font-style="normal" font-weight="normal" text-decoration="none" x="1000" y="330">UNREGISTERED</text><text fill="#eeeeee" stroke="none" font-family="Arial" font-size="24px" font-style="normal" font-weight="normal" text-decoration="none" x="1000" y="360">UNREGISTERED</text><text fill="#eeeeee" stroke="none" font-family="Arial" font-size="24px" font-style="normal" font-weight="normal" text-decoration="none" x="1000" y="390">UNREGISTERED</text><text fill="#eeeeee" stroke="none" font-family="Arial" font-size="24px" font-style="normal" font-weight="normal" text-decoration="none" x="1000" y="420">UNREGISTERED</text><text fill="#eeeeee" stroke="none" font-family="Arial" font-size="24px" font-style="normal" font-weight="normal" text-decoration="none" x="1200" y="0">UNREGISTERED</text><text fill="#eeeeee" stroke="none" font-family="Arial" font-size="24px" font-style="normal" font-weight="normal" text-decoration="none" x="1200" y="30">UNREGISTERED</text><text fill="#eeeeee" stroke="none" font-family="Arial" font-size="24px" font-style="normal" font-weight="normal" text-decoration="none" x="1200" y="60">UNREGISTERED</text><text fill="#eeeeee" stroke="none" font-family="Arial" font-size="24px" font-style="normal" font-weight="normal" text-decoration="none" x="1200" y="90">UNREGISTERED</text><text fill="#eeeeee" stroke="none" font-family="Arial" font-size="24px" font-style="normal" font-weight="normal" text-decoration="none" x="1200" y="120">UNREGISTERED</text><text fill="#eeeeee" stroke="none" font-family="Arial" font-size="24px" font-style="normal" font-weight="normal" text-decoration="none" x="1200" y="150">UNREGISTERED</text><text fill="#eeeeee" stroke="none" font-family="Arial" font-size="24px" font-style="normal" font-weight="normal" text-decoration="none" x="1200" y="180">UNREGISTERED</text><text fill="#eeeeee" stroke="none" font-family="Arial" font-size="24px" font-style="normal" font-weight="normal" text-decoration="none" x="1200" y="210">UNREGISTERED</text><text fill="#eeeeee" stroke="none" font-family="Arial" font-size="24px" font-style="normal" font-weight="normal" text-decoration="none" x="1200" y="240">UNREGISTERED</text><text fill="#eeeeee" stroke="none" font-family="Arial" font-size="24px" font-style="normal" font-weight="normal" text-decoration="none" x="1200" y="270">UNREGISTERED</text><text fill="#eeeeee" stroke="none" font-family="Arial" font-size="24px" font-style="normal" font-weight="normal" text-decoration="none" x="1200" y="300">UNREGISTERED</text><text fill="#eeeeee" stroke="none" font-family="Arial" font-size="24px" font-style="normal" font-weight="normal" text-decoration="none" x="1200" y="330">UNREGISTERED</text><text fill="#eeeeee" stroke="none" font-family="Arial" font-size="24px" font-style="normal" font-weight="normal" text-decoration="none" x="1200" y="360">UNREGISTERED</text><text fill="#eeeeee" stroke="none" font-family="Arial" font-size="24px" font-style="normal" font-weight="normal" text-decoration="none" x="1200" y="390">UNREGISTERED</text><text fill="#eeeeee" stroke="none" font-family="Arial" font-size="24px" font-style="normal" font-weight="normal" text-decoration="none" x="1200" y="420">UNREGISTERED</text><g transform="translate(-22,-161) scale(1,1)"><rect fill="#C0C0C0" stroke="none" x="39" y="192" width="179.5234375" height="132" opacity="0.2"/></g><g transform="translate(-22,-161) scale(1,1)"><rect fill="#ffffff" stroke="none" x="32" y="185" width="179.5234375" height="132"/></g><g transform="translate(-22,-161) scale(1,1)"><path fill="none" stroke="#000000" d="M 32 185 L 211.5234375 185 L 211.5234375 317 L 32 317 L 32 185 Z Z" stroke-miterlimit="10"/></g><g transform="translate(-22,-161) scale(1,1)"><path fill="none" stroke="#000000" d="M 32 225 L 211.5234375 225" stroke-miterlimit="10"/></g><g transform="translate(-22,-161) scale(1,1)"><path fill="none" stroke="#000000" d="M 32 308 L 211.5234375 308" stroke-miterlimit="10"/></g><g transform="translate(-22,-161) scale(1,1)"><g><path fill="none" stroke="none"/><text fill="#000000" stroke="none" font-family="Arial" font-size="13px" font-style="normal" font-weight="bold" text-decoration="none" x="68.781005859375" y="203">ProducteursView</text></g></g><g transform="translate(-22,-161) scale(1,1)"><g><path fill="none" stroke="none"/><text fill="#000000" stroke="none" font-family="Arial" font-size="13px" font-style="normal" font-weight="normal" text-decoration="none" x="89.62353515625" y="218">(from view)</text></g></g><g transform="translate(-22,-161) scale(1,1)"><g><path fill="none" stroke="none"/><text fill="#000000" stroke="none" font-family="Arial" font-size="13px" font-style="normal" font-weight="normal" text-decoration="none" x="37" y="241">-menu: MenuBar</text></g></g><g transform="translate(-22,-161) scale(1,1)"><g><path fill="none" stroke="none"/><text fill="#000000" stroke="none" font-family="Arial" font-size="13px" font-style="normal" font-weight="normal" text-decoration="none" x="37" y="256">-listeProducteurs: ListView</text></g></g><g transform="translate(-22,-161) scale(1,1)"><g><path fill="none" stroke="none"/><text fill="#000000" stroke="none" font-family="Arial" font-size="13px" font-style="normal" font-weight="normal" text-decoration="none" x="37" y="271">-ajouterProducteur: Button</text></g></g><g transform="translate(-22,-161) scale(1,1)"><g><path fill="none" stroke="none"/><text fill="#000000" stroke="none" font-family="Arial" font-size="13px" font-style="normal" font-weight="normal" text-decoration="none" x="37" y="286">-supprimerProducteur: Button</text></g></g><g transform="translate(-22,-161) scale(1,1)"><g><path fill="none" stroke="none"/><text fill="#000000" stroke="none" font-family="Arial" font-size="13px" font-style="normal" font-weight="normal" text-decoration="none" x="37" y="301">-editerProducteur: Button</text></g></g><g transform="translate(-22,-161) scale(1,1)"><rect fill="#C0C0C0" stroke="none" x="298" y="178" width="394.2265625" height="145" opacity="0.2"/></g><g transform="translate(-22,-161) scale(1,1)"><rect fill="#ffffff" stroke="none" x="291" y="171" width="394.2265625" height="145"/></g><g transform="translate(-22,-161) scale(1,1)"><path fill="none" stroke="#000000" d="M 291 171 L 685.2265625 171 L 685.2265625 316 L 291 316 L 291 171 Z Z" stroke-miterlimit="10"/></g><g transform="translate(-22,-161) scale(1,1)"><path fill="none" stroke="#000000" d="M 291 211 L 685.2265625 211" stroke-miterlimit="10"/></g><g transform="translate(-22,-161) scale(1,1)"><path fill="none" stroke="#000000" d="M 291 249 L 685.2265625 249" stroke-miterlimit="10"/></g><g transform="translate(-22,-161) scale(1,1)"><g><path fill="none" stroke="none"/><text fill="#000000" stroke="none" font-family="Arial" font-size="13px" font-style="normal" font-weight="bold" text-decoration="none" x="438.63330078125" y="189">ProducteursCtrl</text></g></g><g transform="translate(-22,-161) scale(1,1)"><g><path fill="none" stroke="none"/><text fill="#000000" stroke="none" font-family="Arial" font-size="13px" font-style="normal" font-weight="normal" text-decoration="none" x="442.2451171875" y="204">(from controller)</text></g></g><g transform="translate(-22,-161) scale(1,1)"><g><path fill="none" stroke="none"/><text fill="#000000" stroke="none" font-family="Arial" font-size="13px" font-style="normal" font-weight="normal" text-decoration="none" x="296" y="227">-model: ListeProducteurs</text></g></g><g transform="translate(-22,-161) scale(1,1)"><g><path fill="none" stroke="none"/><text fill="#000000" stroke="none" font-family="Arial" font-size="13px" font-style="normal" font-weight="normal" text-decoration="none" x="296" y="242">-view: ProducteursView</text></g></g><g transform="translate(-22,-161) scale(1,1)"><g><path fill="none" stroke="none"/><text fill="#000000" stroke="none" font-family="Arial" font-size="13px" font-style="normal" font-weight="normal" text-decoration="none" x="296" y="265">+ProducteursCtrl(model: ListeProducteurs, view: ProducteursView)</text></g></g><g transform="translate(-22,-161) scale(1,1)"><g><path fill="none" stroke="none"/><text fill="#000000" stroke="none" font-family="Arial" font-size="13px" font-style="normal" font-weight="normal" text-decoration="none" x="296" y="280">+ajouterProducteur()</text></g></g><g transform="translate(-22,-161) scale(1,1)"><g><path fill="none" stroke="none"/><text fill="#000000" stroke="none" font-family="Arial" font-size="13px" font-style="normal" font-weight="normal" text-decoration="none" x="296" y="295">+supprimerProducteur()</text></g></g><g transform="translate(-22,-161) scale(1,1)"><g><path fill="none" stroke="none"/><text fill="#000000" stroke="none" font-family="Arial" font-size="13px" font-style="normal" font-weight="normal" text-decoration="none" x="296" y="310">+editerProducteur()</text></g></g><g transform="translate(-22,-161) scale(1,1)"><rect fill="#C0C0C0" stroke="none" x="772" y="178" width="250.69970703125" height="145" opacity="0.2"/></g><g transform="translate(-22,-161) scale(1,1)"><rect fill="#ffffff" stroke="none" x="765" y="171" width="250.69970703125" height="145"/></g><g transform="translate(-22,-161) scale(1,1)"><path fill="none" stroke="#000000" d="M 765 171 L 1015.69970703125 171 L 1015.69970703125 316 L 765 316 L 765 171 Z Z" stroke-miterlimit="10"/></g><g transform="translate(-22,-161) scale(1,1)"><path fill="none" stroke="#000000" d="M 765 211 L 1015.69970703125 211" stroke-miterlimit="10"/></g><g transform="translate(-22,-161) scale(1,1)"><path fill="none" stroke="#000000" d="M 765 234 L 1015.69970703125 234" stroke-miterlimit="10"/></g><g transform="translate(-22,-161) scale(1,1)"><g><path fill="none" stroke="none"/><text fill="#000000" stroke="none" font-family="Arial" font-size="13px" font-style="normal" font-weight="bold" text-decoration="none" x="836.89306640625" y="189">ListeProducteurs</text></g></g><g transform="translate(-22,-161) scale(1,1)"><g><path fill="none" stroke="none"/><text fill="#000000" stroke="none" font-family="Arial" font-size="13px" font-style="normal" font-weight="normal" text-decoration="none" x="853.51123046875" y="204">(from model)</text></g></g><g transform="translate(-22,-161) scale(1,1)"><g><path fill="none" stroke="none"/><text fill="#000000" stroke="none" font-family="Arial" font-size="13px" font-style="normal" font-weight="normal" text-decoration="none" x="770" y="227">-producteurs: ArrayList&lt;Producteur&gt;</text></g></g><g transform="translate(-22,-161) scale(1,1)"><g><path fill="none" stroke="none"/><text fill="#000000" stroke="none" font-family="Arial" font-size="13px" font-style="normal" font-weight="normal" text-decoration="none" x="770" y="250">+ListeProducteur()</text></g></g><g transform="translate(-22,-161) scale(1,1)"><g><path fill="none" stroke="none"/><text fill="#000000" stroke="none" font-family="Arial" font-size="13px" font-style="normal" font-weight="normal" text-decoration="none" x="770" y="265">+getProducteurs(): ArrayList&lt;Producteur&gt;</text></g></g><g transform="translate(-22,-161) scale(1,1)"><g><path fill="none" stroke="none"/><text fill="#000000" stroke="none" font-family="Arial" font-size="13px" font-style="normal" font-weight="normal" text-decoration="none" x="770" y="280">+ajouter(p: Producteur)</text></g></g><g transform="translate(-22,-161) scale(1,1)"><g><path fill="none" stroke="none"/><text fill="#000000" stroke="none" font-family="Arial" font-size="13px" font-style="normal" font-weight="normal" text-decoration="none" x="770" y="295">+supprimer(p: Producteur)</text></g></g><g transform="translate(-22,-161) scale(1,1)"><g><path fill="none" stroke="none"/><text fill="#000000" stroke="none" font-family="Arial" font-size="13px" font-style="normal" font-weight="normal" text-decoration="none" x="770" y="310">+editer(p: Producteur)</text></g></g><g transform="translate(-22,-161) scale(1,1)"><path fill="none" stroke="#000000" d="M 213 249 L 290 247" stroke-miterlimit="10"/></g><g transform="translate(-22,-161) scale(1,1)"><path fill="#FFFFFF" stroke="none" d="M 279.9500527928878 251.47197508202552 L 290 247 L 279.73145027348664 243.05577808508164 L 268.00741739737873 247.5712359117564"/></g><g transform="translate(-22,-161) scale(1,1)"><path fill="none" stroke="#000000" d="M 279.9500527928878 251.47197508202552 L 290 247 L 279.73145027348664 243.05577808508164 L 268.00741739737873 247.5712359117564 L 279.9500527928878 251.47197508202552" stroke-miterlimit="10"/></g><g transform="translate(-22,-161) scale(1,1)"><path fill="none" stroke="#000000" d="M 223.04994720711224 244.52802491797448 L 213 249 L 223.26854972651336 252.94422191491836" stroke-miterlimit="10"/></g><g transform="translate(-22,-161) scale(1,1)"><path fill="none" stroke="#000000" d="M 764 243 L 686 243" stroke-miterlimit="10"/></g><g transform="translate(-22,-161) scale(1,1)"><path fill="#FFFFFF" stroke="none" d="M 696.1626748576241 238.790482243984 L 686 243 L 696.1626748576241 247.209517756016 L 708 243"/></g><g transform="translate(-22,-161) scale(1,1)"><path fill="none" stroke="#000000" d="M 696.1626748576241 238.790482243984 L 686 243 L 696.1626748576241 247.209517756016 L 708 243 L 696.1626748576241 238.790482243984" stroke-miterlimit="10"/></g><g transform="translate(-22,-161) scale(1,1)"><path fill="none" stroke="#000000" d="M 753.8373251423759 247.209517756016 L 764 243 L 753.8373251423758 238.790482243984" stroke-miterlimit="10"/></g><g transform="translate(-22,-161) scale(1,1)"><rect fill="#C0C0C0" stroke="none" x="1102" y="221" width="107.22998046875" height="59" opacity="0.2"/></g><g transform="translate(-22,-161) scale(1,1)"><rect fill="#ffffff" stroke="none" x="1095" y="214" width="107.22998046875" height="59"/></g><g transform="translate(-22,-161) scale(1,1)"><path fill="none" stroke="#000000" d="M 1095 214 L 1202.22998046875 214 L 1202.22998046875 273 L 1095 273 L 1095 214 Z Z" stroke-miterlimit="10"/></g><g transform="translate(-22,-161) scale(1,1)"><path fill="none" stroke="#000000" d="M 1095 254 L 1202.22998046875 254" stroke-miterlimit="10"/></g><g transform="translate(-22,-161) scale(1,1)"><path fill="none" stroke="#000000" d="M 1095 264 L 1202.22998046875 264" stroke-miterlimit="10"/></g><g transform="translate(-22,-161) scale(1,1)"><g><path fill="none" stroke="none"/><text fill="#000000" stroke="none" font-family="Arial" font-size="13px" font-style="normal" font-weight="bold" text-decoration="none" x="1099.5" y="232">ProducteurDAO</text></g></g><g transform="translate(-22,-161) scale(1,1)"><g><path fill="none" stroke="none"/><text fill="#000000" stroke="none" font-family="Arial" font-size="13px" font-style="normal" font-weight="normal" text-decoration="none" x="1116.8291015625" y="247">(from data)</text></g></g><g transform="translate(-22,-161) scale(1,1)"><rect fill="#C0C0C0" stroke="none" x="1046" y="443" width="216.54150390625" height="160" opacity="0.2"/></g><g transform="translate(-22,-161) scale(1,1)"><rect fill="#C0C0C0" stroke="none" x="1223.51611328125" y="410" width="48.025390625" height="37" opacity="0.2"/></g><g transform="translate(-22,-161) scale(1,1)"><rect fill="#ffffff" stroke="none" x="1039" y="436" width="216.54150390625" height="160"/></g><g transform="translate(-22,-161) scale(1,1)"><path fill="none" stroke="#000000" d="M 1039 436 L 1255.54150390625 436 L 1255.54150390625 596 L 1039 596 L 1039 436 Z Z" stroke-miterlimit="10"/></g><g transform="translate(-22,-161) scale(1,1)"><path fill="none" stroke="#000000" d="M 1039 476 L 1255.54150390625 476" stroke-miterlimit="10"/></g><g transform="translate(-22,-161) scale(1,1)"><path fill="none" stroke="#000000" d="M 1039 499 L 1255.54150390625 499" stroke-miterlimit="10"/></g><g transform="translate(-22,-161) scale(1,1)"><g><path fill="none" stroke="none"/><text fill="#000000" stroke="none" font-family="Arial" font-size="13px" font-style="italic" font-weight="bold" text-decoration="none" x="1132.82666015625" y="454">DAO</text></g></g><g transform="translate(-22,-161) scale(1,1)"><g><path fill="none" stroke="none"/><text fill="#000000" stroke="none" font-family="Arial" font-size="13px" font-style="normal" font-weight="normal" text-decoration="none" x="1115.48486328125" y="469">(from data)</text></g></g><g transform="translate(-22,-161) scale(1,1)"><g><path fill="none" stroke="none"/><text fill="#000000" stroke="none" font-family="Arial" font-size="13px" font-style="normal" font-weight="normal" text-decoration="none" x="1044" y="492">-connexion: Connection</text></g></g><g transform="translate(-22,-161) scale(1,1)"><g><path fill="none" stroke="none"/><text fill="#000000" stroke="none" font-family="Arial" font-size="13px" font-style="normal" font-weight="normal" text-decoration="none" x="1044" y="515">+DAO(connexion: Connection)</text></g></g><g transform="translate(-22,-161) scale(1,1)"><g><path fill="none" stroke="none"/><text fill="#000000" stroke="none" font-family="Arial" font-size="13px" font-style="italic" font-weight="normal" text-decoration="none" x="1044" y="530">+insert(model: Model): boolean</text></g></g><g transform="translate(-22,-161) scale(1,1)"><g><path fill="none" stroke="none"/><text fill="#000000" stroke="none" font-family="Arial" font-size="13px" font-style="italic" font-weight="normal" text-decoration="none" x="1044" y="545">+get(id: IdType): Model</text></g></g><g transform="translate(-22,-161) scale(1,1)"><g><path fill="none" stroke="none"/><text fill="#000000" stroke="none" font-family="Arial" font-size="13px" font-style="italic" font-weight="normal" text-decoration="none" x="1044" y="560">+getAll(): ArrayList&lt;Model&gt;</text></g></g><g transform="translate(-22,-161) scale(1,1)"><g><path fill="none" stroke="none"/><text fill="#000000" stroke="none" font-family="Arial" font-size="13px" font-style="italic" font-weight="normal" text-decoration="none" x="1044" y="575">+update(model: Model): boolean</text></g></g><g transform="translate(-22,-161) scale(1,1)"><g><path fill="none" stroke="none"/><text fill="#000000" stroke="none" font-family="Arial" font-size="13px" font-style="italic" font-weight="normal" text-decoration="none" x="1044" y="590">+delete(model: Model): boolean</text></g></g><g transform="translate(-22,-161) scale(1,1)"><rect fill="#ffffff" stroke="none" x="1216.51611328125" y="403" width="48.025390625" height="37"/></g><g transform="translate(-22,-161) scale(1,1)"><path fill="none" stroke="#000000" d="M 1216.51611328125 403 L 1264.54150390625 403 L 1264.54150390625 440 L 1216.51611328125 440 L 1216.51611328125 403 Z Z" stroke-miterlimit="10" stroke-dasharray="3"/></g><g transform="translate(-22,-161) scale(1,1)"><g><path fill="none" stroke="none"/><text fill="#000000" stroke="none" font-family="Arial" font-size="13px" font-style="normal" font-weight="normal" text-decoration="none" x="1221.51611328125" y="419">Model</text></g></g><g transform="translate(-22,-161) scale(1,1)"><g><path fill="none" stroke="none"/><text fill="#000000" stroke="none" font-family="Arial" font-size="13px" font-style="normal" font-weight="normal" text-decoration="none" x="1221.51611328125" y="434">IdType</text></g></g><g transform="translate(-22,-161) scale(1,1)"><path fill="none" stroke="#000000" d="M 1148 274 L 1150 402" stroke-miterlimit="10"/></g><g transform="translate(-22,-161) scale(1,1)"><path fill="#FFFFFF" stroke="none" d="M 1141.2644471852523 381.80866232710787 L 1150 402 L 1158.100463157008 381.5455995775492"/></g><g transform="translate(-22,-161) scale(1,1)"><path fill="none" stroke="#000000" d="M 1141.2644471852523 381.80866232710787 L 1150 402 L 1158.100463157008 381.5455995775492 L 1141.2644471852523 381.80866232710787" stroke-miterlimit="10"/></g><g transform="translate(-22,-161) scale(1,1)"><path fill="none" stroke="#000000" d="M 1017 243 L 1094 243" stroke-miterlimit="10" stroke-dasharray="3"/></g><g transform="translate(-22,-161) scale(1,1)"><path fill="none" stroke="#000000" d="M 1083.837325142376 247.209517756016 L 1094 243 L 1083.837325142376 238.790482243984" stroke-miterlimit="10"/></g><g transform="translate(-22,-161) scale(1,1)"><g><path fill="none" stroke="none"/><text fill="#000000" stroke="none" font-family="Arial" font-size="13px" font-style="normal" font-weight="normal" text-decoration="none" x="1033.5" y="233.5">«uses»</text></g></g><g transform="translate(-22,-161) scale(1,1)"><rect fill="#C0C0C0" stroke="none" x="687" y="447" width="165.45703125" height="113" opacity="0.2"/></g><g transform="translate(-22,-161) scale(1,1)"><rect fill="#ffffff" stroke="none" x="680" y="440" width="165.45703125" height="113"/></g><g transform="translate(-22,-161) scale(1,1)"><path fill="none" stroke="#000000" d="M 680 440 L 845.45703125 440 L 845.45703125 553 L 680 553 L 680 440 Z Z" stroke-miterlimit="10"/></g><g transform="translate(-22,-161) scale(1,1)"><path fill="none" stroke="#000000" d="M 680 493 L 845.45703125 493" stroke-miterlimit="10"/></g><g transform="translate(-22,-161) scale(1,1)"><path fill="none" stroke="#000000" d="M 680 516 L 845.45703125 516" stroke-miterlimit="10"/></g><g transform="translate(-22,-161) scale(1,1)"><g><path fill="none" stroke="none"/><text fill="#000000" stroke="none" font-family="Arial" font-size="13px" font-style="normal" font-weight="normal" text-decoration="none" x="728.39404296875" y="456">«Singleton»</text></g></g><g transform="translate(-22,-161) scale(1,1)"><g><path fill="none" stroke="none"/><text fill="#000000" stroke="none" font-family="Arial" font-size="13px" font-style="normal" font-weight="bold" text-decoration="none" x="707.478515625" y="471">SingleConnection</text></g></g><g transform="translate(-22,-161) scale(1,1)"><g><path fill="none" stroke="none"/><text fill="#000000" stroke="none" font-family="Arial" font-size="13px" font-style="normal" font-weight="normal" text-decoration="none" x="730.942626953125" y="486">(from data)</text></g></g><g transform="translate(-22,-161) scale(1,1)"><g><path fill="none" stroke="none"/><text fill="#000000" stroke="none" font-family="Arial" font-size="13px" font-style="normal" font-weight="normal" text-decoration="none" x="685" y="509">-connexion: Connection</text><path fill="none" stroke="#000000" d="M 685 510.5 L 821.5888671875 510.5" stroke-miterlimit="10"/></g></g><g transform="translate(-22,-161) scale(1,1)"><g><path fill="none" stroke="none"/><text fill="#000000" stroke="none" font-family="Arial" font-size="13px" font-style="normal" font-weight="normal" text-decoration="none" x="685" y="532">-SingleConnection()</text></g></g><g transform="translate(-22,-161) scale(1,1)"><g><path fill="none" stroke="none"/><text fill="#000000" stroke="none" font-family="Arial" font-size="13px" font-style="normal" font-weight="normal" text-decoration="none" x="685" y="547">+getInstance(): Connection</text><path fill="none" stroke="#000000" d="M 685 548.5 L 841.45703125 548.5" stroke-miterlimit="10"/></g></g><g transform="translate(-22,-161) scale(1,1)"><path fill="none" stroke="#000000" d="M 1038 498 L 846 497" stroke-miterlimit="10" stroke-dasharray="3"/></g><g transform="translate(-22,-161) scale(1,1)"><path fill="none" stroke="#000000" d="M 856.1844612946098 492.84346921837533 L 846 497 L 856.140612746048 501.2623905422531" stroke-miterlimit="10"/></g><g transform="translate(-22,-161) scale(1,1)"><g><path fill="none" stroke="none"/><text fill="#000000" stroke="none" font-family="Arial" font-size="13px" font-style="normal" font-weight="normal" text-decoration="none" x="920.5" y="530.5">«uses»</text></g></g><g transform="translate(-22,-161) scale(1,1)"><path fill="none" stroke="#000000" d="M 846 497 L 1038 498" stroke-miterlimit="10"/></g><g transform="translate(-22,-161) scale(1,1)"><path fill="#FFFFFF" stroke="none" d="M 1027.81553870539 502.1565307816247 L 1038 498 L 1027.859387253952 493.7376094577469 L 1016.0002983880265 497.885418220771"/></g><g transform="translate(-22,-161) scale(1,1)"><path fill="none" stroke="#000000" d="M 1027.81553870539 502.1565307816247 L 1038 498 L 1027.859387253952 493.7376094577469 L 1016.0002983880265 497.885418220771 L 1027.81553870539 502.1565307816247" stroke-miterlimit="10"/></g></g></svg>