<svg version="1.1" xmlns="http://www.w3.org/2000/svg" xmlns:xlink="http://www.w3.org/1999/xlink" width="1277.54150390625" height="533"><defs/><g><text fill="#eeeeee" stroke="none" font-family="Arial" font-size="24px" font-style="normal" font-weight="normal" text-decoration="none" x="0" y="0"></text><text fill="#eeeeee" stroke="none" font-family="Arial" font-size="24px" font-style="normal" font-weight="normal" text-decoration="none" x="0" y="30"></text><text fill="#eeeeee" stroke="none" font-family="Arial" font-size="24px" font-style="normal" font-weight="normal" text-decoration="none" x="0" y="60"></text><text fill="#eeeeee" stroke="none" font-family="Arial" font-size="24px" font-style="normal" font-weight="normal" text-decoration="none" x="0" y="90"></text><text fill="#eeeeee" stroke="none" font-family="Arial" font-size="24px" font-style="normal" font-weight="normal" text-decoration="none" x="0" y="120"></text><text fill="#eeeeee" stroke="none" font-family="Arial" font-size="24px" font-style="normal" font-weight="normal" text-decoration="none" x="0" y="150"></text><text fill="#eeeeee" stroke="none" font-family="Arial" font-size="24px" font-style="normal" font-weight="normal" text-decoration="none" x="0" y="180"></text><text fill="#eeeeee" stroke="none" font-family="Arial" font-size="24px" font-style="normal" font-weight="normal" text-decoration="none" x="0" y="210"></text><text fill="#eeeeee" stroke="none" font-family="Arial" font-size="24px" font-style="normal" font-weight="normal" text-decoration="none" x="0" y="240"></text><text fill="#eeeeee" stroke="none" font-family="Arial" font-size="24px" font-style="normal" font-weight="normal" text-decoration="none" x="0" y="270"></text><text fill="#eeeeee" stroke="none" font-family="Arial" font-size="24px" font-style="normal" font-weight="normal" text-decoration="none" x="0" y="300"></text><text fill="#eeeeee" stroke="none" font-family="Arial" font-size="24px" font-style="normal" font-weight="normal" text-decoration="none" x="0" y="330"></text><text fill="#eeeeee" stroke="none" font-family="Arial" font-size="24px" font-style="normal" font-weight="normal" text-decoration="none" x="0" y="360"></text><text fill="#eeeeee" stroke="none" font-family="Arial" font-size="24px" font-style="normal" font-weight="normal" text-decoration="none" x="0" y="390"></text><text fill="#eeeeee" stroke="none" font-family="Arial" font-size="24px" font-style="normal" font-weight="normal" text-decoration="none" x="0" y="420"></text><text fill="#eeeeee" stroke="none" font-family="Arial" font-size="24px" font-style="normal" font-weight="normal" text-decoration="none" x="0" y="450"></text><text fill="#eeeeee" stroke="none" font-family="Arial" font-size="24px" font-style="normal" font-weight="normal" text-decoration="none" x="0" y="480"></text><text fill="#eeeeee" stroke="none" font-family="Arial" font-size="24px" font-style="normal" font-weight="normal" text-decoration="none" x="0" y="510"></text><text fill="#eeeeee" stroke="none" font-family="Arial" font-size="24px" font-style="normal" font-weight="normal" text-decoration="none" x="200" y="0"></text><text fill="#eeeeee" stroke="none" font-family="Arial" font-size="24px" font-style="normal" font-weight="normal" text-decoration="none" x="200" y="30"></text><text fill="#eeeeee" stroke="none" font-family="Arial" font-size="24px" font-style="normal" font-weight="normal" text-decoration="none" x="200" y="60"></text><text fill="#eeeeee" stroke="none" font-family="Arial" font-size="24px" font-style="normal" font-weight="normal" text-decoration="none" x="200" y="90"></text><text fill="#eeeeee" stroke="none" font-family="Arial" font-size="24px" font-style="normal" font-weight="normal" text-decoration="none" x="200" y="120"></text><text fill="#eeeeee" stroke="none" font-family="Arial" font-size="24px" font-style="normal" font-weight="normal" text-decoration="none" x="200" y="150"></text><text fill="#eeeeee" stroke="none" font-family="Arial" font-size="24px" font-style="normal" font-weight="normal" text-decoration="none" x="200" y="180"></text><text fill="#eeeeee" stroke="none" font-family="Arial" font-size="24px" font-style="normal" font-weight="normal" text-decoration="none" x="200" y="210"></text><text fill="#eeeeee" stroke="none" font-family="Arial" font-size="24px" font-style="normal" font-weight="normal" text-decoration="none" x="200" y="240"></text><text fill="#eeeeee" stroke="none" font-family="Arial" font-size="24px" font-style="normal" font-weight="normal" text-decoration="none" x="200" y="270"></text><text fill="#eeeeee" stroke="none" font-family="Arial" font-size="24px" font-style="normal" font-weight="normal" text-decoration="none" x="200" y="300"></text><text fill="#eeeeee" stroke="none" font-family="Arial" font-size="24px" font-style="normal" font-weight="normal" text-decoration="none" x="200" y="330"></text><text fill="#eeeeee" stroke="none" font-family="Arial" font-size="24px" font-style="normal" font-weight="normal" text-decoration="none" x="200" y="360"></text><text fill="#eeeeee" stroke="none" font-family="Arial" font-size="24px" font-style="normal" font-weight="normal" text-decoration="none" x="200" y="390"></text><text fill="#eeeeee" stroke="none" font-family="Arial" font-size="24px" font-style="normal" font-weight="normal" text-decoration="none" x="200" y="420"></text><text fill="#eeeeee" stroke="none" font-family="Arial" font-size="24px" font-style="normal" font-weight="normal" text-decoration="none" x="200" y="450"></text><text fill="#eeeeee" stroke="none" font-family="Arial" font-size="24px" font-style="normal" font-weight="normal" text-decoration="none" x="200" y="480"></text><text fill="#eeeeee" stroke="none" font-family="Arial" font-size="24px" font-style="normal" font-weight="normal" text-decoration="none" x="200" y="510"></text><text fill="#eeeeee" stroke="none" font-family="Arial" font-size="24px" font-style="normal" font-weight="normal" text-decoration="none" x="400" y="0"></text><text fill="#eeeeee" stroke="none" font-family="Arial" font-size="24px" font-style="normal" font-weight="normal" text-decoration="none" x="400" y="30"></text><text fill="#eeeeee" stroke="none" font-family="Arial" font-size="24px" font-style="normal" font-weight="normal" text-decoration="none" x="400" y="60"></text><text fill="#eeeeee" stroke="none" font-family="Arial" font-size="24px" font-style="normal" font-weight="normal" text-decoration="none" x="400" y="90"></text><text fill="#eeeeee" stroke="none" font-family="Arial" font-size="24px" font-style="normal" font-weight="normal" text-decoration="none" x="400" y="120"></text><text fill="#eeeeee" stroke="none" font-family="Arial" font-size="24px" font-style="normal" font-weight="normal" text-decoration="none" x="400" y="150"></text><text fill="#eeeeee" stroke="none" font-family="Arial" font-size="24px" font-style="normal" font-weight="normal" text-decoration="none" x="400" y="180"></text><text fill="#eeeeee" stroke="none" font-family="Arial" font-size="24px" font-style="normal" font-weight="normal" text-decoration="none" x="400" y="210"></text><text fill="#eeeeee" stroke="none" font-family="Arial" font-size="24px" font-style="normal" font-weight="normal" text-decoration="none" x="400" y="240"></text><text fill="#eeeeee" stroke="none" font-family="Arial" font-size="24px" font-style="normal" font-weight="normal" text-decoration="none" x="400" y="270"></text><text fill="#eeeeee" stroke="none" font-family="Arial" font-size="24px" font-style="normal" font-weight="normal" text-decoration="none" x="400" y="300"></text><text fill="#eeeeee" stroke="none" font-family="Arial" font-size="24px" font-style="normal" font-weight="normal" text-decoration="none" x="400" y="330"></text><text fill="#eeeeee" stroke="none" font-family="Arial" font-size="24px" font-style="normal" font-weight="normal" text-decoration="none" x="400" y="360"></text><text fill="#eeeeee" stroke="none" font-family="Arial" font-size="24px" font-style="normal" font-weight="normal" text-decoration="none" x="400" y="390"></text><text fill="#eeeeee" stroke="none" font-family="Arial" font-size="24px" font-style="normal" font-weight="normal" text-decoration="none" x="400" y="420"></text><text fill="#eeeeee" stroke="none" font-family="Arial" font-size="24px" font-style="normal" font-weight="normal" text-decoration="none" x="400" y="450"></text><text fill="#eeeeee" stroke="none" font-family="Arial" font-size="24px" font-style="normal" font-weight="normal" text-decoration="none" x="400" y="480"></text><text fill="#eeeeee" stroke="none" font-family="Arial" font-size="24px" font-style="normal" font-weight="normal" text-decoration="none" x="400" y="510"></text><text fill="#eeeeee" stroke="none" font-family="Arial" font-size="24px" font-style="normal" font-weight="normal" text-decoration="none" x="600" y="0"></text><text fill="#eeeeee" stroke="none" font-family="Arial" font-size="24px" font-style="normal" font-weight="normal" text-decoration="none" x="600" y="30"></text><text fill="#eeeeee" stroke="none" font-family="Arial" font-size="24px" font-style="normal" font-weight="normal" text-decoration="none" x="600" y="60"></text><text fill="#eeeeee" stroke="none" font-family="Arial" font-size="24px" font-style="normal" font-weight="normal" text-decoration="none" x="600" y="90"></text><text fill="#eeeeee" stroke="none" font-family="Arial" font-size="24px" font-style="normal" font-weight="normal" text-decoration="none" x="600" y="120"></text><text fill="#eeeeee" stroke="none" font-family="Arial" font-size="24px" font-style="normal" font-weight="normal" text-decoration="none" x="600" y="150"></text><text fill="#eeeeee" stroke="none" font-family="Arial" font-size="24px" font-style="normal" font-weight="normal" text-decoration="none" x="600" y="180"></text><text fill="#eeeeee" stroke="none" font-family="Arial" font-size="24px" font-style="normal" font-weight="normal" text-decoration="none" x="600" y="210"></text><text fill="#eeeeee" stroke="none" font-family="Arial" font-size="24px" font-style="normal" font-weight="normal" text-decoration="none" x="600" y="240"></text><text fill="#eeeeee" stroke="none" font-family="Arial" font-size="24px" font-style="normal" font-weight="normal" text-decoration="none" x="600" y="270"></text><text fill="#eeeeee" stroke="none" font-family="Arial" font-size="24px" font-style="normal" font-weight="normal" text-decoration="none" x="600" y="300"></text><text fill="#eeeeee" stroke="none" font-family="Arial" font-size="24px" font-style="normal" font-weight="normal" text-decoration="none" x="600" y="330"></text><text fill="#eeeeee" stroke="none" font-family="Arial" font-size="24px" font-style="normal" font-weight="normal" text-decoration="none" x="600" y="360"></text><text fill="#eeeeee" stroke="none" font-family="Arial" font-size="24px" font-style="normal" font-weight="normal" text-decoration="none" x="600" y="390"></text><text fill="#eeeeee" stroke="none" font-family="Arial" font-size="24px" font-style="normal" font-weight="normal" text-decoration="none" x="600" y="420"></text><text fill="#eeeeee" stroke="none" font-family="Arial" font-size="24px" font-style="normal" font-weight="normal" text-decoration="none" x="600" y="450"></text><text fill="#eeeeee" stroke="none" font-family="Arial" font-size="24px" font-style="normal" font-weight="normal" text-decoration="none" x="600" y="480"></text><text fill="#eeeeee" stroke="none" font-family="Arial" font-size="24px" font-style="normal" font-weight="normal" text-decoration="none" x="600" y="510"></text><text fill="#eeeeee" stroke="none" font-family="Arial" font-size="24px" font-style="normal" font-weight="normal" text-decoration="none" x="800" y="0"></text><text fill="#eeeeee" stroke="none" font-family="Arial" font-size="24px" font-style="normal" font-weight="normal" text-decoration="none" x="800" y="30"></text><text fill="#eeeeee" stroke="none" font-family="Arial" font-size="24px" font-style="normal" font-weight="normal" text-decoration="none" x="800" y="60"></text><text fill="#eeeeee" stroke="none" font-family="Arial" font-size="24px" font-style="normal" font-weight="normal" text-decoration="none" x="800" y="90"></text><text fill="#eeeeee" stroke="none" font-family="Arial" font-size="24px" font-style="normal" font-weight="normal" text-decoration="none" x="800" y="120"></text><text fill="#eeeeee" stroke="none" font-family="Arial" font-size="24px" font-style="normal" font-weight="normal" text-decoration="none" x="800" y="150"></text><text fill="#eeeeee" stroke="none" font-family="Arial" font-size="24px" font-style="normal" font-weight="normal" text-decoration="none" x="800" y="180"></text><text fill="#eeeeee" stroke="none" font-family="Arial" font-size="24px" font-style="normal" font-weight="normal" text-decoration="none" x="800" y="210"></text><text fill="#eeeeee" stroke="none" font-family="Arial" font-size="24px" font-style="normal" font-weight="normal" text-decoration="none" x="800" y="240"></text><text fill="#eeeeee" stroke="none" font-family="Arial" font-size="24px" font-style="normal" font-weight="normal" text-decoration="none" x="800" y="270"></text><text fill="#eeeeee" stroke="none" font-family="Arial" font-size="24px" font-style="normal" font-weight="normal" text-decoration="none" x="800" y="300"></text><text fill="#eeeeee" stroke="none" font-family="Arial" font-size="24px" font-style="normal" font-weight="normal" text-decoration="none" x="800" y="330"></text><text fill="#eeeeee" stroke="none" font-family="Arial" font-size="24px" font-style="normal" font-weight="normal" text-decoration="none" x="800" y="360"></text><text fill="#eeeeee" stroke="none" font-family="Arial" font-size="24px" font-style="normal" font-weight="normal" text-decoration="none" x="800" y="390"></text><text fill="#eeeeee" stroke="none" font-family="Arial" font-size="24px" font-style="normal" font-weight="normal" text-decoration="none" x="800" y="420"></text><text fill="#eeeeee" stroke="none" font-family="Arial" font-size="24px" font-style="normal" font-weight="normal" text-decoration="none" x="800" y="450"></text><text fill="#eeeeee" stroke="none" font-family="Arial" font-size="24px" font-style="normal" font-weight="normal" text-decoration="none" x="800" y="480"></text><text fill="#eeeeee" stroke="none" font-family="Arial" font-size="24px" font-style="normal" font-weight="normal" text-decoration="none" x="800" y="510"></text><text fill="#eeeeee" stroke="none" font-family="Arial" font-size="24px" font-style="normal" font-weight="normal" text-decoration="none" x="1000" y="0"></text><text fill="#eeeeee" stroke="none" font-family="Arial" font-size="24px" font-style="normal" font-weight="normal" text-decoration="none" x="1000" y="30"></text><text fill="#eeeeee" stroke="none" font-family="Arial" font-size="24px" font-style="normal" font-weight="normal" text-decoration="none" x="1000" y="60"></text><text fill="#eeeeee" stroke="none" font-family="Arial" font-size="24px" font-style="normal" font-weight="normal" text-decoration="none" x="1000" y="90"></text><text fill="#eeeeee" stroke="none" font-family="Arial" font-size="24px" font-style="normal" font-weight="normal" text-decoration="none" x="1000" y="120"></text><text fill="#eeeeee" stroke="none" font-family="Arial" font-size="24px" font-style="normal" font-weight="normal" text-decoration="none" x="1000" y="150"></text><text fill="#eeeeee" stroke="none" font-family="Arial" font-size="24px" font-style="normal" font-weight="normal" text-decoration="none" x="1000" y="180"></text><text fill="#eeeeee" stroke="none" font-family="Arial" font-size="24px" font-style="normal" font-weight="normal" text-decoration="none" x="1000" y="210"></text><text fill="#eeeeee" stroke="none" font-family="Arial" font-size="24px" font-style="normal" font-weight="normal" text-decoration="none" x="1000" y="240"></text><text fill="#eeeeee" stroke="none" font-family="Arial" font-size="24px" font-style="normal" font-weight="normal" text-decoration="none" x="1000" y="270"></text><text fill="#eeeeee" stroke="none" font-family="Arial" font-size="24px" font-style="normal" font-weight="normal" text-decoration="none" x="1000" y="300"></text><text fill="#eeeeee" stroke="none" font-family="Arial" font-size="24px" font-style="normal" font-weight="normal" text-decoration="none" x="1000" y="330"></text><text fill="#eeeeee" stroke="none" font-family="Arial" font-size="24px" font-style="normal" font-weight="normal" text-decoration="none" x="1000" y="360"></text><text fill="#eeeeee" stroke="none" font-family="Arial" font-size="24px" font-style="normal" font-weight="normal" text-decoration="none" x="1000" y="390"></text><text fill="#eeeeee" stroke="none" font-family="Arial" font-size="24px" font-style="normal" font-weight="normal" text-decoration="none" x="1000" y="420"></text><text fill="#eeeeee" stroke="none" font-family="Arial" font-size="24px" font-style="normal" font-weight="normal" text-decoration="none" x="1000" y="450"></text><text fill="#eeeeee" stroke="none" font-family="Arial" font-size="24px" font-style="normal" font-weight="normal" text-decoration="none" x="1000" y="480"></text><text fill="#eeeeee" stroke="none" font-family="Arial" font-size="24px" font-style="normal" font-weight="normal" text-decoration="none" x="1000" y="510"></text><text fill="#eeeeee" stroke="none" font-family="Arial" font-size="24px" font-style="normal" font-weight="normal" text-decoration="none" x="1200" y="0"></text><text fill="#eeeeee" stroke="none" font-family="Arial" font-size="24px" font-style="normal" font-weight="normal" text-decoration="none" x="1200" y="30"></text><text fill="#eeeeee" stroke="none" font-family="Arial" font-size="24px" font-style="normal" font-weight="normal" text-decoration="none" x="1200" y="60"></text><text fill="#eeeeee" stroke="none" font-family="Arial" font-size="24px" font-style="normal" font-weight="normal" text-decoration="none" x="1200" y="90"></text><text fill="#eeeeee" stroke="none" font-family="Arial" font-size="24px" font-style="normal" font-weight="normal" text-decoration="none" x="1200" y="120"></text><text fill="#eeeeee" stroke="none" font-family="Arial" font-size="24px" font-style="normal" font-weight="normal" text-decoration="none" x="1200" y="150"></text><text fill="#eeeeee" stroke="none" font-family="Arial" font-size="24px" font-style="normal" font-weight="normal" text-decoration="none" x="1200" y="180"></text><text fill="#eeeeee" stroke="none" font-family="Arial" font-size="24px" font-style="normal" font-weight="normal" text-decoration="none" x="1200" y="210"></text><text fill="#eeeeee" stroke="none" font-family="Arial" font-size="24px" font-style="normal" font-weight="normal" text-decoration="none" x="1200" y="240"></text><text fill="#eeeeee" stroke="none" font-family="Arial" font-size="24px" font-style="normal" font-weight="normal" text-decoration="none" x="1200" y="270"></text><text fill="#eeeeee" stroke="none" font-family="Arial" font-size="24px" font-style="normal" font-weight="normal" text-decoration="none" x="1200" y="300"></text><text fill="#eeeeee" stroke="none" font-family="Arial" font-size="24px" font-style="normal" font-weight="normal" text-decoration="none" x="1200" y="330"></text><text fill="#eeeeee" stroke="none" font-family="Arial" font-size="24px" font-style="normal" font-weight="normal" text-decoration="none" x="1200" y="360"></text><text fill="#eeeeee" stroke="none" font-family="Arial" font-size="24px" font-style="normal" font-weight="normal" text-decoration="none" x="1200" y="390"></text><text fill="#eeeeee" stroke="none" font-family="Arial" font-size="24px" font-style="normal" font-weight="normal" text-decoration="none" x="1200" y="420"></text><text fill="#eeeeee" stroke="none" font-family="Arial" font-size="24px" font-style="normal" font-weight="normal" text-decoration="none" x="1200" y="450"></text><text fill="#eeeeee" stroke="none" font-family="Arial" font-size="24px" font-style="normal" font-weight="normal" text-decoration="none" x="1200" y="480"></text><text fill="#eeeeee" stroke="none" font-family="Arial" font-size="24px" font-style="normal" font-weight="normal" text-decoration="none" x="1200" y="510"></text><g transform="translate(-14,-30) scale(1,1)"><rect fill="#C0C0C0" stroke="none" x="779" y="158" width="257.91064453125" height="145" opacity="0.2"/></g><g transform="translate(-14,-30) scale(1,1)"><rect fill="#ffffff" stroke="none" x="772" y="151" width="257.91064453125" height="145"/></g><g transform="translate(-14,-30) scale(1,1)"><path fill="none" stroke="#000000" d="M 772 151 L 1029.91064453125 151 L 1029.91064453125 296 L 772 296 L 772 151 Z Z" stroke-miterlimit="10"/></g><g transform="translate(-14,-30) scale(1,1)"><path fill="none" stroke="#000000" d="M 772 191 L 1029.91064453125 191" stroke-miterlimit="10"/></g><g transform="translate(-14,-30) scale(1,1)"><path fill="none" stroke="#000000" d="M 772 214 L 1029.91064453125 214" stroke-miterlimit="10"/></g><g transform="translate(-14,-30) scale(1,1)"><g><path fill="none" stroke="none"/><text fill="#000000" stroke="none" font-family="Arial" font-size="13px" font-style="normal" font-weight="bold" text-decoration="none" x="846.77490234375" y="169">ListeCommandes</text></g></g><g transform="translate(-14,-30) scale(1,1)"><g><path fill="none" stroke="none"/><text fill="#000000" stroke="none" font-family="Arial" font-size="13px" font-style="normal" font-weight="normal" text-decoration="none" x="864.11669921875" y="184">(from model)</text></g></g><g transform="translate(-14,-30) scale(1,1)"><g><path fill="none" stroke="none"/><text fill="#000000" stroke="none" font-family="Arial" font-size="13px" font-style="normal" font-weight="normal" text-decoration="none" x="777" y="207">-commandes: ArrayList&lt;Commande&gt;</text></g></g><g transform="translate(-14,-30) scale(1,1)"><g><path fill="none" stroke="none"/><text fill="#000000" stroke="none" font-family="Arial" font-size="13px" font-style="normal" font-weight="normal" text-decoration="none" x="777" y="230">+ListeCommandes()</text></g></g><g transform="translate(-14,-30) scale(1,1)"><g><path fill="none" stroke="none"/><text fill="#000000" stroke="none" font-family="Arial" font-size="13px" font-style="normal" font-weight="normal" text-decoration="none" x="777" y="245">+getCommandes(): ArrayList&lt;Commande&gt;</text></g></g><g transform="translate(-14,-30) scale(1,1)"><g><path fill="none" stroke="none"/><text fill="#000000" stroke="none" font-family="Arial" font-size="13px" font-style="normal" font-weight="normal" text-decoration="none" x="777" y="260">+ajouter(c: Commande)</text></g></g><g transform="translate(-14,-30) scale(1,1)"><g><path fill="none" stroke="none"/><text fill="#000000" stroke="none" font-family="Arial" font-size="13px" font-style="normal" font-weight="normal" text-decoration="none" x="777" y="275">+supprimer(c: Commande)</text></g></g><g transform="translate(-14,-30) scale(1,1)"><g><path fill="none" stroke="none"/><text fill="#000000" stroke="none" font-family="Arial" font-size="13px" font-style="normal" font-weight="normal" text-decoration="none" x="777" y="290">+editer(c: Commande)</text></g></g><g transform="translate(-14,-30) scale(1,1)"><rect fill="#C0C0C0" stroke="none" x="294" y="158" width="405.04296875" height="145" opacity="0.2"/></g><g transform="translate(-14,-30) scale(1,1)"><rect fill="#ffffff" stroke="none" x="287" y="151" width="405.04296875" height="145"/></g><g transform="translate(-14,-30) scale(1,1)"><path fill="none" stroke="#000000" d="M 287 151 L 692.04296875 151 L 692.04296875 296 L 287 296 L 287 151 Z Z" stroke-miterlimit="10"/></g><g transform="translate(-14,-30) scale(1,1)"><path fill="none" stroke="#000000" d="M 287 191 L 692.04296875 191" stroke-miterlimit="10"/></g><g transform="translate(-14,-30) scale(1,1)"><path fill="none" stroke="#000000" d="M 287 229 L 692.04296875 229" stroke-miterlimit="10"/></g><g transform="translate(-14,-30) scale(1,1)"><g><path fill="none" stroke="none"/><text fill="#000000" stroke="none" font-family="Arial" font-size="13px" font-style="normal" font-weight="bold" text-decoration="none" x="439.31787109375" y="169">CommandesCtrl</text></g></g><g transform="translate(-14,-30) scale(1,1)"><g><path fill="none" stroke="none"/><text fill="#000000" stroke="none" font-family="Arial" font-size="13px" font-style="normal" font-weight="normal" text-decoration="none" x="443.6533203125" y="184">(from controller)</text></g></g><g transform="translate(-14,-30) scale(1,1)"><g><path fill="none" stroke="none"/><text fill="#000000" stroke="none" font-family="Arial" font-size="13px" font-style="normal" font-weight="normal" text-decoration="none" x="292" y="207">-model: ListeCommandes</text></g></g><g transform="translate(-14,-30) scale(1,1)"><g><path fill="none" stroke="none"/><text fill="#000000" stroke="none" font-family="Arial" font-size="13px" font-style="normal" font-weight="normal" text-decoration="none" x="292" y="222">-view: CommandesView</text></g></g><g transform="translate(-14,-30) scale(1,1)"><g><path fill="none" stroke="none"/><text fill="#000000" stroke="none" font-family="Arial" font-size="13px" font-style="normal" font-weight="normal" text-decoration="none" x="292" y="245">+CommandesCtrl(model: ListeCommandes, view: CommandesView)</text></g></g><g transform="translate(-14,-30) scale(1,1)"><g><path fill="none" stroke="none"/><text fill="#000000" stroke="none" font-family="Arial" font-size="13px" font-style="normal" font-weight="normal" text-decoration="none" x="292" y="260">+ajouterCommande()</text></g></g><g transform="translate(-14,-30) scale(1,1)"><g><path fill="none" stroke="none"/><text fill="#000000" stroke="none" font-family="Arial" font-size="13px" font-style="normal" font-weight="normal" text-decoration="none" x="292" y="275">+supprimerCommande()</text></g></g><g transform="translate(-14,-30) scale(1,1)"><g><path fill="none" stroke="none"/><text fill="#000000" stroke="none" font-family="Arial" font-size="13px" font-style="normal" font-weight="normal" text-decoration="none" x="292" y="290">+editerCommande()</text></g></g><g transform="translate(-14,-30) scale(1,1)"><rect fill="#C0C0C0" stroke="none" x="31" y="172" width="183.12890625" height="132" opacity="0.2"/></g><g transform="translate(-14,-30) scale(1,1)"><rect fill="#ffffff" stroke="none" x="24" y="165" width="183.12890625" height="132"/></g><g transform="translate(-14,-30) scale(1,1)"><path fill="none" stroke="#000000" d="M 24 165 L 207.12890625 165 L 207.12890625 297 L 24 297 L 24 165 Z Z" stroke-miterlimit="10"/></g><g transform="translate(-14,-30) scale(1,1)"><path fill="none" stroke="#000000" d="M 24 205 L 207.12890625 205" stroke-miterlimit="10"/></g><g transform="translate(-14,-30) scale(1,1)"><path fill="none" stroke="#000000" d="M 24 288 L 207.12890625 288" stroke-miterlimit="10"/></g><g transform="translate(-14,-30) scale(1,1)"><g><path fill="none" stroke="none"/><text fill="#000000" stroke="none" font-family="Arial" font-size="13px" font-style="normal" font-weight="bold" text-decoration="none" x="61.860107421875" y="183">CommandesView</text></g></g><g transform="translate(-14,-30) scale(1,1)"><g><path fill="none" stroke="none"/><text fill="#000000" stroke="none" font-family="Arial" font-size="13px" font-style="normal" font-weight="normal" text-decoration="none" x="83.42626953125" y="198">(from view)</text></g></g><g transform="translate(-14,-30) scale(1,1)"><g><path fill="none" stroke="none"/><text fill="#000000" stroke="none" font-family="Arial" font-size="13px" font-style="normal" font-weight="normal" text-decoration="none" x="29" y="221">-menu: MenuBar</text></g></g><g transform="translate(-14,-30) scale(1,1)"><g><path fill="none" stroke="none"/><text fill="#000000" stroke="none" font-family="Arial" font-size="13px" font-style="normal" font-weight="normal" text-decoration="none" x="29" y="236">-listeCommandes: ListView</text></g></g><g transform="translate(-14,-30) scale(1,1)"><g><path fill="none" stroke="none"/><text fill="#000000" stroke="none" font-family="Arial" font-size="13px" font-style="normal" font-weight="normal" text-decoration="none" x="29" y="251">-ajouterCommande: Button</text></g></g><g transform="translate(-14,-30) scale(1,1)"><g><path fill="none" stroke="none"/><text fill="#000000" stroke="none" font-family="Arial" font-size="13px" font-style="normal" font-weight="normal" text-decoration="none" x="29" y="266">-supprimerCommande: Button</text></g></g><g transform="translate(-14,-30) scale(1,1)"><g><path fill="none" stroke="none"/><text fill="#000000" stroke="none" font-family="Arial" font-size="13px" font-style="normal" font-weight="normal" text-decoration="none" x="29" y="281">-editerCommande: Button</text></g></g><g transform="translate(-14,-30) scale(1,1)"><path fill="none" stroke="#000000" d="M 208 229 L 286 227" stroke-miterlimit="10"/></g><g transform="translate(-14,-30) scale(1,1)"><path fill="#FFFFFF" stroke="none" d="M 275.94856517138015 231.46863042620535 L 286 227 L 275.73276339504196 223.05236114901462 L 264.00722851999143 227.5639172174361"/></g><g transform="translate(-14,-30) scale(1,1)"><path fill="none" stroke="#000000" d="M 275.94856517138015 231.46863042620535 L 286 227 L 275.73276339504196 223.05236114901462 L 264.00722851999143 227.5639172174361 L 275.94856517138015 231.46863042620535" stroke-miterlimit="10"/></g><g transform="translate(-14,-30) scale(1,1)"><path fill="none" stroke="#000000" d="M 218.05143482861985 224.53136957379465 L 208 229 L 218.26723660495807 232.94763885098538" stroke-miterlimit="10"/></g><g transform="translate(-14,-30) scale(1,1)"><path fill="none" stroke="#000000" d="M 771 223 L 693 223" stroke-miterlimit="10"/></g><g transform="translate(-14,-30) scale(1,1)"><path fill="#FFFFFF" stroke="none" d="M 703.1626748576241 218.790482243984 L 693 223 L 703.1626748576241 227.209517756016 L 715 223"/></g><g transform="translate(-14,-30) scale(1,1)"><path fill="none" stroke="#000000" d="M 703.1626748576241 218.790482243984 L 693 223 L 703.1626748576241 227.209517756016 L 715 223 L 703.1626748576241 218.790482243984" stroke-miterlimit="10"/></g><g transform="translate(-14,-30) scale(1,1)"><path fill="none" stroke="#000000" d="M 760.8373251423759 227.209517756016 L 771 223 L 760.8373251423758 218.790482243984" stroke-miterlimit="10"/></g><g transform="translate(-14,-30) scale(1,1)"><path fill="#ffffff" stroke="none" d="M 840 40 L 957 40 L 967 50 L 967 89 L 840 89 L 840 40"/></g><g transform="translate(-14,-30) scale(1,1)"><path fill="none" stroke="#000000" d="M 840 40 L 957 40 L 967 50 L 967 89 L 840 89 L 840 40 L 840 40" stroke-miterlimit="10"/></g><g transform="translate(-14,-30) scale(1,1)"><path fill="none" stroke="#000000" d="M 957 40 L 957 50 L 967 50 L 957 40" stroke-miterlimit="10"/></g><g transform="translate(-14,-30) scale(1,1)"><g><path fill="none" stroke="none"/><text fill="#000000" stroke="none" font-family="Arial" font-size="13px" font-style="normal" font-weight="normal" text-decoration="none" x="845" y="55">Remplie avec les</text><text fill="#000000" stroke="none" font-family="Arial" font-size="13px" font-style="normal" font-weight="normal" text-decoration="none" x="845" y="68">commandes déjà</text><text fill="#000000" stroke="none" font-family="Arial" font-size="13px" font-style="normal" font-weight="normal" text-decoration="none" x="845" y="81">dans la base</text></g></g><g transform="translate(-14,-30) scale(1,1)"><path fill="none" stroke="#000000" d="M 903 91 L 902 150" stroke-miterlimit="10" stroke-dasharray="3"/></g><g transform="translate(-14,-30) scale(1,1)"><rect fill="#C0C0C0" stroke="none" x="1117" y="201" width="108.67724609375" height="59" opacity="0.2"/></g><g transform="translate(-14,-30) scale(1,1)"><rect fill="#ffffff" stroke="none" x="1110" y="194" width="108.67724609375" height="59"/></g><g transform="translate(-14,-30) scale(1,1)"><path fill="none" stroke="#000000" d="M 1110 194 L 1218.67724609375 194 L 1218.67724609375 253 L 1110 253 L 1110 194 Z Z" stroke-miterlimit="10"/></g><g transform="translate(-14,-30) scale(1,1)"><path fill="none" stroke="#000000" d="M 1110 234 L 1218.67724609375 234" stroke-miterlimit="10"/></g><g transform="translate(-14,-30) scale(1,1)"><path fill="none" stroke="#000000" d="M 1110 244 L 1218.67724609375 244" stroke-miterlimit="10"/></g><g transform="translate(-14,-30) scale(1,1)"><g><path fill="none" stroke="none"/><text fill="#000000" stroke="none" font-family="Arial" font-size="13px" font-style="normal" font-weight="bold" text-decoration="none" x="1114.5" y="212">CommandeDAO</text></g></g><g transform="translate(-14,-30) scale(1,1)"><g><path fill="none" stroke="none"/><text fill="#000000" stroke="none" font-family="Arial" font-size="13px" font-style="normal" font-weight="normal" text-decoration="none" x="1132.552734375" y="227">(from data)</text></g></g><g transform="translate(-14,-30) scale(1,1)"><rect fill="#C0C0C0" stroke="none" x="1062" y="400" width="216.54150390625" height="160" opacity="0.2"/></g><g transform="translate(-14,-30) scale(1,1)"><rect fill="#C0C0C0" stroke="none" x="1239.51611328125" y="367" width="48.025390625" height="37" opacity="0.2"/></g><g transform="translate(-14,-30) scale(1,1)"><rect fill="#ffffff" stroke="none" x="1055" y="393" width="216.54150390625" height="160"/></g><g transform="translate(-14,-30) scale(1,1)"><path fill="none" stroke="#000000" d="M 1055 393 L 1271.54150390625 393 L 1271.54150390625 553 L 1055 553 L 1055 393 Z Z" stroke-miterlimit="10"/></g><g transform="translate(-14,-30) scale(1,1)"><path fill="none" stroke="#000000" d="M 1055 433 L 1271.54150390625 433" stroke-miterlimit="10"/></g><g transform="translate(-14,-30) scale(1,1)"><path fill="none" stroke="#000000" d="M 1055 456 L 1271.54150390625 456" stroke-miterlimit="10"/></g><g transform="translate(-14,-30) scale(1,1)"><g><path fill="none" stroke="none"/><text fill="#000000" stroke="none" font-family="Arial" font-size="13px" font-style="italic" font-weight="bold" text-decoration="none" x="1148.82666015625" y="411">DAO</text></g></g><g transform="translate(-14,-30) scale(1,1)"><g><path fill="none" stroke="none"/><text fill="#000000" stroke="none" font-family="Arial" font-size="13px" font-style="normal" font-weight="normal" text-decoration="none" x="1131.48486328125" y="426">(from data)</text></g></g><g transform="translate(-14,-30) scale(1,1)"><g><path fill="none" stroke="none"/><text fill="#000000" stroke="none" font-family="Arial" font-size="13px" font-style="normal" font-weight="normal" text-decoration="none" x="1060" y="449">-connexion: Connection</text></g></g><g transform="translate(-14,-30) scale(1,1)"><g><path fill="none" stroke="none"/><text fill="#000000" stroke="none" font-family="Arial" font-size="13px" font-style="normal" font-weight="normal" text-decoration="none" x="1060" y="472">+DAO(connexion: Connection)</text></g></g><g transform="translate(-14,-30) scale(1,1)"><g><path fill="none" stroke="none"/><text fill="#000000" stroke="none" font-family="Arial" font-size="13px" font-style="italic" font-weight="normal" text-decoration="none" x="1060" y="487">+insert(model: Model): boolean</text></g></g><g transform="translate(-14,-30) scale(1,1)"><g><path fill="none" stroke="none"/><text fill="#000000" stroke="none" font-family="Arial" font-size="13px" font-style="italic" font-weight="normal" text-decoration="none" x="1060" y="502">+get(id: IdType): Model</text></g></g><g transform="translate(-14,-30) scale(1,1)"><g><path fill="none" stroke="none"/><text fill="#000000" stroke="none" font-family="Arial" font-size="13px" font-style="italic" font-weight="normal" text-decoration="none" x="1060" y="517">+getAll(): ArrayList&lt;Model&gt;</text></g></g><g transform="translate(-14,-30) scale(1,1)"><g><path fill="none" stroke="none"/><text fill="#000000" stroke="none" font-family="Arial" font-size="13px" font-style="italic" font-weight="normal" text-decoration="none" x="1060" y="532">+update(model: Model): boolean</text></g></g><g transform="translate(-14,-30) scale(1,1)"><g><path fill="none" stroke="none"/><text fill="#000000" stroke="none" font-family="Arial" font-size="13px" font-style="italic" font-weight="normal" text-decoration="none" x="1060" y="547">+delete(model: Model): boolean</text></g></g><g transform="translate(-14,-30) scale(1,1)"><rect fill="#ffffff" stroke="none" x="1232.51611328125" y="360" width="48.025390625" height="37"/></g><g transform="translate(-14,-30) scale(1,1)"><path fill="none" stroke="#000000" d="M 1232.51611328125 360 L 1280.54150390625 360 L 1280.54150390625 397 L 1232.51611328125 397 L 1232.51611328125 360 Z Z" stroke-miterlimit="10" stroke-dasharray="3"/></g><g transform="translate(-14,-30) scale(1,1)"><g><path fill="none" stroke="none"/><text fill="#000000" stroke="none" font-family="Arial" font-size="13px" font-style="normal" font-weight="normal" text-decoration="none" x="1237.51611328125" y="376">Model</text></g></g><g transform="translate(-14,-30) scale(1,1)"><g><path fill="none" stroke="none"/><text fill="#000000" stroke="none" font-family="Arial" font-size="13px" font-style="normal" font-weight="normal" text-decoration="none" x="1237.51611328125" y="391">IdType</text></g></g><g transform="translate(-14,-30) scale(1,1)"><path fill="none" stroke="#000000" d="M 1165 254 L 1166 359" stroke-miterlimit="10"/></g><g transform="translate(-14,-30) scale(1,1)"><path fill="#FFFFFF" stroke="none" d="M 1157.3877802967763 338.755749661116 L 1166 359 L 1174.2250877414451 338.5953943521192"/></g><g transform="translate(-14,-30) scale(1,1)"><path fill="none" stroke="#000000" d="M 1157.3877802967763 338.755749661116 L 1166 359 L 1174.2250877414451 338.5953943521192 L 1157.3877802967763 338.755749661116" stroke-miterlimit="10"/></g><g transform="translate(-14,-30) scale(1,1)"><rect fill="#C0C0C0" stroke="none" x="439" y="399" width="201.59423828125" height="128" opacity="0.2"/></g><g transform="translate(-14,-30) scale(1,1)"><rect fill="#ffffff" stroke="none" x="432" y="392" width="201.59423828125" height="128"/></g><g transform="translate(-14,-30) scale(1,1)"><path fill="none" stroke="#000000" d="M 432 392 L 633.59423828125 392 L 633.59423828125 520 L 432 520 L 432 392 Z Z" stroke-miterlimit="10"/></g><g transform="translate(-14,-30) scale(1,1)"><path fill="none" stroke="#000000" d="M 432 445 L 633.59423828125 445" stroke-miterlimit="10"/></g><g transform="translate(-14,-30) scale(1,1)"><path fill="none" stroke="#000000" d="M 432 468 L 633.59423828125 468" stroke-miterlimit="10"/></g><g transform="translate(-14,-30) scale(1,1)"><g><path fill="none" stroke="none"/><text fill="#000000" stroke="none" font-family="Arial" font-size="13px" font-style="normal" font-weight="normal" text-decoration="none" x="498.462646484375" y="408">«Singleton»</text></g></g><g transform="translate(-14,-30) scale(1,1)"><g><path fill="none" stroke="none"/><text fill="#000000" stroke="none" font-family="Arial" font-size="13px" font-style="normal" font-weight="bold" text-decoration="none" x="477.547119140625" y="423">SingleConnection</text></g></g><g transform="translate(-14,-30) scale(1,1)"><g><path fill="none" stroke="none"/><text fill="#000000" stroke="none" font-family="Arial" font-size="13px" font-style="normal" font-weight="normal" text-decoration="none" x="501.01123046875" y="438">(from data)</text></g></g><g transform="translate(-14,-30) scale(1,1)"><g><path fill="none" stroke="none"/><text fill="#000000" stroke="none" font-family="Arial" font-size="13px" font-style="normal" font-weight="normal" text-decoration="none" x="437" y="461">-connexion: Connection</text><path fill="none" stroke="#000000" d="M 437 462.5 L 573.5888671875 462.5" stroke-miterlimit="10"/></g></g><g transform="translate(-14,-30) scale(1,1)"><g><path fill="none" stroke="none"/><text fill="#000000" stroke="none" font-family="Arial" font-size="13px" font-style="normal" font-weight="normal" text-decoration="none" x="437" y="484">-SingleConnection()</text></g></g><g transform="translate(-14,-30) scale(1,1)"><g><path fill="none" stroke="none"/><text fill="#000000" stroke="none" font-family="Arial" font-size="13px" font-style="normal" font-weight="normal" text-decoration="none" x="437" y="499">+getInstance(): Connection</text><path fill="none" stroke="#000000" d="M 437 500.5 L 593.45703125 500.5" stroke-miterlimit="10"/></g></g><g transform="translate(-14,-30) scale(1,1)"><path fill="none" stroke="#000000" d="M 1031 223 L 1109 223" stroke-miterlimit="10" stroke-dasharray="3"/></g><g transform="translate(-14,-30) scale(1,1)"><path fill="none" stroke="#000000" d="M 1098.837325142376 227.209517756016 L 1109 223 L 1098.837325142376 218.790482243984" stroke-miterlimit="10"/></g><g transform="translate(-14,-30) scale(1,1)"><g><path fill="none" stroke="none"/><text fill="#000000" stroke="none" font-family="Arial" font-size="13px" font-style="normal" font-weight="normal" text-decoration="none" x="1035.5" y="203.5">«uses»</text></g></g></g></svg>