<svg version="1.1" xmlns="http://www.w3.org/2000/svg" xmlns:xlink="http://www.w3.org/1999/xlink" width="1142.54150390625" height="598"><defs/><g><text fill="#eeeeee" stroke="none" font-family="Arial" font-size="24px" font-style="normal" font-weight="normal" text-decoration="none" x="0" y="0">UNREGISTERED</text><text fill="#eeeeee" stroke="none" font-family="Arial" font-size="24px" font-style="normal" font-weight="normal" text-decoration="none" x="0" y="30">UNREGISTERED</text><text fill="#eeeeee" stroke="none" font-family="Arial" font-size="24px" font-style="normal" font-weight="normal" text-decoration="none" x="0" y="60">UNREGISTERED</text><text fill="#eeeeee" stroke="none" font-family="Arial" font-size="24px" font-style="normal" font-weight="normal" text-decoration="none" x="0" y="90">UNREGISTERED</text><text fill="#eeeeee" stroke="none" font-family="Arial" font-size="24px" font-style="normal" font-weight="normal" text-decoration="none" x="0" y="120">UNREGISTERED</text><text fill="#eeeeee" stroke="none" font-family="Arial" font-size="24px" font-style="normal" font-weight="normal" text-decoration="none" x="0" y="150">UNREGISTERED</text><text fill="#eeeeee" stroke="none" font-family="Arial" font-size="24px" font-style="normal" font-weight="normal" text-decoration="none" x="0" y="180">UNREGISTERED</text><text fill="#eeeeee" stroke="none" font-family="Arial" font-size="24px" font-style="normal" font-weight="normal" text-decoration="none" x="0" y="210">UNREGISTERED</text><text fill="#eeeeee" stroke="none" font-family="Arial" font-size="24px" font-style="normal" font-weight="normal" text-decoration="none" x="0" y="240">UNREGISTERED</text><text fill="#eeeeee" stroke="none" font-family="Arial" font-size="24px" font-style="normal" font-weight="normal" text-decoration="none" x="0" y="270">UNREGISTERED</text><text fill="#eeeeee" stroke="none" font-family="Arial" font-size="24px" font-style="normal" font-weight="normal" text-decoration="none" x="0" y="300">UNREGISTERED</text><text fill="#eeeeee" stroke="none" font-family="Arial" font-size="24px" font-style="normal" font-weight="normal" text-decoration="none" x="0" y="330">UNREGISTERED</text><text fill="#eeeeee" stroke="none" font-family="Arial" font-size="24px" font-style="normal" font-weight="normal" text-decoration="none" x="0" y="360">UNREGISTERED</text><text fill="#eeeeee" stroke="none" font-family="Arial" font-size="24px" font-style="normal" font-weight="normal" text-decoration="none" x="0" y="390">UNREGISTERED</text><text fill="#eeeeee" stroke="none" font-family="Arial" font-size="24px" font-style="normal" font-weight="normal" text-decoration="none" x="0" y="420">UNREGISTERED</text><text fill="#eeeeee" stroke="none" font-family="Arial" font-size="24px" font-style="normal" font-weight="normal" text-decoration="none" x="0" y="450">UNREGISTERED</text><text fill="#eeeeee" stroke="none" font-family="Arial" font-size="24px" font-style="normal" font-weight="normal" text-decoration="none" x="0" y="480">UNREGISTERED</text><text fill="#eeeeee" stroke="none" font-family="Arial" font-size="24px" font-style="normal" font-weight="normal" text-decoration="none" x="0" y="510">UNREGISTERED</text><text fill="#eeeeee" stroke="none" font-family="Arial" font-size="24px" font-style="normal" font-weight="normal" text-decoration="none" x="0" y="540">UNREGISTERED</text><text fill="#eeeeee" stroke="none" font-family="Arial" font-size="24px" font-style="normal" font-weight="normal" text-decoration="none" x="0" y="570">UNREGISTERED</text><text fill="#eeeeee" stroke="none" font-family="Arial" font-size="24px" font-style="normal" font-weight="normal" text-decoration="none" x="200" y="0">UNREGISTERED</text><text fill="#eeeeee" stroke="none" font-family="Arial" font-size="24px" font-style="normal" font-weight="normal" text-decoration="none" x="200" y="30">UNREGISTERED</text><text fill="#eeeeee" stroke="none" font-family="Arial" font-size="24px" font-style="normal" font-weight="normal" text-decoration="none" x="200" y="60">UNREGISTERED</text><text fill="#eeeeee" stroke="none" font-family="Arial" font-size="24px" font-style="normal" font-weight="normal" text-decoration="none" x="200" y="90">UNREGISTERED</text><text fill="#eeeeee" stroke="none" font-family="Arial" font-size="24px" font-style="normal" font-weight="normal" text-decoration="none" x="200" y="120">UNREGISTERED</text><text fill="#eeeeee" stroke="none" font-family="Arial" font-size="24px" font-style="normal" font-weight="normal" text-decoration="none" x="200" y="150">UNREGISTERED</text><text fill="#eeeeee" stroke="none" font-family="Arial" font-size="24px" font-style="normal" font-weight="normal" text-decoration="none" x="200" y="180">UNREGISTERED</text><text fill="#eeeeee" stroke="none" font-family="Arial" font-size="24px" font-style="normal" font-weight="normal" text-decoration="none" x="200" y="210">UNREGISTERED</text><text fill="#eeeeee" stroke="none" font-family="Arial" font-size="24px" font-style="normal" font-weight="normal" text-decoration="none" x="200" y="240">UNREGISTERED</text><text fill="#eeeeee" stroke="none" font-family="Arial" font-size="24px" font-style="normal" font-weight="normal" text-decoration="none" x="200" y="270">UNREGISTERED</text><text fill="#eeeeee" stroke="none" font-family="Arial" font-size="24px" font-style="normal" font-weight="normal" text-decoration="none" x="200" y="300">UNREGISTERED</text><text fill="#eeeeee" stroke="none" font-family="Arial" font-size="24px" font-style="normal" font-weight="normal" text-decoration="none" x="200" y="330">UNREGISTERED</text><text fill="#eeeeee" stroke="none" font-family="Arial" font-size="24px" font-style="normal" font-weight="normal" text-decoration="none" x="200" y="360">UNREGISTERED</text><text fill="#eeeeee" stroke="none" font-family="Arial" font-size="24px" font-style="normal" font-weight="normal" text-decoration="none" x="200" y="390">UNREGISTERED</text><text fill="#eeeeee" stroke="none" font-family="Arial" font-size="24px" font-style="normal" font-weight="normal" text-decoration="none" x="200" y="420">UNREGISTERED</text><text fill="#eeeeee" stroke="none" font-family="Arial" font-size="24px" font-style="normal" font-weight="normal" text-decoration="none" x="200" y="450">UNREGISTERED</text><text fill="#eeeeee" stroke="none" font-family="Arial" font-size="24px" font-style="normal" font-weight="normal" text-decoration="none" x="200" y="480">UNREGISTERED</text><text fill="#eeeeee" stroke="none" font-family="Arial" font-size="24px" font-style="normal" font-weight="normal" text-decoration="none" x="200" y="510">UNREGISTERED</text><text fill="#eeeeee" stroke="none" font-family="Arial" font-size="24px" font-style="normal" font-weight="normal" text-decoration="none" x="200" y="540">UNREGISTERED</text><text fill="#eeeeee" stroke="none" font-family="Arial" font-size="24px" font-style="normal" font-weight="normal" text-decoration="none" x="200" y="570">UNREGISTERED</text><text fill="#eeeeee" stroke="none" font-family="Arial" font-size="24px" font-style="normal" font-weight="normal" text-decoration="none" x="400" y="0">UNREGISTERED</text><text fill="#eeeeee" stroke="none" font-family="Arial" font-size="24px" font-style="normal" font-weight="normal" text-decoration="none" x="400" y="30">UNREGISTERED</text><text fill="#eeeeee" stroke="none" font-family="Arial" font-size="24px" font-style="normal" font-weight="normal" text-decoration="none" x="400" y="60">UNREGISTERED</text><text fill="#eeeeee" stroke="none" font-family="Arial" font-size="24px" font-style="normal" font-weight="normal" text-decoration="none" x="400" y="90">UNREGISTERED</text><text fill="#eeeeee" stroke="none" font-family="Arial" font-size="24px" font-style="normal" font-weight="normal" text-decoration="none" x="400" y="120">UNREGISTERED</text><text fill="#eeeeee" stroke="none" font-family="Arial" font-size="24px" font-style="normal" font-weight="normal" text-decoration="none" x="400" y="150">UNREGISTERED</text><text fill="#eeeeee" stroke="none" font-family="Arial" font-size="24px" font-style="normal" font-weight="normal" text-decoration="none" x="400" y="180">UNREGISTERED</text><text fill="#eeeeee" stroke="none" font-family="Arial" font-size="24px" font-style="normal" font-weight="normal" text-decoration="none" x="400" y="210">UNREGISTERED</text><text fill="#eeeeee" stroke="none" font-family="Arial" font-size="24px" font-style="normal" font-weight="normal" text-decoration="none" x="400" y="240">UNREGISTERED</text><text fill="#eeeeee" stroke="none" font-family="Arial" font-size="24px" font-style="normal" font-weight="normal" text-decoration="none" x="400" y="270">UNREGISTERED</text><text fill="#eeeeee" stroke="none" font-family="Arial" font-size="24px" font-style="normal" font-weight="normal" text-decoration="none" x="400" y="300">UNREGISTERED</text><text fill="#eeeeee" stroke="none" font-family="Arial" font-size="24px" font-style="normal" font-weight="normal" text-decoration="none" x="400" y="330">UNREGISTERED</text><text fill="#eeeeee" stroke="none" font-family="Arial" font-size="24px" font-style="normal" font-weight="normal" text-decoration="none" x="400" y="360">UNREGISTERED</text><text fill="#eeeeee" stroke="none" font-family="Arial" font-size="24px" font-style="normal" font-weight="normal" text-decoration="none" x="400" y="390">UNREGISTERED</text><text fill="#eeeeee" stroke="none" font-family="Arial" font-size="24px" font-style="normal" font-weight="normal" text-decoration="none" x="400" y="420">UNREGISTERED</text><text fill="#eeeeee" stroke="none" font-family="Arial" font-size="24px" font-style="normal" font-weight="normal" text-decoration="none" x="400" y="450">UNREGISTERED</text><text fill="#eeeeee" stroke="none" font-family="Arial" font-size="24px" font-style="normal" font-weight="normal" text-decoration="none" x="400" y="480">UNREGISTERED</text><text fill="#eeeeee" stroke="none" font-family="Arial" font-size="24px" font-style="normal" font-weight="normal" text-decoration="none" x="400" y="510">UNREGISTERED</text><text fill="#eeeeee" stroke="none" font-family="Arial" font-size="24px" font-style="normal" font-weight="normal" text-decoration="none" x="400" y="540">UNREGISTERED</text><text fill="#eeeeee" stroke="none" font-family="Arial" font-size="24px" font-style="normal" font-weight="normal" text-decoration="none" x="400" y="570">UNREGISTERED</text><text fill="#eeeeee" stroke="none" font-family="Arial" font-size="24px" font-style="normal" font-weight="normal" text-decoration="none" x="600" y="0">UNREGISTERED</text><text fill="#eeeeee" stroke="none" font-family="Arial" font-size="24px" font-style="normal" font-weight="normal" text-decoration="none" x="600" y="30">UNREGISTERED</text><text fill="#eeeeee" stroke="none" font-family="Arial" font-size="24px" font-style="normal" font-weight="normal" text-decoration="none" x="600" y="60">UNREGISTERED</text><text fill="#eeeeee" stroke="none" font-family="Arial" font-size="24px" font-style="normal" font-weight="normal" text-decoration="none" x="600" y="90">UNREGISTERED</text><text fill="#eeeeee" stroke="none" font-family="Arial" font-size="24px" font-style="normal" font-weight="normal" text-decoration="none" x="600" y="120">UNREGISTERED</text><text fill="#eeeeee" stroke="none" font-family="Arial" font-size="24px" font-style="normal" font-weight="normal" text-decoration="none" x="600" y="150">UNREGISTERED</text><text fill="#eeeeee" stroke="none" font-family="Arial" font-size="24px" font-style="normal" font-weight="normal" text-decoration="none" x="600" y="180">UNREGISTERED</text><text fill="#eeeeee" stroke="none" font-family="Arial" font-size="24px" font-style="normal" font-weight="normal" text-decoration="none" x="600" y="210">UNREGISTERED</text><text fill="#eeeeee" stroke="none" font-family="Arial" font-size="24px" font-style="normal" font-weight="normal" text-decoration="none" x="600" y="240">UNREGISTERED</text><text fill="#eeeeee" stroke="none" font-family="Arial" font-size="24px" font-style="normal" font-weight="normal" text-decoration="none" x="600" y="270">UNREGISTERED</text><text fill="#eeeeee" stroke="none" font-family="Arial" font-size="24px" font-style="normal" font-weight="normal" text-decoration="none" x="600" y="300">UNREGISTERED</text><text fill="#eeeeee" stroke="none" font-family="Arial" font-size="24px" font-style="normal" font-weight="normal" text-decoration="none" x="600" y="330">UNREGISTERED</text><text fill="#eeeeee" stroke="none" font-family="Arial" font-size="24px" font-style="normal" font-weight="normal" text-decoration="none" x="600" y="360">UNREGISTERED</text><text fill="#eeeeee" stroke="none" font-family="Arial" font-size="24px" font-style="normal" font-weight="normal" text-decoration="none" x="600" y="390">UNREGISTERED</text><text fill="#eeeeee" stroke="none" font-family="Arial" font-size="24px" font-style="normal" font-weight="normal" text-decoration="none" x="600" y="420">UNREGISTERED</text><text fill="#eeeeee" stroke="none" font-family="Arial" font-size="24px" font-style="normal" font-weight="normal" text-decoration="none" x="600" y="450">UNREGISTERED</text><text fill="#eeeeee" stroke="none" font-family="Arial" font-size="24px" font-style="normal" font-weight="normal" text-decoration="none" x="600" y="480">UNREGISTERED</text><text fill="#eeeeee" stroke="none" font-family="Arial" font-size="24px" font-style="normal" font-weight="normal" text-decoration="none" x="600" y="510">UNREGISTERED</text><text fill="#eeeeee" stroke="none" font-family="Arial" font-size="24px" font-style="normal" font-weight="normal" text-decoration="none" x="600" y="540">UNREGISTERED</text><text fill="#eeeeee" stroke="none" font-family="Arial" font-size="24px" font-style="normal" font-weight="normal" text-decoration="none" x="600" y="570">UNREGISTERED</text><text fill="#eeeeee" stroke="none" font-family="Arial" font-size="24px" font-style="normal" font-weight="normal" text-decoration="none" x="800" y="0">UNREGISTERED</text><text fill="#eeeeee" stroke="none" font-family="Arial" font-size="24px" font-style="normal" font-weight="normal" text-decoration="none" x="800" y="30">UNREGISTERED</text><text fill="#eeeeee" stroke="none" font-family="Arial" font-size="24px" font-style="normal" font-weight="normal" text-decoration="none" x="800" y="60">UNREGISTERED</text><text fill="#eeeeee" stroke="none" font-family="Arial" font-size="24px" font-style="normal" font-weight="normal" text-decoration="none" x="800" y="90">UNREGISTERED</text><text fill="#eeeeee" stroke="none" font-family="Arial" font-size="24px" font-style="normal" font-weight="normal" text-decoration="none" x="800" y="120">UNREGISTERED</text><text fill="#eeeeee" stroke="none" font-family="Arial" font-size="24px" font-style="normal" font-weight="normal" text-decoration="none" x="800" y="150">UNREGISTERED</text><text fill="#eeeeee" stroke="none" font-family="Arial" font-size="24px" font-style="normal" font-weight="normal" text-decoration="none" x="800" y="180">UNREGISTERED</text><text fill="#eeeeee" stroke="none" font-family="Arial" font-size="24px" font-style="normal" font-weight="normal" text-decoration="none" x="800" y="210">UNREGISTERED</text><text fill="#eeeeee" stroke="none" font-family="Arial" font-size="24px" font-style="normal" font-weight="normal" text-decoration="none" x="800" y="240">UNREGISTERED</text><text fill="#eeeeee" stroke="none" font-family="Arial" font-size="24px" font-style="normal" font-weight="normal" text-decoration="none" x="800" y="270">UNREGISTERED</text><text fill="#eeeeee" stroke="none" font-family="Arial" font-size="24px" font-style="normal" font-weight="normal" text-decoration="none" x="800" y="300">UNREGISTERED</text><text fill="#eeeeee" stroke="none" font-family="Arial" font-size="24px" font-style="normal" font-weight="normal" text-decoration="none" x="800" y="330">UNREGISTERED</text><text fill="#eeeeee" stroke="none" font-family="Arial" font-size="24px" font-style="normal" font-weight="normal" text-decoration="none" x="800" y="360">UNREGISTERED</text><text fill="#eeeeee" stroke="none" font-family="Arial" font-size="24px" font-style="normal" font-weight="normal" text-decoration="none" x="800" y="390">UNREGISTERED</text><text fill="#eeeeee" stroke="none" font-family="Arial" font-size="24px" font-style="normal" font-weight="normal" text-decoration="none" x="800" y="420">UNREGISTERED</text><text fill="#eeeeee" stroke="none" font-family="Arial" font-size="24px" font-style="normal" font-weight="normal" text-decoration="none" x="800" y="450">UNREGISTERED</text><text fill="#eeeeee" stroke="none" font-family="Arial" font-size="24px" font-style="normal" font-weight="normal" text-decoration="none" x="800" y="480">UNREGISTERED</text><text fill="#eeeeee" stroke="none" font-family="Arial" font-size="24px" font-style="normal" font-weight="normal" text-decoration="none" x="800" y="510">UNREGISTERED</text><text fill="#eeeeee" stroke="none" font-family="Arial" font-size="24px" font-style="normal" font-weight="normal" text-decoration="none" x="800" y="540">UNREGISTERED</text><text fill="#eeeeee" stroke="none" font-family="Arial" font-size="24px" font-style="normal" font-weight="normal" text-decoration="none" x="800" y="570">UNREGISTERED</text><text fill="#eeeeee" stroke="none" font-family="Arial" font-size="24px" font-style="normal" font-weight="normal" text-decoration="none" x="1000" y="0">UNREGISTERED</text><text fill="#eeeeee" stroke="none" font-family="Arial" font-size="24px" font-style="normal" font-weight="normal" text-decoration="none" x="1000" y="30">UNREGISTERED</text><text fill="#eeeeee" stroke="none" font-family="Arial" font-size="24px" font-style="normal" font-weight="normal" text-decoration="none" x="1000" y="60">UNREGISTERED</text><text fill="#eeeeee" stroke="none" font-family="Arial" font-size="24px" font-style="normal" font-weight="normal" text-decoration="none" x="1000" y="90">UNREGISTERED</text><text fill="#eeeeee" stroke="none" font-family="Arial" font-size="24px" font-style="normal" font-weight="normal" text-decoration="none" x="1000" y="120">UNREGISTERED</text><text fill="#eeeeee" stroke="none" font-family="Arial" font-size="24px" font-style="normal" font-weight="normal" text-decoration="none" x="1000" y="150">UNREGISTERED</text><text fill="#eeeeee" stroke="none" font-family="Arial" font-size="24px" font-style="normal" font-weight="normal" text-decoration="none" x="1000" y="180">UNREGISTERED</text><text fill="#eeeeee" stroke="none" font-family="Arial" font-size="24px" font-style="normal" font-weight="normal" text-decoration="none" x="1000" y="210">UNREGISTERED</text><text fill="#eeeeee" stroke="none" font-family="Arial" font-size="24px" font-style="normal" font-weight="normal" text-decoration="none" x="1000" y="240">UNREGISTERED</text><text fill="#eeeeee" stroke="none" font-family="Arial" font-size="24px" font-style="normal" font-weight="normal" text-decoration="none" x="1000" y="270">UNREGISTERED</text><text fill="#eeeeee" stroke="none" font-family="Arial" font-size="24px" font-style="normal" font-weight="normal" text-decoration="none" x="1000" y="300">UNREGISTERED</text><text fill="#eeeeee" stroke="none" font-family="Arial" font-size="24px" font-style="normal" font-weight="normal" text-decoration="none" x="1000" y="330">UNREGISTERED</text><text fill="#eeeeee" stroke="none" font-family="Arial" font-size="24px" font-style="normal" font-weight="normal" text-decoration="none" x="1000" y="360">UNREGISTERED</text><text fill="#eeeeee" stroke="none" font-family="Arial" font-size="24px" font-style="normal" font-weight="normal" text-decoration="none" x="1000" y="390">UNREGISTERED</text><text fill="#eeeeee" stroke="none" font-family="Arial" font-size="24px" font-style="normal" font-weight="normal" text-decoration="none" x="1000" y="420">UNREGISTERED</text><text fill="#eeeeee" stroke="none" font-family="Arial" font-size="24px" font-style="normal" font-weight="normal" text-decoration="none" x="1000" y="450">UNREGISTERED</text><text fill="#eeeeee" stroke="none" font-family="Arial" font-size="24px" font-style="normal" font-weight="normal" text-decoration="none" x="1000" y="480">UNREGISTERED</text><text fill="#eeeeee" stroke="none" font-family="Arial" font-size="24px" font-style="normal" font-weight="normal" text-decoration="none" x="1000" y="510">UNREGISTERED</text><text fill="#eeeeee" stroke="none" font-family="Arial" font-size="24px" font-style="normal" font-weight="normal" text-decoration="none" x="1000" y="540">UNREGISTERED</text><text fill="#eeeeee" stroke="none" font-family="Arial" font-size="24px" font-style="normal" font-weight="normal" text-decoration="none" x="1000" y="570">UNREGISTERED</text><g transform="translate(-70,-22) scale(1,1)"><rect fill="#C0C0C0" stroke="none" x="607" y="255" width="114.49169921875" height="132" opacity="0.2"/></g><g transform="translate(-70,-22) scale(1,1)"><rect fill="#ffffff" stroke="none" x="600" y="248" width="114.49169921875" height="132"/></g><g transform="translate(-70,-22) scale(1,1)"><path fill="none" stroke="#000000" d="M 600 248 L 714.49169921875 248 L 714.49169921875 380 L 600 380 L 600 248 Z Z" stroke-miterlimit="10"/></g><g transform="translate(-70,-22) scale(1,1)"><path fill="none" stroke="#000000" d="M 600 288 L 714.49169921875 288" stroke-miterlimit="10"/></g><g transform="translate(-70,-22) scale(1,1)"><path fill="none" stroke="#000000" d="M 600 371 L 714.49169921875 371" stroke-miterlimit="10"/></g><g transform="translate(-70,-22) scale(1,1)"><g><path fill="none" stroke="none"/><text fill="#000000" stroke="none" font-family="Arial" font-size="13px" font-style="normal" font-weight="bold" text-decoration="none" x="622.574951171875" y="266">Producteur</text></g></g><g transform="translate(-70,-22) scale(1,1)"><g><path fill="none" stroke="none"/><text fill="#000000" stroke="none" font-family="Arial" font-size="13px" font-style="normal" font-weight="normal" text-decoration="none" x="620.4072265625" y="281">(from model)</text></g></g><g transform="translate(-70,-22) scale(1,1)"><g><path fill="none" stroke="none"/><text fill="#000000" stroke="none" font-family="Arial" font-size="13px" font-style="normal" font-weight="normal" text-decoration="none" x="605" y="304">-SIRET: String</text></g></g><g transform="translate(-70,-22) scale(1,1)"><g><path fill="none" stroke="none"/><text fill="#000000" stroke="none" font-family="Arial" font-size="13px" font-style="normal" font-weight="normal" text-decoration="none" x="605" y="319">-nom: String</text></g></g><g transform="translate(-70,-22) scale(1,1)"><g><path fill="none" stroke="none"/><text fill="#000000" stroke="none" font-family="Arial" font-size="13px" font-style="normal" font-weight="normal" text-decoration="none" x="605" y="334">-prenom: String</text></g></g><g transform="translate(-70,-22) scale(1,1)"><g><path fill="none" stroke="none"/><text fill="#000000" stroke="none" font-family="Arial" font-size="13px" font-style="normal" font-weight="normal" text-decoration="none" x="605" y="349">-numTel: String</text></g></g><g transform="translate(-70,-22) scale(1,1)"><g><path fill="none" stroke="none"/><text fill="#000000" stroke="none" font-family="Arial" font-size="13px" font-style="normal" font-weight="normal" text-decoration="none" x="605" y="364">-adresse: Adresse</text></g></g><g transform="translate(-70,-22) scale(1,1)"><rect fill="#C0C0C0" stroke="none" x="559" y="487" width="176.29248046875" height="130" opacity="0.2"/></g><g transform="translate(-70,-22) scale(1,1)"><rect fill="#ffffff" stroke="none" x="552" y="480" width="176.29248046875" height="130"/></g><g transform="translate(-70,-22) scale(1,1)"><path fill="none" stroke="#000000" d="M 552 480 L 728.29248046875 480 L 728.29248046875 610 L 552 610 L 552 480 Z Z" stroke-miterlimit="10"/></g><g transform="translate(-70,-22) scale(1,1)"><path fill="none" stroke="#000000" d="M 552 520 L 728.29248046875 520" stroke-miterlimit="10"/></g><g transform="translate(-70,-22) scale(1,1)"><path fill="none" stroke="#000000" d="M 552 558 L 728.29248046875 558" stroke-miterlimit="10"/></g><g transform="translate(-70,-22) scale(1,1)"><g><path fill="none" stroke="none"/><text fill="#000000" stroke="none" font-family="Arial" font-size="13px" font-style="italic" font-weight="bold" text-decoration="none" x="608.3603515625" y="498">Utilisateur</text></g></g><g transform="translate(-70,-22) scale(1,1)"><g><path fill="none" stroke="none"/><text fill="#000000" stroke="none" font-family="Arial" font-size="13px" font-style="normal" font-weight="normal" text-decoration="none" x="603.3076171875" y="513">(from model)</text></g></g><g transform="translate(-70,-22) scale(1,1)"><g><path fill="none" stroke="none"/><text fill="#000000" stroke="none" font-family="Arial" font-size="13px" font-style="normal" font-weight="normal" text-decoration="none" x="557" y="536">-mail: String</text></g></g><g transform="translate(-70,-22) scale(1,1)"><g><path fill="none" stroke="none"/><text fill="#000000" stroke="none" font-family="Arial" font-size="13px" font-style="normal" font-weight="normal" text-decoration="none" x="557" y="551">-mdp: String</text></g></g><g transform="translate(-70,-22) scale(1,1)"><g><path fill="none" stroke="none"/><text fill="#000000" stroke="none" font-family="Arial" font-size="13px" font-style="italic" font-weight="normal" text-decoration="none" x="557" y="574">+verifieIdentifiants(): boolean</text></g></g><g transform="translate(-70,-22) scale(1,1)"><g><path fill="none" stroke="none"/><text fill="#000000" stroke="none" font-family="Arial" font-size="13px" font-style="normal" font-weight="normal" text-decoration="none" x="557" y="589">+getMail(): String</text></g></g><g transform="translate(-70,-22) scale(1,1)"><g><path fill="none" stroke="none"/><text fill="#000000" stroke="none" font-family="Arial" font-size="13px" font-style="normal" font-weight="normal" text-decoration="none" x="557" y="604">+getMdp(): String</text></g></g><g transform="translate(-70,-22) scale(1,1)"><path fill="none" stroke="#000000" d="M 652 381 L 645 479" stroke-miterlimit="10"/></g><g transform="translate(-70,-22) scale(1,1)"><path fill="#FFFFFF" stroke="none" d="M 638.0504809915238 458.1264716554477 L 645 479 L 654.8457614228442 459.3261345433992"/></g><g transform="translate(-70,-22) scale(1,1)"><path fill="none" stroke="#000000" d="M 638.0504809915238 458.1264716554477 L 645 479 L 654.8457614228442 459.3261345433992 L 638.0504809915238 458.1264716554477" stroke-miterlimit="10"/></g><g transform="translate(-70,-22) scale(1,1)"><rect fill="#C0C0C0" stroke="none" x="391" y="87" width="197.677734375" height="100" opacity="0.2"/></g><g transform="translate(-70,-22) scale(1,1)"><rect fill="#ffffff" stroke="none" x="384" y="80" width="197.677734375" height="100"/></g><g transform="translate(-70,-22) scale(1,1)"><path fill="none" stroke="#000000" d="M 384 80 L 581.677734375 80 L 581.677734375 180 L 384 180 L 384 80 Z Z" stroke-miterlimit="10"/></g><g transform="translate(-70,-22) scale(1,1)"><path fill="none" stroke="#000000" d="M 384 120 L 581.677734375 120" stroke-miterlimit="10"/></g><g transform="translate(-70,-22) scale(1,1)"><path fill="none" stroke="#000000" d="M 384 143 L 581.677734375 143" stroke-miterlimit="10"/></g><g transform="translate(-70,-22) scale(1,1)"><g><path fill="none" stroke="none"/><text fill="#000000" stroke="none" font-family="Arial" font-size="13px" font-style="normal" font-weight="bold" text-decoration="none" x="447.45068359375" y="98">CompteCtrl</text></g></g><g transform="translate(-70,-22) scale(1,1)"><g><path fill="none" stroke="none"/><text fill="#000000" stroke="none" font-family="Arial" font-size="13px" font-style="normal" font-weight="normal" text-decoration="none" x="436.970703125" y="113">(from controller)</text></g></g><g transform="translate(-70,-22) scale(1,1)"><g><path fill="none" stroke="none"/><text fill="#000000" stroke="none" font-family="Arial" font-size="13px" font-style="normal" font-weight="normal" text-decoration="none" x="389" y="136">-view: CompteView</text></g></g><g transform="translate(-70,-22) scale(1,1)"><g><path fill="none" stroke="none"/><text fill="#000000" stroke="none" font-family="Arial" font-size="13px" font-style="normal" font-weight="normal" text-decoration="none" x="389" y="159">+CompteCtrl(view: CompteView)</text></g></g><g transform="translate(-70,-22) scale(1,1)"><g><path fill="none" stroke="none"/><text fill="#000000" stroke="none" font-family="Arial" font-size="13px" font-style="normal" font-weight="normal" text-decoration="none" x="389" y="174">+updateUtilisateur()</text></g></g><g transform="translate(-70,-22) scale(1,1)"><rect fill="#C0C0C0" stroke="none" x="87" y="55" width="176.62890625" height="162" opacity="0.2"/></g><g transform="translate(-70,-22) scale(1,1)"><rect fill="#ffffff" stroke="none" x="80" y="48" width="176.62890625" height="162"/></g><g transform="translate(-70,-22) scale(1,1)"><path fill="none" stroke="#000000" d="M 80 48 L 256.62890625 48 L 256.62890625 210 L 80 210 L 80 48 Z Z" stroke-miterlimit="10"/></g><g transform="translate(-70,-22) scale(1,1)"><path fill="none" stroke="#000000" d="M 80 88 L 256.62890625 88" stroke-miterlimit="10"/></g><g transform="translate(-70,-22) scale(1,1)"><path fill="none" stroke="#000000" d="M 80 201 L 256.62890625 201" stroke-miterlimit="10"/></g><g transform="translate(-70,-22) scale(1,1)"><g><path fill="none" stroke="none"/><text fill="#000000" stroke="none" font-family="Arial" font-size="13px" font-style="normal" font-weight="bold" text-decoration="none" x="129.425537109375" y="66">CompteView</text></g></g><g transform="translate(-70,-22) scale(1,1)"><g><path fill="none" stroke="none"/><text fill="#000000" stroke="none" font-family="Arial" font-size="13px" font-style="normal" font-weight="normal" text-decoration="none" x="136.17626953125" y="81">(from view)</text></g></g><g transform="translate(-70,-22) scale(1,1)"><g><path fill="none" stroke="none"/><text fill="#000000" stroke="none" font-family="Arial" font-size="13px" font-style="normal" font-weight="normal" text-decoration="none" x="85" y="104">-menu: MenuBar</text></g></g><g transform="translate(-70,-22) scale(1,1)"><g><path fill="none" stroke="none"/><text fill="#000000" stroke="none" font-family="Arial" font-size="13px" font-style="normal" font-weight="normal" text-decoration="none" x="85" y="119">-email: TextField</text></g></g><g transform="translate(-70,-22) scale(1,1)"><g><path fill="none" stroke="none"/><text fill="#000000" stroke="none" font-family="Arial" font-size="13px" font-style="normal" font-weight="normal" text-decoration="none" x="85" y="134">-emailLabel: Label</text></g></g><g transform="translate(-70,-22) scale(1,1)"><g><path fill="none" stroke="none"/><text fill="#000000" stroke="none" font-family="Arial" font-size="13px" font-style="normal" font-weight="normal" text-decoration="none" x="85" y="149">-motdepasseLabel: Label</text></g></g><g transform="translate(-70,-22) scale(1,1)"><g><path fill="none" stroke="none"/><text fill="#000000" stroke="none" font-family="Arial" font-size="13px" font-style="normal" font-weight="normal" text-decoration="none" x="85" y="164">-motdepasse: PasswordField</text></g></g><g transform="translate(-70,-22) scale(1,1)"><g><path fill="none" stroke="none"/><text fill="#000000" stroke="none" font-family="Arial" font-size="13px" font-style="normal" font-weight="normal" text-decoration="none" x="85" y="179">-enregistrer: Button</text></g></g><g transform="translate(-70,-22) scale(1,1)"><g><path fill="none" stroke="none"/><text fill="#000000" stroke="none" font-family="Arial" font-size="13px" font-style="normal" font-weight="normal" text-decoration="none" x="85" y="194">-annuler: Button</text></g></g><g transform="translate(-70,-22) scale(1,1)"><path fill="none" stroke="#000000" d="M 258 129 L 383 130" stroke-miterlimit="10"/></g><g transform="translate(-70,-22) scale(1,1)"><path fill="#FFFFFF" stroke="none" d="M 372.8039752678989 134.12808426057217 L 383 130 L 372.87132539682557 125.70931814474562 L 361.0007039662098 129.82400563172968"/></g><g transform="translate(-70,-22) scale(1,1)"><path fill="none" stroke="#000000" d="M 372.8039752678989 134.12808426057217 L 383 130 L 372.87132539682557 125.70931814474562 L 361.0007039662098 129.82400563172968 L 372.8039752678989 134.12808426057217" stroke-miterlimit="10"/></g><g transform="translate(-70,-22) scale(1,1)"><path fill="none" stroke="#000000" d="M 268.196024732101 124.87191573942783 L 258 129 L 268.12867460317443 133.29068185525438" stroke-miterlimit="10"/></g><g transform="translate(-70,-22) scale(1,1)"><rect fill="#C0C0C0" stroke="none" x="727" y="111" width="107.22998046875" height="59" opacity="0.2"/></g><g transform="translate(-70,-22) scale(1,1)"><rect fill="#ffffff" stroke="none" x="720" y="104" width="107.22998046875" height="59"/></g><g transform="translate(-70,-22) scale(1,1)"><path fill="none" stroke="#000000" d="M 720 104 L 827.22998046875 104 L 827.22998046875 163 L 720 163 L 720 104 Z Z" stroke-miterlimit="10"/></g><g transform="translate(-70,-22) scale(1,1)"><path fill="none" stroke="#000000" d="M 720 144 L 827.22998046875 144" stroke-miterlimit="10"/></g><g transform="translate(-70,-22) scale(1,1)"><path fill="none" stroke="#000000" d="M 720 154 L 827.22998046875 154" stroke-miterlimit="10"/></g><g transform="translate(-70,-22) scale(1,1)"><g><path fill="none" stroke="none"/><text fill="#000000" stroke="none" font-family="Arial" font-size="13px" font-style="normal" font-weight="bold" text-decoration="none" x="724.5" y="122">ProducteurDAO</text></g></g><g transform="translate(-70,-22) scale(1,1)"><g><path fill="none" stroke="none"/><text fill="#000000" stroke="none" font-family="Arial" font-size="13px" font-style="normal" font-weight="normal" text-decoration="none" x="741.8291015625" y="137">(from data)</text></g></g><g transform="translate(-70,-22) scale(1,1)"><path fill="none" stroke="#000000" d="M 753 164 L 700 247" stroke-miterlimit="10" stroke-dasharray="3"/></g><g transform="translate(-70,-22) scale(1,1)"><path fill="none" stroke="#000000" d="M 701.9215558693503 236.16913562817052 L 700 247 L 709.0173228290788 240.70016754221402" stroke-miterlimit="10"/></g><g transform="translate(-70,-22) scale(1,1)"><g><path fill="none" stroke="none"/><text fill="#000000" stroke="none" font-family="Arial" font-size="13px" font-style="normal" font-weight="normal" text-decoration="none" x="722.5" y="224.5">«creates»</text></g></g><g transform="translate(-70,-22) scale(1,1)"><path fill="none" stroke="#000000" d="M 531 181 L 599 253" stroke-miterlimit="10" stroke-dasharray="3"/></g><g transform="translate(-70,-22) scale(1,1)"><path fill="none" stroke="#000000" d="M 588.961693510381 248.5019556671291 L 599 253 L 595.0824430594122 242.7212477597107" stroke-miterlimit="10"/></g><g transform="translate(-70,-22) scale(1,1)"><g><path fill="none" stroke="none"/><text fill="#000000" stroke="none" font-family="Arial" font-size="13px" font-style="normal" font-weight="normal" text-decoration="none" x="557.5" y="200.5">«creates»</text></g></g><g transform="translate(-70,-22) scale(1,1)"><path fill="none" stroke="#000000" d="M 583 131 L 719 132" stroke-miterlimit="10" stroke-dasharray="3"/></g><g transform="translate(-70,-22) scale(1,1)"><path fill="none" stroke="#000000" d="M 708.8066483577801 136.13468043481618 L 719 132 L 708.8685513572693 127.71587250426508" stroke-miterlimit="10"/></g><g transform="translate(-70,-22) scale(1,1)"><g><path fill="none" stroke="none"/><text fill="#000000" stroke="none" font-family="Arial" font-size="13px" font-style="normal" font-weight="normal" text-decoration="none" x="631.5" y="111.5">«uses»</text></g></g><g transform="translate(-70,-22) scale(1,1)"><rect fill="#C0C0C0" stroke="none" x="983" y="72" width="216.54150390625" height="160" opacity="0.2"/></g><g transform="translate(-70,-22) scale(1,1)"><rect fill="#C0C0C0" stroke="none" x="1160.51611328125" y="39" width="48.025390625" height="37" opacity="0.2"/></g><g transform="translate(-70,-22) scale(1,1)"><rect fill="#ffffff" stroke="none" x="976" y="65" width="216.54150390625" height="160"/></g><g transform="translate(-70,-22) scale(1,1)"><path fill="none" stroke="#000000" d="M 976 65 L 1192.54150390625 65 L 1192.54150390625 225 L 976 225 L 976 65 Z Z" stroke-miterlimit="10"/></g><g transform="translate(-70,-22) scale(1,1)"><path fill="none" stroke="#000000" d="M 976 105 L 1192.54150390625 105" stroke-miterlimit="10"/></g><g transform="translate(-70,-22) scale(1,1)"><path fill="none" stroke="#000000" d="M 976 128 L 1192.54150390625 128" stroke-miterlimit="10"/></g><g transform="translate(-70,-22) scale(1,1)"><g><path fill="none" stroke="none"/><text fill="#000000" stroke="none" font-family="Arial" font-size="13px" font-style="italic" font-weight="bold" text-decoration="none" x="1069.82666015625" y="83">DAO</text></g></g><g transform="translate(-70,-22) scale(1,1)"><g><path fill="none" stroke="none"/><text fill="#000000" stroke="none" font-family="Arial" font-size="13px" font-style="normal" font-weight="normal" text-decoration="none" x="1052.48486328125" y="98">(from data)</text></g></g><g transform="translate(-70,-22) scale(1,1)"><g><path fill="none" stroke="none"/><text fill="#000000" stroke="none" font-family="Arial" font-size="13px" font-style="normal" font-weight="normal" text-decoration="none" x="981" y="121">-connexion: Connection</text></g></g><g transform="translate(-70,-22) scale(1,1)"><g><path fill="none" stroke="none"/><text fill="#000000" stroke="none" font-family="Arial" font-size="13px" font-style="normal" font-weight="normal" text-decoration="none" x="981" y="144">+DAO(connexion: Connection)</text></g></g><g transform="translate(-70,-22) scale(1,1)"><g><path fill="none" stroke="none"/><text fill="#000000" stroke="none" font-family="Arial" font-size="13px" font-style="italic" font-weight="normal" text-decoration="none" x="981" y="159">+insert(model: Model): boolean</text></g></g><g transform="translate(-70,-22) scale(1,1)"><g><path fill="none" stroke="none"/><text fill="#000000" stroke="none" font-family="Arial" font-size="13px" font-style="italic" font-weight="normal" text-decoration="none" x="981" y="174">+get(id: IdType): Model</text></g></g><g transform="translate(-70,-22) scale(1,1)"><g><path fill="none" stroke="none"/><text fill="#000000" stroke="none" font-family="Arial" font-size="13px" font-style="italic" font-weight="normal" text-decoration="none" x="981" y="189">+getAll(): ArrayList&lt;Model&gt;</text></g></g><g transform="translate(-70,-22) scale(1,1)"><g><path fill="none" stroke="none"/><text fill="#000000" stroke="none" font-family="Arial" font-size="13px" font-style="italic" font-weight="normal" text-decoration="none" x="981" y="204">+update(model: Model): boolean</text></g></g><g transform="translate(-70,-22) scale(1,1)"><g><path fill="none" stroke="none"/><text fill="#000000" stroke="none" font-family="Arial" font-size="13px" font-style="italic" font-weight="normal" text-decoration="none" x="981" y="219">+delete(model: Model): boolean</text></g></g><g transform="translate(-70,-22) scale(1,1)"><rect fill="#ffffff" stroke="none" x="1153.51611328125" y="32" width="48.025390625" height="37"/></g><g transform="translate(-70,-22) scale(1,1)"><path fill="none" stroke="#000000" d="M 1153.51611328125 32 L 1201.54150390625 32 L 1201.54150390625 69 L 1153.51611328125 69 L 1153.51611328125 32 Z Z" stroke-miterlimit="10" stroke-dasharray="3"/></g><g transform="translate(-70,-22) scale(1,1)"><g><path fill="none" stroke="none"/><text fill="#000000" stroke="none" font-family="Arial" font-size="13px" font-style="normal" font-weight="normal" text-decoration="none" x="1158.51611328125" y="48">Model</text></g></g><g transform="translate(-70,-22) scale(1,1)"><g><path fill="none" stroke="none"/><text fill="#000000" stroke="none" font-family="Arial" font-size="13px" font-style="normal" font-weight="normal" text-decoration="none" x="1158.51611328125" y="63">IdType</text></g></g><g transform="translate(-70,-22) scale(1,1)"><path fill="none" stroke="#000000" d="M 828 132 L 975 130" stroke-miterlimit="10"/></g><g transform="translate(-70,-22) scale(1,1)"><path fill="#FFFFFF" stroke="none" d="M 954.7910653173611 138.69476618390834 L 975 130 L 954.561997115877 121.85825337482312"/></g><g transform="translate(-70,-22) scale(1,1)"><path fill="none" stroke="#000000" d="M 954.7910653173611 138.69476618390834 L 975 130 L 954.561997115877 121.85825337482312 L 954.7910653173611 138.69476618390834" stroke-miterlimit="10"/></g><g transform="translate(-70,-22) scale(1,1)"><rect fill="#C0C0C0" stroke="none" x="1023" y="415" width="165.45703125" height="113" opacity="0.2"/></g><g transform="translate(-70,-22) scale(1,1)"><rect fill="#ffffff" stroke="none" x="1016" y="408" width="165.45703125" height="113"/></g><g transform="translate(-70,-22) scale(1,1)"><path fill="none" stroke="#000000" d="M 1016 408 L 1181.45703125 408 L 1181.45703125 521 L 1016 521 L 1016 408 Z Z" stroke-miterlimit="10"/></g><g transform="translate(-70,-22) scale(1,1)"><path fill="none" stroke="#000000" d="M 1016 461 L 1181.45703125 461" stroke-miterlimit="10"/></g><g transform="translate(-70,-22) scale(1,1)"><path fill="none" stroke="#000000" d="M 1016 484 L 1181.45703125 484" stroke-miterlimit="10"/></g><g transform="translate(-70,-22) scale(1,1)"><g><path fill="none" stroke="none"/><text fill="#000000" stroke="none" font-family="Arial" font-size="13px" font-style="normal" font-weight="normal" text-decoration="none" x="1064.39404296875" y="424">«Singleton»</text></g></g><g transform="translate(-70,-22) scale(1,1)"><g><path fill="none" stroke="none"/><text fill="#000000" stroke="none" font-family="Arial" font-size="13px" font-style="normal" font-weight="bold" text-decoration="none" x="1043.478515625" y="439">SingleConnection</text></g></g><g transform="translate(-70,-22) scale(1,1)"><g><path fill="none" stroke="none"/><text fill="#000000" stroke="none" font-family="Arial" font-size="13px" font-style="normal" font-weight="normal" text-decoration="none" x="1066.942626953125" y="454">(from data)</text></g></g><g transform="translate(-70,-22) scale(1,1)"><g><path fill="none" stroke="none"/><text fill="#000000" stroke="none" font-family="Arial" font-size="13px" font-style="normal" font-weight="normal" text-decoration="none" x="1021" y="477">-connexion: Connection</text><path fill="none" stroke="#000000" d="M 1021 478.5 L 1157.5888671875 478.5" stroke-miterlimit="10"/></g></g><g transform="translate(-70,-22) scale(1,1)"><g><path fill="none" stroke="none"/><text fill="#000000" stroke="none" font-family="Arial" font-size="13px" font-style="normal" font-weight="normal" text-decoration="none" x="1021" y="500">-SingleConnection()</text></g></g><g transform="translate(-70,-22) scale(1,1)"><g><path fill="none" stroke="none"/><text fill="#000000" stroke="none" font-family="Arial" font-size="13px" font-style="normal" font-weight="normal" text-decoration="none" x="1021" y="515">+getInstance(): Connection</text><path fill="none" stroke="#000000" d="M 1021 516.5 L 1177.45703125 516.5" stroke-miterlimit="10"/></g></g><g transform="translate(-70,-22) scale(1,1)"><path fill="none" stroke="#000000" d="M 1092 226 L 1096 407" stroke-miterlimit="10" stroke-dasharray="3"/></g><g transform="translate(-70,-22) scale(1,1)"><path fill="none" stroke="#000000" d="M 1091.5669751249427 396.9328111939269 L 1096 407 L 1099.9839555219378 396.74680057741875" stroke-miterlimit="10"/></g><g transform="translate(-70,-22) scale(1,1)"><g><path fill="none" stroke="none"/><text fill="#000000" stroke="none" font-family="Arial" font-size="13px" font-style="normal" font-weight="normal" text-decoration="none" x="1102.5" y="318.5">«uses»</text></g></g><g transform="translate(-70,-22) scale(1,1)"><path fill="none" stroke="#000000" d="M 1096 407 L 1092 226" stroke-miterlimit="10"/></g><g transform="translate(-70,-22) scale(1,1)"><path fill="#FFFFFF" stroke="none" d="M 1096.4330248750573 236.06718880607306 L 1092 226 L 1088.0160444780622 236.25319942258125 L 1092.4860691652068 247.99462972560883"/></g><g transform="translate(-70,-22) scale(1,1)"><path fill="none" stroke="#000000" d="M 1096.4330248750573 236.06718880607306 L 1092 226 L 1088.0160444780622 236.25319942258125 L 1092.4860691652068 247.99462972560883 L 1096.4330248750573 236.06718880607306" stroke-miterlimit="10"/></g></g></svg>