<svg version="1.1" xmlns="http://www.w3.org/2000/svg" xmlns:xlink="http://www.w3.org/1999/xlink" width="908" height="252"><defs/><g><text fill="#eeeeee" stroke="none" font-family="Arial" font-size="24px" font-style="normal" font-weight="normal" text-decoration="none" x="0" y="0"></text><text fill="#eeeeee" stroke="none" font-family="Arial" font-size="24px" font-style="normal" font-weight="normal" text-decoration="none" x="0" y="30"></text><text fill="#eeeeee" stroke="none" font-family="Arial" font-size="24px" font-style="normal" font-weight="normal" text-decoration="none" x="0" y="60"></text><text fill="#eeeeee" stroke="none" font-family="Arial" font-size="24px" font-style="normal" font-weight="normal" text-decoration="none" x="0" y="90"></text><text fill="#eeeeee" stroke="none" font-family="Arial" font-size="24px" font-style="normal" font-weight="normal" text-decoration="none" x="0" y="120"></text><text fill="#eeeeee" stroke="none" font-family="Arial" font-size="24px" font-style="normal" font-weight="normal" text-decoration="none" x="0" y="150"></text><text fill="#eeeeee" stroke="none" font-family="Arial" font-size="24px" font-style="normal" font-weight="normal" text-decoration="none" x="0" y="180"></text><text fill="#eeeeee" stroke="none" font-family="Arial" font-size="24px" font-style="normal" font-weight="normal" text-decoration="none" x="0" y="210"></text><text fill="#eeeeee" stroke="none" font-family="Arial" font-size="24px" font-style="normal" font-weight="normal" text-decoration="none" x="0" y="240"></text><text fill="#eeeeee" stroke="none" font-family="Arial" font-size="24px" font-style="normal" font-weight="normal" text-decoration="none" x="200" y="0"></text><text fill="#eeeeee" stroke="none" font-family="Arial" font-size="24px" font-style="normal" font-weight="normal" text-decoration="none" x="200" y="30"></text><text fill="#eeeeee" stroke="none" font-family="Arial" font-size="24px" font-style="normal" font-weight="normal" text-decoration="none" x="200" y="60"></text><text fill="#eeeeee" stroke="none" font-family="Arial" font-size="24px" font-style="normal" font-weight="normal" text-decoration="none" x="200" y="90"></text><text fill="#eeeeee" stroke="none" font-family="Arial" font-size="24px" font-style="normal" font-weight="normal" text-decoration="none" x="200" y="120"></text><text fill="#eeeeee" stroke="none" font-family="Arial" font-size="24px" font-style="normal" font-weight="normal" text-decoration="none" x="200" y="150"></text><text fill="#eeeeee" stroke="none" font-family="Arial" font-size="24px" font-style="normal" font-weight="normal" text-decoration="none" x="200" y="180"></text><text fill="#eeeeee" stroke="none" font-family="Arial" font-size="24px" font-style="normal" font-weight="normal" text-decoration="none" x="200" y="210"></text><text fill="#eeeeee" stroke="none" font-family="Arial" font-size="24px" font-style="normal" font-weight="normal" text-decoration="none" x="200" y="240"></text><text fill="#eeeeee" stroke="none" font-family="Arial" font-size="24px" font-style="normal" font-weight="normal" text-decoration="none" x="400" y="0"></text><text fill="#eeeeee" stroke="none" font-family="Arial" font-size="24px" font-style="normal" font-weight="normal" text-decoration="none" x="400" y="30"></text><text fill="#eeeeee" stroke="none" font-family="Arial" font-size="24px" font-style="normal" font-weight="normal" text-decoration="none" x="400" y="60"></text><text fill="#eeeeee" stroke="none" font-family="Arial" font-size="24px" font-style="normal" font-weight="normal" text-decoration="none" x="400" y="90"></text><text fill="#eeeeee" stroke="none" font-family="Arial" font-size="24px" font-style="normal" font-weight="normal" text-decoration="none" x="400" y="120"></text><text fill="#eeeeee" stroke="none" font-family="Arial" font-size="24px" font-style="normal" font-weight="normal" text-decoration="none" x="400" y="150"></text><text fill="#eeeeee" stroke="none" font-family="Arial" font-size="24px" font-style="normal" font-weight="normal" text-decoration="none" x="400" y="180"></text><text fill="#eeeeee" stroke="none" font-family="Arial" font-size="24px" font-style="normal" font-weight="normal" text-decoration="none" x="400" y="210"></text><text fill="#eeeeee" stroke="none" font-family="Arial" font-size="24px" font-style="normal" font-weight="normal" text-decoration="none" x="400" y="240"></text><text fill="#eeeeee" stroke="none" font-family="Arial" font-size="24px" font-style="normal" font-weight="normal" text-decoration="none" x="600" y="0"></text><text fill="#eeeeee" stroke="none" font-family="Arial" font-size="24px" font-style="normal" font-weight="normal" text-decoration="none" x="600" y="30"></text><text fill="#eeeeee" stroke="none" font-family="Arial" font-size="24px" font-style="normal" font-weight="normal" text-decoration="none" x="600" y="60"></text><text fill="#eeeeee" stroke="none" font-family="Arial" font-size="24px" font-style="normal" font-weight="normal" text-decoration="none" x="600" y="90"></text><text fill="#eeeeee" stroke="none" font-family="Arial" font-size="24px" font-style="normal" font-weight="normal" text-decoration="none" x="600" y="120"></text><text fill="#eeeeee" stroke="none" font-family="Arial" font-size="24px" font-style="normal" font-weight="normal" text-decoration="none" x="600" y="150"></text><text fill="#eeeeee" stroke="none" font-family="Arial" font-size="24px" font-style="normal" font-weight="normal" text-decoration="none" x="600" y="180"></text><text fill="#eeeeee" stroke="none" font-family="Arial" font-size="24px" font-style="normal" font-weight="normal" text-decoration="none" x="600" y="210"></text><text fill="#eeeeee" stroke="none" font-family="Arial" font-size="24px" font-style="normal" font-weight="normal" text-decoration="none" x="600" y="240"></text><text fill="#eeeeee" stroke="none" font-family="Arial" font-size="24px" font-style="normal" font-weight="normal" text-decoration="none" x="800" y="0"></text><text fill="#eeeeee" stroke="none" font-family="Arial" font-size="24px" font-style="normal" font-weight="normal" text-decoration="none" x="800" y="30"></text><text fill="#eeeeee" stroke="none" font-family="Arial" font-size="24px" font-style="normal" font-weight="normal" text-decoration="none" x="800" y="60"></text><text fill="#eeeeee" stroke="none" font-family="Arial" font-size="24px" font-style="normal" font-weight="normal" text-decoration="none" x="800" y="90"></text><text fill="#eeeeee" stroke="none" font-family="Arial" font-size="24px" font-style="normal" font-weight="normal" text-decoration="none" x="800" y="120"></text><text fill="#eeeeee" stroke="none" font-family="Arial" font-size="24px" font-style="normal" font-weight="normal" text-decoration="none" x="800" y="150"></text><text fill="#eeeeee" stroke="none" font-family="Arial" font-size="24px" font-style="normal" font-weight="normal" text-decoration="none" x="800" y="180"></text><text fill="#eeeeee" stroke="none" font-family="Arial" font-size="24px" font-style="normal" font-weight="normal" text-decoration="none" x="800" y="210"></text><text fill="#eeeeee" stroke="none" font-family="Arial" font-size="24px" font-style="normal" font-weight="normal" text-decoration="none" x="800" y="240"></text><g transform="translate(-86,-54) scale(1,1)"><rect fill="#C0C0C0" stroke="none" x="399" y="71" width="147.20000000000005" height="15" opacity="0.2"/></g><g transform="translate(-86,-54) scale(1,1)"><rect fill="#C0C0C0" stroke="none" x="399" y="85" width="368" height="218" opacity="0.2"/></g><g transform="translate(-86,-54) scale(1,1)"><rect fill="#ffffff" stroke="none" x="392" y="79" width="368" height="217"/></g><g transform="translate(-86,-54) scale(1,1)"><path fill="none" stroke="#000000" d="M 392 79 L 760 79 L 760 296 L 392 296 L 392 79 Z Z" stroke-miterlimit="10"/></g><g transform="translate(-86,-54) scale(1,1)"><rect fill="#ffffff" stroke="none" x="392" y="64" width="147.20000000000005" height="15"/></g><g transform="translate(-86,-54) scale(1,1)"><path fill="none" stroke="#000000" d="M 392 64 L 539.2 64 L 539.2 79 L 392 79 L 392 64 Z Z" stroke-miterlimit="10"/></g><g transform="translate(-86,-54) scale(1,1)"><rect fill="#ffffff" stroke="none" x="392" y="78" width="368" height="218"/></g><g transform="translate(-86,-54) scale(1,1)"><path fill="none" stroke="#000000" d="M 392 78 L 760 78 L 760 296 L 392 296 L 392 78 Z Z" stroke-miterlimit="10"/></g><g transform="translate(-86,-54) scale(1,1)"><g><path fill="none" stroke="none"/><text fill="#000000" stroke="none" font-family="Arial" font-size="13px" font-style="normal" font-weight="normal" text-decoration="none" x="557.569580078125" y="94.5">«root»</text></g></g><g transform="translate(-86,-54) scale(1,1)"><g><path fill="none" stroke="none"/><text fill="#000000" stroke="none" font-family="Arial" font-size="13px" font-style="normal" font-weight="bold" text-decoration="none" x="563.34912109375" y="110">java</text></g></g><g transform="translate(-86,-54) scale(1,1)"><rect fill="#C0C0C0" stroke="none" x="439" y="151" width="19.600000000000023" height="15" opacity="0.2"/></g><g transform="translate(-86,-54) scale(1,1)"><rect fill="#C0C0C0" stroke="none" x="439" y="165" width="49" height="25" opacity="0.2"/></g><g transform="translate(-86,-54) scale(1,1)"><rect fill="#ffffff" stroke="none" x="432" y="159" width="49" height="24"/></g><g transform="translate(-86,-54) scale(1,1)"><path fill="none" stroke="#000000" d="M 432 159 L 481 159 L 481 183 L 432 183 L 432 159 Z Z" stroke-miterlimit="10"/></g><g transform="translate(-86,-54) scale(1,1)"><rect fill="#ffffff" stroke="none" x="432" y="144" width="19.600000000000023" height="15"/></g><g transform="translate(-86,-54) scale(1,1)"><path fill="none" stroke="#000000" d="M 432 144 L 451.6 144 L 451.6 159 L 432 159 L 432 144 Z Z" stroke-miterlimit="10"/></g><g transform="translate(-86,-54) scale(1,1)"><rect fill="#ffffff" stroke="none" x="432" y="158" width="49" height="25"/></g><g transform="translate(-86,-54) scale(1,1)"><path fill="none" stroke="#000000" d="M 432 158 L 481 158 L 481 183 L 432 183 L 432 158 Z Z" stroke-miterlimit="10"/></g><g transform="translate(-86,-54) scale(1,1)"><g><path fill="none" stroke="none"/><text fill="#000000" stroke="none" font-family="Arial" font-size="13px" font-style="normal" font-weight="bold" text-decoration="none" x="437.358642578125" y="177">model</text></g></g><g transform="translate(-86,-54) scale(1,1)"><rect fill="#C0C0C0" stroke="none" x="551" y="151" width="27.581445312500023" height="15" opacity="0.2"/></g><g transform="translate(-86,-54) scale(1,1)"><rect fill="#C0C0C0" stroke="none" x="551" y="165" width="68.95361328125" height="25" opacity="0.2"/></g><g transform="translate(-86,-54) scale(1,1)"><rect fill="#ffffff" stroke="none" x="544" y="159" width="68.95361328125" height="24"/></g><g transform="translate(-86,-54) scale(1,1)"><path fill="none" stroke="#000000" d="M 544 159 L 612.95361328125 159 L 612.95361328125 183 L 544 183 L 544 159 Z Z" stroke-miterlimit="10"/></g><g transform="translate(-86,-54) scale(1,1)"><rect fill="#ffffff" stroke="none" x="544" y="144" width="27.581445312500023" height="15"/></g><g transform="translate(-86,-54) scale(1,1)"><path fill="none" stroke="#000000" d="M 544 144 L 571.5814453125 144 L 571.5814453125 159 L 544 159 L 544 144 Z Z" stroke-miterlimit="10"/></g><g transform="translate(-86,-54) scale(1,1)"><rect fill="#ffffff" stroke="none" x="544" y="158" width="68.95361328125" height="25"/></g><g transform="translate(-86,-54) scale(1,1)"><path fill="none" stroke="#000000" d="M 544 158 L 612.95361328125 158 L 612.95361328125 183 L 544 183 L 544 158 Z Z" stroke-miterlimit="10"/></g><g transform="translate(-86,-54) scale(1,1)"><g><path fill="none" stroke="none"/><text fill="#000000" stroke="none" font-family="Arial" font-size="13px" font-style="normal" font-weight="bold" text-decoration="none" x="548.5" y="177">controller</text></g></g><g transform="translate(-86,-54) scale(1,1)"><rect fill="#C0C0C0" stroke="none" x="439" y="231" width="19.600000000000023" height="15" opacity="0.2"/></g><g transform="translate(-86,-54) scale(1,1)"><rect fill="#C0C0C0" stroke="none" x="439" y="245" width="49" height="25" opacity="0.2"/></g><g transform="translate(-86,-54) scale(1,1)"><rect fill="#ffffff" stroke="none" x="432" y="239" width="49" height="24"/></g><g transform="translate(-86,-54) scale(1,1)"><path fill="none" stroke="#000000" d="M 432 239 L 481 239 L 481 263 L 432 263 L 432 239 Z Z" stroke-miterlimit="10"/></g><g transform="translate(-86,-54) scale(1,1)"><rect fill="#ffffff" stroke="none" x="432" y="224" width="19.600000000000023" height="15"/></g><g transform="translate(-86,-54) scale(1,1)"><path fill="none" stroke="#000000" d="M 432 224 L 451.6 224 L 451.6 239 L 432 239 L 432 224 Z Z" stroke-miterlimit="10"/></g><g transform="translate(-86,-54) scale(1,1)"><rect fill="#ffffff" stroke="none" x="432" y="238" width="49" height="25"/></g><g transform="translate(-86,-54) scale(1,1)"><path fill="none" stroke="#000000" d="M 432 238 L 481 238 L 481 263 L 432 263 L 432 238 Z Z" stroke-miterlimit="10"/></g><g transform="translate(-86,-54) scale(1,1)"><g><path fill="none" stroke="none"/><text fill="#000000" stroke="none" font-family="Arial" font-size="13px" font-style="normal" font-weight="bold" text-decoration="none" x="443.135009765625" y="257">data</text></g></g><g transform="translate(-86,-54) scale(1,1)"><rect fill="#C0C0C0" stroke="none" x="679" y="151" width="19.600000000000023" height="15" opacity="0.2"/></g><g transform="translate(-86,-54) scale(1,1)"><rect fill="#C0C0C0" stroke="none" x="679" y="165" width="49" height="25" opacity="0.2"/></g><g transform="translate(-86,-54) scale(1,1)"><rect fill="#ffffff" stroke="none" x="672" y="159" width="49" height="24"/></g><g transform="translate(-86,-54) scale(1,1)"><path fill="none" stroke="#000000" d="M 672 159 L 721 159 L 721 183 L 672 183 L 672 159 Z Z" stroke-miterlimit="10"/></g><g transform="translate(-86,-54) scale(1,1)"><rect fill="#ffffff" stroke="none" x="672" y="144" width="19.600000000000023" height="15"/></g><g transform="translate(-86,-54) scale(1,1)"><path fill="none" stroke="#000000" d="M 672 144 L 691.6 144 L 691.6 159 L 672 159 L 672 144 Z Z" stroke-miterlimit="10"/></g><g transform="translate(-86,-54) scale(1,1)"><rect fill="#ffffff" stroke="none" x="672" y="158" width="49" height="25"/></g><g transform="translate(-86,-54) scale(1,1)"><path fill="none" stroke="#000000" d="M 672 158 L 721 158 L 721 183 L 672 183 L 672 158 Z Z" stroke-miterlimit="10"/></g><g transform="translate(-86,-54) scale(1,1)"><g><path fill="none" stroke="none"/><text fill="#000000" stroke="none" font-family="Arial" font-size="13px" font-style="normal" font-weight="bold" text-decoration="none" x="682.408203125" y="177">view</text></g></g><g transform="translate(-86,-54) scale(1,1)"><path fill="#ffffff" stroke="none" d="M 872 152 L 973 152 L 983 162 L 983 201 L 872 201 L 872 152"/></g><g transform="translate(-86,-54) scale(1,1)"><path fill="none" stroke="#000000" d="M 872 152 L 973 152 L 983 162 L 983 201 L 872 201 L 872 152 L 872 152" stroke-miterlimit="10"/></g><g transform="translate(-86,-54) scale(1,1)"><path fill="none" stroke="#000000" d="M 973 152 L 973 162 L 983 162 L 973 152" stroke-miterlimit="10"/></g><g transform="translate(-86,-54) scale(1,1)"><g><path fill="none" stroke="none"/><text fill="#000000" stroke="none" font-family="Arial" font-size="13px" font-style="normal" font-weight="normal" text-decoration="none" x="877" y="167">Aperçu du</text><text fill="#000000" stroke="none" font-family="Arial" font-size="13px" font-style="normal" font-weight="normal" text-decoration="none" x="877" y="180">répertoire "src"</text><text fill="#000000" stroke="none" font-family="Arial" font-size="13px" font-style="normal" font-weight="normal" text-decoration="none" x="877" y="193">dans le projet</text></g></g><g transform="translate(-86,-54) scale(1,1)"><path fill="none" stroke="#000000" d="M 871 177 L 761 178" stroke-miterlimit="10" stroke-dasharray="3"/></g><g transform="translate(-86,-54) scale(1,1)"><path fill="#ffffff" stroke="none" d="M 96 168 L 269 168 L 279 178 L 279 243 L 96 243 L 96 168"/></g><g transform="translate(-86,-54) scale(1,1)"><path fill="none" stroke="#000000" d="M 96 168 L 269 168 L 279 178 L 279 243 L 96 243 L 96 168 L 96 168" stroke-miterlimit="10"/></g><g transform="translate(-86,-54) scale(1,1)"><path fill="none" stroke="#000000" d="M 269 168 L 269 178 L 279 178 L 269 168" stroke-miterlimit="10"/></g><g transform="translate(-86,-54) scale(1,1)"><g><path fill="none" stroke="none"/><text fill="#000000" stroke="none" font-family="Arial" font-size="13px" font-style="normal" font-weight="normal" text-decoration="none" x="101" y="183">Distinction entre les classes</text><text fill="#000000" stroke="none" font-family="Arial" font-size="13px" font-style="normal" font-weight="normal" text-decoration="none" x="101" y="196">modèles (spécifique à</text><text fill="#000000" stroke="none" font-family="Arial" font-size="13px" font-style="normal" font-weight="normal" text-decoration="none" x="101" y="209">l'application) et les classes</text><text fill="#000000" stroke="none" font-family="Arial" font-size="13px" font-style="normal" font-weight="normal" text-decoration="none" x="101" y="222">données (spécifique à la base</text><text fill="#000000" stroke="none" font-family="Arial" font-size="13px" font-style="normal" font-weight="normal" text-decoration="none" x="101" y="235">de données)</text></g></g><g transform="translate(-86,-54) scale(1,1)"><path fill="none" stroke="#000000" d="M 281 219 L 431 240" stroke-miterlimit="10" stroke-dasharray="3"/></g><g transform="translate(-86,-54) scale(1,1)"><path fill="none" stroke="#000000" d="M 281 191 L 431 167" stroke-miterlimit="10" stroke-dasharray="3"/></g></g></svg>