<svg version="1.1" xmlns="http://www.w3.org/2000/svg" xmlns:xlink="http://www.w3.org/1999/xlink" width="917.7314453125" height="280"><defs/><g><text fill="#eeeeee" stroke="none" font-family="Arial" font-size="24px" font-style="normal" font-weight="normal" text-decoration="none" x="0" y="0"></text><text fill="#eeeeee" stroke="none" font-family="Arial" font-size="24px" font-style="normal" font-weight="normal" text-decoration="none" x="0" y="30"></text><text fill="#eeeeee" stroke="none" font-family="Arial" font-size="24px" font-style="normal" font-weight="normal" text-decoration="none" x="0" y="60"></text><text fill="#eeeeee" stroke="none" font-family="Arial" font-size="24px" font-style="normal" font-weight="normal" text-decoration="none" x="0" y="90"></text><text fill="#eeeeee" stroke="none" font-family="Arial" font-size="24px" font-style="normal" font-weight="normal" text-decoration="none" x="0" y="120"></text><text fill="#eeeeee" stroke="none" font-family="Arial" font-size="24px" font-style="normal" font-weight="normal" text-decoration="none" x="0" y="150"></text><text fill="#eeeeee" stroke="none" font-family="Arial" font-size="24px" font-style="normal" font-weight="normal" text-decoration="none" x="0" y="180"></text><text fill="#eeeeee" stroke="none" font-family="Arial" font-size="24px" font-style="normal" font-weight="normal" text-decoration="none" x="0" y="210"></text><text fill="#eeeeee" stroke="none" font-family="Arial" font-size="24px" font-style="normal" font-weight="normal" text-decoration="none" x="0" y="240"></text><text fill="#eeeeee" stroke="none" font-family="Arial" font-size="24px" font-style="normal" font-weight="normal" text-decoration="none" x="0" y="270"></text><text fill="#eeeeee" stroke="none" font-family="Arial" font-size="24px" font-style="normal" font-weight="normal" text-decoration="none" x="200" y="0"></text><text fill="#eeeeee" stroke="none" font-family="Arial" font-size="24px" font-style="normal" font-weight="normal" text-decoration="none" x="200" y="30"></text><text fill="#eeeeee" stroke="none" font-family="Arial" font-size="24px" font-style="normal" font-weight="normal" text-decoration="none" x="200" y="60"></text><text fill="#eeeeee" stroke="none" font-family="Arial" font-size="24px" font-style="normal" font-weight="normal" text-decoration="none" x="200" y="90"></text><text fill="#eeeeee" stroke="none" font-family="Arial" font-size="24px" font-style="normal" font-weight="normal" text-decoration="none" x="200" y="120"></text><text fill="#eeeeee" stroke="none" font-family="Arial" font-size="24px" font-style="normal" font-weight="normal" text-decoration="none" x="200" y="150"></text><text fill="#eeeeee" stroke="none" font-family="Arial" font-size="24px" font-style="normal" font-weight="normal" text-decoration="none" x="200" y="180"></text><text fill="#eeeeee" stroke="none" font-family="Arial" font-size="24px" font-style="normal" font-weight="normal" text-decoration="none" x="200" y="210"></text><text fill="#eeeeee" stroke="none" font-family="Arial" font-size="24px" font-style="normal" font-weight="normal" text-decoration="none" x="200" y="240"></text><text fill="#eeeeee" stroke="none" font-family="Arial" font-size="24px" font-style="normal" font-weight="normal" text-decoration="none" x="200" y="270"></text><text fill="#eeeeee" stroke="none" font-family="Arial" font-size="24px" font-style="normal" font-weight="normal" text-decoration="none" x="400" y="0"></text><text fill="#eeeeee" stroke="none" font-family="Arial" font-size="24px" font-style="normal" font-weight="normal" text-decoration="none" x="400" y="30"></text><text fill="#eeeeee" stroke="none" font-family="Arial" font-size="24px" font-style="normal" font-weight="normal" text-decoration="none" x="400" y="60"></text><text fill="#eeeeee" stroke="none" font-family="Arial" font-size="24px" font-style="normal" font-weight="normal" text-decoration="none" x="400" y="90"></text><text fill="#eeeeee" stroke="none" font-family="Arial" font-size="24px" font-style="normal" font-weight="normal" text-decoration="none" x="400" y="120"></text><text fill="#eeeeee" stroke="none" font-family="Arial" font-size="24px" font-style="normal" font-weight="normal" text-decoration="none" x="400" y="150"></text><text fill="#eeeeee" stroke="none" font-family="Arial" font-size="24px" font-style="normal" font-weight="normal" text-decoration="none" x="400" y="180"></text><text fill="#eeeeee" stroke="none" font-family="Arial" font-size="24px" font-style="normal" font-weight="normal" text-decoration="none" x="400" y="210"></text><text fill="#eeeeee" stroke="none" font-family="Arial" font-size="24px" font-style="normal" font-weight="normal" text-decoration="none" x="400" y="240"></text><text fill="#eeeeee" stroke="none" font-family="Arial" font-size="24px" font-style="normal" font-weight="normal" text-decoration="none" x="400" y="270"></text><text fill="#eeeeee" stroke="none" font-family="Arial" font-size="24px" font-style="normal" font-weight="normal" text-decoration="none" x="600" y="0"></text><text fill="#eeeeee" stroke="none" font-family="Arial" font-size="24px" font-style="normal" font-weight="normal" text-decoration="none" x="600" y="30"></text><text fill="#eeeeee" stroke="none" font-family="Arial" font-size="24px" font-style="normal" font-weight="normal" text-decoration="none" x="600" y="60"></text><text fill="#eeeeee" stroke="none" font-family="Arial" font-size="24px" font-style="normal" font-weight="normal" text-decoration="none" x="600" y="90"></text><text fill="#eeeeee" stroke="none" font-family="Arial" font-size="24px" font-style="normal" font-weight="normal" text-decoration="none" x="600" y="120"></text><text fill="#eeeeee" stroke="none" font-family="Arial" font-size="24px" font-style="normal" font-weight="normal" text-decoration="none" x="600" y="150"></text><text fill="#eeeeee" stroke="none" font-family="Arial" font-size="24px" font-style="normal" font-weight="normal" text-decoration="none" x="600" y="180"></text><text fill="#eeeeee" stroke="none" font-family="Arial" font-size="24px" font-style="normal" font-weight="normal" text-decoration="none" x="600" y="210"></text><text fill="#eeeeee" stroke="none" font-family="Arial" font-size="24px" font-style="normal" font-weight="normal" text-decoration="none" x="600" y="240"></text><text fill="#eeeeee" stroke="none" font-family="Arial" font-size="24px" font-style="normal" font-weight="normal" text-decoration="none" x="600" y="270"></text><text fill="#eeeeee" stroke="none" font-family="Arial" font-size="24px" font-style="normal" font-weight="normal" text-decoration="none" x="800" y="0"></text><text fill="#eeeeee" stroke="none" font-family="Arial" font-size="24px" font-style="normal" font-weight="normal" text-decoration="none" x="800" y="30"></text><text fill="#eeeeee" stroke="none" font-family="Arial" font-size="24px" font-style="normal" font-weight="normal" text-decoration="none" x="800" y="60"></text><text fill="#eeeeee" stroke="none" font-family="Arial" font-size="24px" font-style="normal" font-weight="normal" text-decoration="none" x="800" y="90"></text><text fill="#eeeeee" stroke="none" font-family="Arial" font-size="24px" font-style="normal" font-weight="normal" text-decoration="none" x="800" y="120"></text><text fill="#eeeeee" stroke="none" font-family="Arial" font-size="24px" font-style="normal" font-weight="normal" text-decoration="none" x="800" y="150"></text><text fill="#eeeeee" stroke="none" font-family="Arial" font-size="24px" font-style="normal" font-weight="normal" text-decoration="none" x="800" y="180"></text><text fill="#eeeeee" stroke="none" font-family="Arial" font-size="24px" font-style="normal" font-weight="normal" text-decoration="none" x="800" y="210"></text><text fill="#eeeeee" stroke="none" font-family="Arial" font-size="24px" font-style="normal" font-weight="normal" text-decoration="none" x="800" y="240"></text><text fill="#eeeeee" stroke="none" font-family="Arial" font-size="24px" font-style="normal" font-weight="normal" text-decoration="none" x="800" y="270"></text><g transform="translate(-78,-78) scale(1,1)"><rect fill="#C0C0C0" stroke="none" x="95" y="95" width="231.91064453125" height="87" opacity="0.2"/></g><g transform="translate(-78,-78) scale(1,1)"><rect fill="#ffffff" stroke="none" x="88" y="88" width="231.91064453125" height="87"/></g><g transform="translate(-78,-78) scale(1,1)"><path fill="none" stroke="#000000" d="M 88 88 L 319.91064453125 88 L 319.91064453125 175 L 88 175 L 88 88 Z Z" stroke-miterlimit="10"/></g><g transform="translate(-78,-78) scale(1,1)"><path fill="none" stroke="#000000" d="M 88 113 L 319.91064453125 113" stroke-miterlimit="10"/></g><g transform="translate(-78,-78) scale(1,1)"><path fill="none" stroke="#000000" d="M 88 166 L 319.91064453125 166" stroke-miterlimit="10"/></g><g transform="translate(-78,-78) scale(1,1)"><g><path fill="none" stroke="none"/><text fill="#000000" stroke="none" font-family="Arial" font-size="13px" font-style="normal" font-weight="bold" text-decoration="none" x="155.67822265625" y="106">ConnexionView</text></g></g><g transform="translate(-78,-78) scale(1,1)"><g><path fill="none" stroke="none"/><text fill="#000000" stroke="none" font-family="Arial" font-size="13px" font-style="normal" font-weight="normal" text-decoration="none" x="93" y="129">-identifiantTextField: TextField</text></g></g><g transform="translate(-78,-78) scale(1,1)"><g><path fill="none" stroke="none"/><text fill="#000000" stroke="none" font-family="Arial" font-size="13px" font-style="normal" font-weight="normal" text-decoration="none" x="93" y="144">-motdepasseTextField: PasswordField</text></g></g><g transform="translate(-78,-78) scale(1,1)"><g><path fill="none" stroke="none"/><text fill="#000000" stroke="none" font-family="Arial" font-size="13px" font-style="normal" font-weight="normal" text-decoration="none" x="93" y="159">-connexionButton: Button</text></g></g><g transform="translate(-78,-78) scale(1,1)"><rect fill="#C0C0C0" stroke="none" x="247" y="311" width="133.49658203125" height="44" opacity="0.2"/></g><g transform="translate(-78,-78) scale(1,1)"><rect fill="#ffffff" stroke="none" x="240" y="304" width="133.49658203125" height="44"/></g><g transform="translate(-78,-78) scale(1,1)"><path fill="none" stroke="#000000" d="M 240 304 L 373.49658203125 304 L 373.49658203125 348 L 240 348 L 240 304 Z Z" stroke-miterlimit="10"/></g><g transform="translate(-78,-78) scale(1,1)"><path fill="none" stroke="#000000" d="M 240 329 L 373.49658203125 329" stroke-miterlimit="10"/></g><g transform="translate(-78,-78) scale(1,1)"><path fill="none" stroke="#000000" d="M 240 339 L 373.49658203125 339" stroke-miterlimit="10"/></g><g transform="translate(-78,-78) scale(1,1)"><g><path fill="none" stroke="none"/><text fill="#000000" stroke="none" font-family="Arial" font-size="13px" font-style="normal" font-weight="bold" text-decoration="none" x="245.947265625" y="322">TableaudebordView</text></g></g><g transform="translate(-78,-78) scale(1,1)"><rect fill="#C0C0C0" stroke="none" x="567" y="311" width="116.40869140625" height="44" opacity="0.2"/></g><g transform="translate(-78,-78) scale(1,1)"><rect fill="#ffffff" stroke="none" x="560" y="304" width="116.40869140625" height="44"/></g><g transform="translate(-78,-78) scale(1,1)"><path fill="none" stroke="#000000" d="M 560 304 L 676.40869140625 304 L 676.40869140625 348 L 560 348 L 560 304 Z Z" stroke-miterlimit="10"/></g><g transform="translate(-78,-78) scale(1,1)"><path fill="none" stroke="#000000" d="M 560 329 L 676.40869140625 329" stroke-miterlimit="10"/></g><g transform="translate(-78,-78) scale(1,1)"><path fill="none" stroke="#000000" d="M 560 339 L 676.40869140625 339" stroke-miterlimit="10"/></g><g transform="translate(-78,-78) scale(1,1)"><g><path fill="none" stroke="none"/><text fill="#000000" stroke="none" font-family="Arial" font-size="13px" font-style="normal" font-weight="bold" text-decoration="none" x="564.5" y="322">CommandesView</text></g></g><g transform="translate(-78,-78) scale(1,1)"><rect fill="#C0C0C0" stroke="none" x="479" y="135" width="95.9375" height="44" opacity="0.2"/></g><g transform="translate(-78,-78) scale(1,1)"><rect fill="#ffffff" stroke="none" x="472" y="128" width="95.9375" height="44"/></g><g transform="translate(-78,-78) scale(1,1)"><path fill="none" stroke="#000000" d="M 472 128 L 567.9375 128 L 567.9375 172 L 472 172 L 472 128 Z Z" stroke-miterlimit="10"/></g><g transform="translate(-78,-78) scale(1,1)"><path fill="none" stroke="#000000" d="M 472 153 L 567.9375 153" stroke-miterlimit="10"/></g><g transform="translate(-78,-78) scale(1,1)"><path fill="none" stroke="#000000" d="M 472 163 L 567.9375 163" stroke-miterlimit="10"/></g><g transform="translate(-78,-78) scale(1,1)"><g><path fill="none" stroke="none"/><text fill="#000000" stroke="none" font-family="Arial" font-size="13px" font-style="normal" font-weight="bold" text-decoration="none" x="476.5" y="146">TourneesView</text></g></g><g transform="translate(-78,-78) scale(1,1)"><rect fill="#C0C0C0" stroke="none" x="911" y="279" width="81.7314453125" height="44" opacity="0.2"/></g><g transform="translate(-78,-78) scale(1,1)"><rect fill="#ffffff" stroke="none" x="904" y="272" width="81.7314453125" height="44"/></g><g transform="translate(-78,-78) scale(1,1)"><path fill="none" stroke="#000000" d="M 904 272 L 985.7314453125 272 L 985.7314453125 316 L 904 316 L 904 272 Z Z" stroke-miterlimit="10"/></g><g transform="translate(-78,-78) scale(1,1)"><path fill="none" stroke="#000000" d="M 904 297 L 985.7314453125 297" stroke-miterlimit="10"/></g><g transform="translate(-78,-78) scale(1,1)"><path fill="none" stroke="#000000" d="M 904 307 L 985.7314453125 307" stroke-miterlimit="10"/></g><g transform="translate(-78,-78) scale(1,1)"><g><path fill="none" stroke="none"/><text fill="#000000" stroke="none" font-family="Arial" font-size="13px" font-style="normal" font-weight="bold" text-decoration="none" x="908.5" y="290">ClientsView</text></g></g><g transform="translate(-78,-78) scale(1,1)"><rect fill="#C0C0C0" stroke="none" x="775" y="127" width="86.77783203125" height="44" opacity="0.2"/></g><g transform="translate(-78,-78) scale(1,1)"><rect fill="#ffffff" stroke="none" x="768" y="120" width="86.77783203125" height="44"/></g><g transform="translate(-78,-78) scale(1,1)"><path fill="none" stroke="#000000" d="M 768 120 L 854.77783203125 120 L 854.77783203125 164 L 768 164 L 768 120 Z Z" stroke-miterlimit="10"/></g><g transform="translate(-78,-78) scale(1,1)"><path fill="none" stroke="#000000" d="M 768 145 L 854.77783203125 145" stroke-miterlimit="10"/></g><g transform="translate(-78,-78) scale(1,1)"><path fill="none" stroke="#000000" d="M 768 155 L 854.77783203125 155" stroke-miterlimit="10"/></g><g transform="translate(-78,-78) scale(1,1)"><g><path fill="none" stroke="none"/><text fill="#000000" stroke="none" font-family="Arial" font-size="13px" font-style="normal" font-weight="bold" text-decoration="none" x="772.5" y="138">CompteView</text></g></g></g></svg>