<svg version="1.1" xmlns="http://www.w3.org/2000/svg" xmlns:xlink="http://www.w3.org/1999/xlink" width="678.67578125" height="572"><defs/><g><text fill="#eeeeee" stroke="none" font-family="Arial" font-size="24px" font-style="normal" font-weight="normal" text-decoration="none" x="0" y="0"></text><text fill="#eeeeee" stroke="none" font-family="Arial" font-size="24px" font-style="normal" font-weight="normal" text-decoration="none" x="0" y="30"></text><text fill="#eeeeee" stroke="none" font-family="Arial" font-size="24px" font-style="normal" font-weight="normal" text-decoration="none" x="0" y="60"></text><text fill="#eeeeee" stroke="none" font-family="Arial" font-size="24px" font-style="normal" font-weight="normal" text-decoration="none" x="0" y="90"></text><text fill="#eeeeee" stroke="none" font-family="Arial" font-size="24px" font-style="normal" font-weight="normal" text-decoration="none" x="0" y="120"></text><text fill="#eeeeee" stroke="none" font-family="Arial" font-size="24px" font-style="normal" font-weight="normal" text-decoration="none" x="0" y="150"></text><text fill="#eeeeee" stroke="none" font-family="Arial" font-size="24px" font-style="normal" font-weight="normal" text-decoration="none" x="0" y="180"></text><text fill="#eeeeee" stroke="none" font-family="Arial" font-size="24px" font-style="normal" font-weight="normal" text-decoration="none" x="0" y="210"></text><text fill="#eeeeee" stroke="none" font-family="Arial" font-size="24px" font-style="normal" font-weight="normal" text-decoration="none" x="0" y="240"></text><text fill="#eeeeee" stroke="none" font-family="Arial" font-size="24px" font-style="normal" font-weight="normal" text-decoration="none" x="0" y="270"></text><text fill="#eeeeee" stroke="none" font-family="Arial" font-size="24px" font-style="normal" font-weight="normal" text-decoration="none" x="0" y="300"></text><text fill="#eeeeee" stroke="none" font-family="Arial" font-size="24px" font-style="normal" font-weight="normal" text-decoration="none" x="0" y="330"></text><text fill="#eeeeee" stroke="none" font-family="Arial" font-size="24px" font-style="normal" font-weight="normal" text-decoration="none" x="0" y="360"></text><text fill="#eeeeee" stroke="none" font-family="Arial" font-size="24px" font-style="normal" font-weight="normal" text-decoration="none" x="0" y="390"></text><text fill="#eeeeee" stroke="none" font-family="Arial" font-size="24px" font-style="normal" font-weight="normal" text-decoration="none" x="0" y="420"></text><text fill="#eeeeee" stroke="none" font-family="Arial" font-size="24px" font-style="normal" font-weight="normal" text-decoration="none" x="0" y="450"></text><text fill="#eeeeee" stroke="none" font-family="Arial" font-size="24px" font-style="normal" font-weight="normal" text-decoration="none" x="0" y="480"></text><text fill="#eeeeee" stroke="none" font-family="Arial" font-size="24px" font-style="normal" font-weight="normal" text-decoration="none" x="0" y="510"></text><text fill="#eeeeee" stroke="none" font-family="Arial" font-size="24px" font-style="normal" font-weight="normal" text-decoration="none" x="0" y="540"></text><text fill="#eeeeee" stroke="none" font-family="Arial" font-size="24px" font-style="normal" font-weight="normal" text-decoration="none" x="0" y="570"></text><text fill="#eeeeee" stroke="none" font-family="Arial" font-size="24px" font-style="normal" font-weight="normal" text-decoration="none" x="200" y="0"></text><text fill="#eeeeee" stroke="none" font-family="Arial" font-size="24px" font-style="normal" font-weight="normal" text-decoration="none" x="200" y="30"></text><text fill="#eeeeee" stroke="none" font-family="Arial" font-size="24px" font-style="normal" font-weight="normal" text-decoration="none" x="200" y="60"></text><text fill="#eeeeee" stroke="none" font-family="Arial" font-size="24px" font-style="normal" font-weight="normal" text-decoration="none" x="200" y="90"></text><text fill="#eeeeee" stroke="none" font-family="Arial" font-size="24px" font-style="normal" font-weight="normal" text-decoration="none" x="200" y="120"></text><text fill="#eeeeee" stroke="none" font-family="Arial" font-size="24px" font-style="normal" font-weight="normal" text-decoration="none" x="200" y="150"></text><text fill="#eeeeee" stroke="none" font-family="Arial" font-size="24px" font-style="normal" font-weight="normal" text-decoration="none" x="200" y="180"></text><text fill="#eeeeee" stroke="none" font-family="Arial" font-size="24px" font-style="normal" font-weight="normal" text-decoration="none" x="200" y="210"></text><text fill="#eeeeee" stroke="none" font-family="Arial" font-size="24px" font-style="normal" font-weight="normal" text-decoration="none" x="200" y="240"></text><text fill="#eeeeee" stroke="none" font-family="Arial" font-size="24px" font-style="normal" font-weight="normal" text-decoration="none" x="200" y="270"></text><text fill="#eeeeee" stroke="none" font-family="Arial" font-size="24px" font-style="normal" font-weight="normal" text-decoration="none" x="200" y="300"></text><text fill="#eeeeee" stroke="none" font-family="Arial" font-size="24px" font-style="normal" font-weight="normal" text-decoration="none" x="200" y="330"></text><text fill="#eeeeee" stroke="none" font-family="Arial" font-size="24px" font-style="normal" font-weight="normal" text-decoration="none" x="200" y="360"></text><text fill="#eeeeee" stroke="none" font-family="Arial" font-size="24px" font-style="normal" font-weight="normal" text-decoration="none" x="200" y="390"></text><text fill="#eeeeee" stroke="none" font-family="Arial" font-size="24px" font-style="normal" font-weight="normal" text-decoration="none" x="200" y="420"></text><text fill="#eeeeee" stroke="none" font-family="Arial" font-size="24px" font-style="normal" font-weight="normal" text-decoration="none" x="200" y="450"></text><text fill="#eeeeee" stroke="none" font-family="Arial" font-size="24px" font-style="normal" font-weight="normal" text-decoration="none" x="200" y="480"></text><text fill="#eeeeee" stroke="none" font-family="Arial" font-size="24px" font-style="normal" font-weight="normal" text-decoration="none" x="200" y="510"></text><text fill="#eeeeee" stroke="none" font-family="Arial" font-size="24px" font-style="normal" font-weight="normal" text-decoration="none" x="200" y="540"></text><text fill="#eeeeee" stroke="none" font-family="Arial" font-size="24px" font-style="normal" font-weight="normal" text-decoration="none" x="200" y="570"></text><text fill="#eeeeee" stroke="none" font-family="Arial" font-size="24px" font-style="normal" font-weight="normal" text-decoration="none" x="400" y="0"></text><text fill="#eeeeee" stroke="none" font-family="Arial" font-size="24px" font-style="normal" font-weight="normal" text-decoration="none" x="400" y="30"></text><text fill="#eeeeee" stroke="none" font-family="Arial" font-size="24px" font-style="normal" font-weight="normal" text-decoration="none" x="400" y="60"></text><text fill="#eeeeee" stroke="none" font-family="Arial" font-size="24px" font-style="normal" font-weight="normal" text-decoration="none" x="400" y="90"></text><text fill="#eeeeee" stroke="none" font-family="Arial" font-size="24px" font-style="normal" font-weight="normal" text-decoration="none" x="400" y="120"></text><text fill="#eeeeee" stroke="none" font-family="Arial" font-size="24px" font-style="normal" font-weight="normal" text-decoration="none" x="400" y="150"></text><text fill="#eeeeee" stroke="none" font-family="Arial" font-size="24px" font-style="normal" font-weight="normal" text-decoration="none" x="400" y="180"></text><text fill="#eeeeee" stroke="none" font-family="Arial" font-size="24px" font-style="normal" font-weight="normal" text-decoration="none" x="400" y="210"></text><text fill="#eeeeee" stroke="none" font-family="Arial" font-size="24px" font-style="normal" font-weight="normal" text-decoration="none" x="400" y="240"></text><text fill="#eeeeee" stroke="none" font-family="Arial" font-size="24px" font-style="normal" font-weight="normal" text-decoration="none" x="400" y="270"></text><text fill="#eeeeee" stroke="none" font-family="Arial" font-size="24px" font-style="normal" font-weight="normal" text-decoration="none" x="400" y="300"></text><text fill="#eeeeee" stroke="none" font-family="Arial" font-size="24px" font-style="normal" font-weight="normal" text-decoration="none" x="400" y="330"></text><text fill="#eeeeee" stroke="none" font-family="Arial" font-size="24px" font-style="normal" font-weight="normal" text-decoration="none" x="400" y="360"></text><text fill="#eeeeee" stroke="none" font-family="Arial" font-size="24px" font-style="normal" font-weight="normal" text-decoration="none" x="400" y="390"></text><text fill="#eeeeee" stroke="none" font-family="Arial" font-size="24px" font-style="normal" font-weight="normal" text-decoration="none" x="400" y="420"></text><text fill="#eeeeee" stroke="none" font-family="Arial" font-size="24px" font-style="normal" font-weight="normal" text-decoration="none" x="400" y="450"></text><text fill="#eeeeee" stroke="none" font-family="Arial" font-size="24px" font-style="normal" font-weight="normal" text-decoration="none" x="400" y="480"></text><text fill="#eeeeee" stroke="none" font-family="Arial" font-size="24px" font-style="normal" font-weight="normal" text-decoration="none" x="400" y="510"></text><text fill="#eeeeee" stroke="none" font-family="Arial" font-size="24px" font-style="normal" font-weight="normal" text-decoration="none" x="400" y="540"></text><text fill="#eeeeee" stroke="none" font-family="Arial" font-size="24px" font-style="normal" font-weight="normal" text-decoration="none" x="400" y="570"></text><text fill="#eeeeee" stroke="none" font-family="Arial" font-size="24px" font-style="normal" font-weight="normal" text-decoration="none" x="600" y="0"></text><text fill="#eeeeee" stroke="none" font-family="Arial" font-size="24px" font-style="normal" font-weight="normal" text-decoration="none" x="600" y="30"></text><text fill="#eeeeee" stroke="none" font-family="Arial" font-size="24px" font-style="normal" font-weight="normal" text-decoration="none" x="600" y="60"></text><text fill="#eeeeee" stroke="none" font-family="Arial" font-size="24px" font-style="normal" font-weight="normal" text-decoration="none" x="600" y="90"></text><text fill="#eeeeee" stroke="none" font-family="Arial" font-size="24px" font-style="normal" font-weight="normal" text-decoration="none" x="600" y="120"></text><text fill="#eeeeee" stroke="none" font-family="Arial" font-size="24px" font-style="normal" font-weight="normal" text-decoration="none" x="600" y="150"></text><text fill="#eeeeee" stroke="none" font-family="Arial" font-size="24px" font-style="normal" font-weight="normal" text-decoration="none" x="600" y="180"></text><text fill="#eeeeee" stroke="none" font-family="Arial" font-size="24px" font-style="normal" font-weight="normal" text-decoration="none" x="600" y="210"></text><text fill="#eeeeee" stroke="none" font-family="Arial" font-size="24px" font-style="normal" font-weight="normal" text-decoration="none" x="600" y="240"></text><text fill="#eeeeee" stroke="none" font-family="Arial" font-size="24px" font-style="normal" font-weight="normal" text-decoration="none" x="600" y="270"></text><text fill="#eeeeee" stroke="none" font-family="Arial" font-size="24px" font-style="normal" font-weight="normal" text-decoration="none" x="600" y="300"></text><text fill="#eeeeee" stroke="none" font-family="Arial" font-size="24px" font-style="normal" font-weight="normal" text-decoration="none" x="600" y="330"></text><text fill="#eeeeee" stroke="none" font-family="Arial" font-size="24px" font-style="normal" font-weight="normal" text-decoration="none" x="600" y="360"></text><text fill="#eeeeee" stroke="none" font-family="Arial" font-size="24px" font-style="normal" font-weight="normal" text-decoration="none" x="600" y="390"></text><text fill="#eeeeee" stroke="none" font-family="Arial" font-size="24px" font-style="normal" font-weight="normal" text-decoration="none" x="600" y="420"></text><text fill="#eeeeee" stroke="none" font-family="Arial" font-size="24px" font-style="normal" font-weight="normal" text-decoration="none" x="600" y="450"></text><text fill="#eeeeee" stroke="none" font-family="Arial" font-size="24px" font-style="normal" font-weight="normal" text-decoration="none" x="600" y="480"></text><text fill="#eeeeee" stroke="none" font-family="Arial" font-size="24px" font-style="normal" font-weight="normal" text-decoration="none" x="600" y="510"></text><text fill="#eeeeee" stroke="none" font-family="Arial" font-size="24px" font-style="normal" font-weight="normal" text-decoration="none" x="600" y="540"></text><text fill="#eeeeee" stroke="none" font-family="Arial" font-size="24px" font-style="normal" font-weight="normal" text-decoration="none" x="600" y="570"></text><g transform="translate(-222,-30) scale(1,1)"><rect fill="#C0C0C0" stroke="none" x="239" y="47" width="130.60205078125" height="59" opacity="0.2"/></g><g transform="translate(-222,-30) scale(1,1)"><rect fill="#ffffff" stroke="none" x="232" y="40" width="130.60205078125" height="59"/></g><g transform="translate(-222,-30) scale(1,1)"><path fill="none" stroke="#000000" d="M 232 40 L 362.60205078125 40 L 362.60205078125 99 L 232 99 L 232 40 Z Z" stroke-miterlimit="10"/></g><g transform="translate(-222,-30) scale(1,1)"><path fill="none" stroke="#000000" d="M 232 80 L 362.60205078125 80" stroke-miterlimit="10"/></g><g transform="translate(-222,-30) scale(1,1)"><path fill="none" stroke="#000000" d="M 232 90 L 362.60205078125 90" stroke-miterlimit="10"/></g><g transform="translate(-222,-30) scale(1,1)"><g><path fill="none" stroke="none"/><text fill="#000000" stroke="none" font-family="Arial" font-size="13px" font-style="normal" font-weight="bold" text-decoration="none" x="236.5" y="58">TableaudebordView</text></g></g><g transform="translate(-222,-30) scale(1,1)"><g><path fill="none" stroke="none"/><text fill="#000000" stroke="none" font-family="Arial" font-size="13px" font-style="normal" font-weight="normal" text-decoration="none" x="265.162841796875" y="73">(from view)</text></g></g><g transform="translate(-222,-30) scale(1,1)"><rect fill="#C0C0C0" stroke="none" x="822" y="63" width="81.7314453125" height="39" opacity="0.2"/></g><g transform="translate(-222,-30) scale(1,1)"><rect fill="#ffffff" stroke="none" x="815" y="56" width="81.7314453125" height="39"/></g><g transform="translate(-222,-30) scale(1,1)"><path fill="none" stroke="#000000" d="M 815 56 L 896.7314453125 56 L 896.7314453125 95 L 815 95 L 815 56 Z Z" stroke-miterlimit="10"/></g><g transform="translate(-222,-30) scale(1,1)"><g><path fill="none" stroke="none"/><text fill="#000000" stroke="none" font-family="Arial" font-size="13px" font-style="normal" font-weight="bold" text-decoration="none" x="819.5" y="74">ClientsView</text></g></g><g transform="translate(-222,-30) scale(1,1)"><g><path fill="none" stroke="none"/><text fill="#000000" stroke="none" font-family="Arial" font-size="13px" font-style="normal" font-weight="normal" text-decoration="none" x="823.7275390625" y="89">(from view)</text></g></g><g transform="translate(-222,-30) scale(1,1)"><rect fill="#C0C0C0" stroke="none" x="408" y="63" width="116.40869140625" height="39" opacity="0.2"/></g><g transform="translate(-222,-30) scale(1,1)"><rect fill="#ffffff" stroke="none" x="401" y="56" width="116.40869140625" height="39"/></g><g transform="translate(-222,-30) scale(1,1)"><path fill="none" stroke="#000000" d="M 401 56 L 517.40869140625 56 L 517.40869140625 95 L 401 95 L 401 56 Z Z" stroke-miterlimit="10"/></g><g transform="translate(-222,-30) scale(1,1)"><g><path fill="none" stroke="none"/><text fill="#000000" stroke="none" font-family="Arial" font-size="13px" font-style="normal" font-weight="bold" text-decoration="none" x="405.5" y="74">CommandesView</text></g></g><g transform="translate(-222,-30) scale(1,1)"><g><path fill="none" stroke="none"/><text fill="#000000" stroke="none" font-family="Arial" font-size="13px" font-style="normal" font-weight="normal" text-decoration="none" x="427.066162109375" y="89">(from view)</text></g></g><g transform="translate(-222,-30) scale(1,1)"><rect fill="#C0C0C0" stroke="none" x="563" y="63" width="95.9375" height="39" opacity="0.2"/></g><g transform="translate(-222,-30) scale(1,1)"><rect fill="#ffffff" stroke="none" x="556" y="56" width="95.9375" height="39"/></g><g transform="translate(-222,-30) scale(1,1)"><path fill="none" stroke="#000000" d="M 556 56 L 651.9375 56 L 651.9375 95 L 556 95 L 556 56 Z Z" stroke-miterlimit="10"/></g><g transform="translate(-222,-30) scale(1,1)"><g><path fill="none" stroke="none"/><text fill="#000000" stroke="none" font-family="Arial" font-size="13px" font-style="normal" font-weight="bold" text-decoration="none" x="560.5" y="74">TourneesView</text></g></g><g transform="translate(-222,-30) scale(1,1)"><g><path fill="none" stroke="none"/><text fill="#000000" stroke="none" font-family="Arial" font-size="13px" font-style="normal" font-weight="normal" text-decoration="none" x="571.83056640625" y="89">(from view)</text></g></g><g transform="translate(-222,-30) scale(1,1)"><rect fill="#C0C0C0" stroke="none" x="697" y="63" width="86.77783203125" height="39" opacity="0.2"/></g><g transform="translate(-222,-30) scale(1,1)"><rect fill="#ffffff" stroke="none" x="690" y="56" width="86.77783203125" height="39"/></g><g transform="translate(-222,-30) scale(1,1)"><path fill="none" stroke="#000000" d="M 690 56 L 776.77783203125 56 L 776.77783203125 95 L 690 95 L 690 56 Z Z" stroke-miterlimit="10"/></g><g transform="translate(-222,-30) scale(1,1)"><g><path fill="none" stroke="none"/><text fill="#000000" stroke="none" font-family="Arial" font-size="13px" font-style="normal" font-weight="bold" text-decoration="none" x="694.5" y="74">CompteView</text></g></g><g transform="translate(-222,-30) scale(1,1)"><g><path fill="none" stroke="none"/><text fill="#000000" stroke="none" font-family="Arial" font-size="13px" font-style="normal" font-weight="normal" text-decoration="none" x="701.250732421875" y="89">(from view)</text></g></g><g transform="translate(-222,-30) scale(1,1)"><rect fill="#C0C0C0" stroke="none" x="407" y="239" width="301.3095703125" height="205" opacity="0.2"/></g><g transform="translate(-222,-30) scale(1,1)"><rect fill="#ffffff" stroke="none" x="400" y="232" width="301.3095703125" height="205"/></g><g transform="translate(-222,-30) scale(1,1)"><path fill="none" stroke="#000000" d="M 400 232 L 701.3095703125 232 L 701.3095703125 437 L 400 437 L 400 232 Z Z" stroke-miterlimit="10"/></g><g transform="translate(-222,-30) scale(1,1)"><path fill="none" stroke="#000000" d="M 400 272 L 701.3095703125 272" stroke-miterlimit="10"/></g><g transform="translate(-222,-30) scale(1,1)"><path fill="none" stroke="#000000" d="M 400 370 L 701.3095703125 370" stroke-miterlimit="10"/></g><g transform="translate(-222,-30) scale(1,1)"><g><path fill="none" stroke="none"/><text fill="#000000" stroke="none" font-family="Arial" font-size="13px" font-style="normal" font-weight="bold" text-decoration="none" x="491.9072265625" y="250">TableauDeBordCtrl</text></g></g><g transform="translate(-222,-30) scale(1,1)"><g><path fill="none" stroke="none"/><text fill="#000000" stroke="none" font-family="Arial" font-size="13px" font-style="normal" font-weight="normal" text-decoration="none" x="504.78662109375" y="265">(from controller)</text></g></g><g transform="translate(-222,-30) scale(1,1)"><g><path fill="none" stroke="none"/><text fill="#000000" stroke="none" font-family="Arial" font-size="13px" font-style="normal" font-weight="normal" text-decoration="none" x="405" y="288">-listeTourneesCourantes: ListeTourneesCourantes</text></g></g><g transform="translate(-222,-30) scale(1,1)"><g><path fill="none" stroke="none"/><text fill="#000000" stroke="none" font-family="Arial" font-size="13px" font-style="normal" font-weight="normal" text-decoration="none" x="405" y="303">-tableaudebordView: TableaudebordView</text></g></g><g transform="translate(-222,-30) scale(1,1)"><g><path fill="none" stroke="none"/><text fill="#000000" stroke="none" font-family="Arial" font-size="13px" font-style="normal" font-weight="normal" text-decoration="none" x="405" y="318">-commandesView: CommandesView</text></g></g><g transform="translate(-222,-30) scale(1,1)"><g><path fill="none" stroke="none"/><text fill="#000000" stroke="none" font-family="Arial" font-size="13px" font-style="normal" font-weight="normal" text-decoration="none" x="405" y="333">-tourneesView: TourneesView</text></g></g><g transform="translate(-222,-30) scale(1,1)"><g><path fill="none" stroke="none"/><text fill="#000000" stroke="none" font-family="Arial" font-size="13px" font-style="normal" font-weight="normal" text-decoration="none" x="405" y="348">-compteView: CompteView</text></g></g><g transform="translate(-222,-30) scale(1,1)"><g><path fill="none" stroke="none"/><text fill="#000000" stroke="none" font-family="Arial" font-size="13px" font-style="normal" font-weight="normal" text-decoration="none" x="405" y="363">-clientsView: ClientsView</text></g></g><g transform="translate(-222,-30) scale(1,1)"><g><path fill="none" stroke="none"/><text fill="#000000" stroke="none" font-family="Arial" font-size="13px" font-style="normal" font-weight="normal" text-decoration="none" x="405" y="386">+menuCommandesClick()</text></g></g><g transform="translate(-222,-30) scale(1,1)"><g><path fill="none" stroke="none"/><text fill="#000000" stroke="none" font-family="Arial" font-size="13px" font-style="normal" font-weight="normal" text-decoration="none" x="405" y="401">+menuTourneesClick()</text></g></g><g transform="translate(-222,-30) scale(1,1)"><g><path fill="none" stroke="none"/><text fill="#000000" stroke="none" font-family="Arial" font-size="13px" font-style="normal" font-weight="normal" text-decoration="none" x="405" y="416">+menuCompteClick()</text></g></g><g transform="translate(-222,-30) scale(1,1)"><g><path fill="none" stroke="none"/><text fill="#000000" stroke="none" font-family="Arial" font-size="13px" font-style="normal" font-weight="normal" text-decoration="none" x="405" y="431">+menuClientsClick()</text></g></g><g transform="translate(-222,-30) scale(1,1)"><rect fill="#C0C0C0" stroke="none" x="471" y="527" width="184.59521484375" height="72" opacity="0.2"/></g><g transform="translate(-222,-30) scale(1,1)"><rect fill="#ffffff" stroke="none" x="464" y="520" width="184.59521484375" height="72"/></g><g transform="translate(-222,-30) scale(1,1)"><path fill="none" stroke="#000000" d="M 464 520 L 648.59521484375 520 L 648.59521484375 592 L 464 592 L 464 520 Z Z" stroke-miterlimit="10"/></g><g transform="translate(-222,-30) scale(1,1)"><path fill="none" stroke="#000000" d="M 464 560 L 648.59521484375 560" stroke-miterlimit="10"/></g><g transform="translate(-222,-30) scale(1,1)"><path fill="none" stroke="#000000" d="M 464 583 L 648.59521484375 583" stroke-miterlimit="10"/></g><g transform="translate(-222,-30) scale(1,1)"><g><path fill="none" stroke="none"/><text fill="#000000" stroke="none" font-family="Arial" font-size="13px" font-style="normal" font-weight="bold" text-decoration="none" x="480.208251953125" y="538">ListeTourneesCourantes</text></g></g><g transform="translate(-222,-30) scale(1,1)"><g><path fill="none" stroke="none"/><text fill="#000000" stroke="none" font-family="Arial" font-size="13px" font-style="normal" font-weight="normal" text-decoration="none" x="519.458984375" y="553">(from model)</text></g></g><g transform="translate(-222,-30) scale(1,1)"><g><path fill="none" stroke="none"/><text fill="#000000" stroke="none" font-family="Arial" font-size="13px" font-style="normal" font-weight="normal" text-decoration="none" x="469" y="576">-tournees: ArrayList&lt;Tournee&gt;</text></g></g><g transform="translate(-222,-30) scale(1,1)"><path fill="none" stroke="#000000" d="M 327 100 L 452 231" stroke-miterlimit="10"/></g><g transform="translate(-222,-30) scale(1,1)"><path fill="#FFFFFF" stroke="none" d="M 441.9387487405828 226.5535156477419 L 452 231 L 448.02976024516596 220.74148176932286 L 436.81242356770167 215.08341989895138"/></g><g transform="translate(-222,-30) scale(1,1)"><path fill="none" stroke="#000000" d="M 441.9387487405828 226.5535156477419 L 452 231 L 448.02976024516596 220.74148176932286 L 436.81242356770167 215.08341989895138 L 441.9387487405828 226.5535156477419" stroke-miterlimit="10"/></g><g transform="translate(-222,-30) scale(1,1)"><path fill="none" stroke="#000000" d="M 466 96 L 514 231" stroke-miterlimit="10"/></g><g transform="translate(-222,-30) scale(1,1)"><path fill="#FFFFFF" stroke="none" d="M 506.62913620475433 222.83480760104595 L 514 231 L 514.5616751421726 220.01434931218614 L 506.62978731159427 210.27127681385892"/></g><g transform="translate(-222,-30) scale(1,1)"><path fill="none" stroke="#000000" d="M 506.62913620475433 222.83480760104595 L 514 231 L 514.5616751421726 220.01434931218614 L 506.62978731159427 210.27127681385892 L 506.62913620475433 222.83480760104595" stroke-miterlimit="10"/></g><g transform="translate(-222,-30) scale(1,1)"><path fill="none" stroke="#000000" d="M 599 96 L 571 231" stroke-miterlimit="10"/></g><g transform="translate(-222,-30) scale(1,1)"><path fill="#FFFFFF" stroke="none" d="M 568.9420935691418 220.19421353524731 L 571 231 L 577.1856852929732 221.90399552241234 L 575.4678756448851 209.45845671216097"/></g><g transform="translate(-222,-30) scale(1,1)"><path fill="none" stroke="#000000" d="M 568.9420935691418 220.19421353524731 L 571 231 L 577.1856852929732 221.90399552241234 L 575.4678756448851 209.45845671216097 L 568.9420935691418 220.19421353524731" stroke-miterlimit="10"/></g><g transform="translate(-222,-30) scale(1,1)"><path fill="none" stroke="#000000" d="M 718 96 L 623 231" stroke-miterlimit="10"/></g><g transform="translate(-222,-30) scale(1,1)"><path fill="#FFFFFF" stroke="none" d="M 625.4059817266289 220.2663495524063 L 623 231 L 632.2911230126897 225.1114489759306 L 635.6608549358415 213.00825877538313"/></g><g transform="translate(-222,-30) scale(1,1)"><path fill="none" stroke="#000000" d="M 625.4059817266289 220.2663495524063 L 623 231 L 632.2911230126897 225.1114489759306 L 635.6608549358415 213.00825877538313 L 625.4059817266289 220.2663495524063" stroke-miterlimit="10"/></g><g transform="translate(-222,-30) scale(1,1)"><path fill="none" stroke="#000000" d="M 830 96 L 671 231" stroke-miterlimit="10"/></g><g transform="translate(-222,-30) scale(1,1)"><path fill="#FFFFFF" stroke="none" d="M 676.0224172353064 221.21351313726436 L 671 231 L 681.4714765096668 227.6312940603999 L 687.7704697417181 216.76092191740918"/></g><g transform="translate(-222,-30) scale(1,1)"><path fill="none" stroke="#000000" d="M 676.0224172353064 221.21351313726436 L 671 231 L 681.4714765096668 227.6312940603999 L 687.7704697417181 216.76092191740918 L 676.0224172353064 221.21351313726436" stroke-miterlimit="10"/></g><g transform="translate(-222,-30) scale(1,1)"><path fill="none" stroke="#000000" d="M 555 519 L 553 438" stroke-miterlimit="10"/></g><g transform="translate(-222,-30) scale(1,1)"><path fill="#FFFFFF" stroke="none" d="M 557.4590889353974 448.05567132847017 L 553 438 L 549.042618638389 448.2634854098778 L 553.543044364694 459.99329677010644"/></g><g transform="translate(-222,-30) scale(1,1)"><path fill="none" stroke="#000000" d="M 557.4590889353974 448.05567132847017 L 553 438 L 549.042618638389 448.2634854098778 L 553.543044364694 459.99329677010644 L 557.4590889353974 448.05567132847017" stroke-miterlimit="10"/></g></g></svg>