<svg version="1.1" xmlns="http://www.w3.org/2000/svg" xmlns:xlink="http://www.w3.org/1999/xlink" width="420" height="252"><defs/><g><text fill="#eeeeee" stroke="none" font-family="Arial" font-size="24px" font-style="normal" font-weight="normal" text-decoration="none" x="0" y="0"></text><text fill="#eeeeee" stroke="none" font-family="Arial" font-size="24px" font-style="normal" font-weight="normal" text-decoration="none" x="0" y="30"></text><text fill="#eeeeee" stroke="none" font-family="Arial" font-size="24px" font-style="normal" font-weight="normal" text-decoration="none" x="0" y="60"></text><text fill="#eeeeee" stroke="none" font-family="Arial" font-size="24px" font-style="normal" font-weight="normal" text-decoration="none" x="0" y="90"></text><text fill="#eeeeee" stroke="none" font-family="Arial" font-size="24px" font-style="normal" font-weight="normal" text-decoration="none" x="0" y="120"></text><text fill="#eeeeee" stroke="none" font-family="Arial" font-size="24px" font-style="normal" font-weight="normal" text-decoration="none" x="0" y="150"></text><text fill="#eeeeee" stroke="none" font-family="Arial" font-size="24px" font-style="normal" font-weight="normal" text-decoration="none" x="0" y="180"></text><text fill="#eeeeee" stroke="none" font-family="Arial" font-size="24px" font-style="normal" font-weight="normal" text-decoration="none" x="0" y="210"></text><text fill="#eeeeee" stroke="none" font-family="Arial" font-size="24px" font-style="normal" font-weight="normal" text-decoration="none" x="0" y="240"></text><text fill="#eeeeee" stroke="none" font-family="Arial" font-size="24px" font-style="normal" font-weight="normal" text-decoration="none" x="200" y="0"></text><text fill="#eeeeee" stroke="none" font-family="Arial" font-size="24px" font-style="normal" font-weight="normal" text-decoration="none" x="200" y="30"></text><text fill="#eeeeee" stroke="none" font-family="Arial" font-size="24px" font-style="normal" font-weight="normal" text-decoration="none" x="200" y="60"></text><text fill="#eeeeee" stroke="none" font-family="Arial" font-size="24px" font-style="normal" font-weight="normal" text-decoration="none" x="200" y="90"></text><text fill="#eeeeee" stroke="none" font-family="Arial" font-size="24px" font-style="normal" font-weight="normal" text-decoration="none" x="200" y="120"></text><text fill="#eeeeee" stroke="none" font-family="Arial" font-size="24px" font-style="normal" font-weight="normal" text-decoration="none" x="200" y="150"></text><text fill="#eeeeee" stroke="none" font-family="Arial" font-size="24px" font-style="normal" font-weight="normal" text-decoration="none" x="200" y="180"></text><text fill="#eeeeee" stroke="none" font-family="Arial" font-size="24px" font-style="normal" font-weight="normal" text-decoration="none" x="200" y="210"></text><text fill="#eeeeee" stroke="none" font-family="Arial" font-size="24px" font-style="normal" font-weight="normal" text-decoration="none" x="200" y="240"></text><text fill="#eeeeee" stroke="none" font-family="Arial" font-size="24px" font-style="normal" font-weight="normal" text-decoration="none" x="400" y="0"></text><text fill="#eeeeee" stroke="none" font-family="Arial" font-size="24px" font-style="normal" font-weight="normal" text-decoration="none" x="400" y="30"></text><text fill="#eeeeee" stroke="none" font-family="Arial" font-size="24px" font-style="normal" font-weight="normal" text-decoration="none" x="400" y="60"></text><text fill="#eeeeee" stroke="none" font-family="Arial" font-size="24px" font-style="normal" font-weight="normal" text-decoration="none" x="400" y="90"></text><text fill="#eeeeee" stroke="none" font-family="Arial" font-size="24px" font-style="normal" font-weight="normal" text-decoration="none" x="400" y="120"></text><text fill="#eeeeee" stroke="none" font-family="Arial" font-size="24px" font-style="normal" font-weight="normal" text-decoration="none" x="400" y="150"></text><text fill="#eeeeee" stroke="none" font-family="Arial" font-size="24px" font-style="normal" font-weight="normal" text-decoration="none" x="400" y="180"></text><text fill="#eeeeee" stroke="none" font-family="Arial" font-size="24px" font-style="normal" font-weight="normal" text-decoration="none" x="400" y="210"></text><text fill="#eeeeee" stroke="none" font-family="Arial" font-size="24px" font-style="normal" font-weight="normal" text-decoration="none" x="400" y="240"></text><g transform="translate(-166,-54) scale(1,1)"><rect fill="#C0C0C0" stroke="none" x="183" y="71" width="160" height="15" opacity="0.2"/></g><g transform="translate(-166,-54) scale(1,1)"><rect fill="#C0C0C0" stroke="none" x="183" y="85" width="400" height="218" opacity="0.2"/></g><g transform="translate(-166,-54) scale(1,1)"><rect fill="#ffffff" stroke="none" x="176" y="79" width="400" height="217"/></g><g transform="translate(-166,-54) scale(1,1)"><path fill="none" stroke="#000000" d="M 176 79 L 576 79 L 576 296 L 176 296 L 176 79 Z Z" stroke-miterlimit="10"/></g><g transform="translate(-166,-54) scale(1,1)"><rect fill="#ffffff" stroke="none" x="176" y="64" width="160" height="15"/></g><g transform="translate(-166,-54) scale(1,1)"><path fill="none" stroke="#000000" d="M 176 64 L 336 64 L 336 79 L 176 79 L 176 64 Z Z" stroke-miterlimit="10"/></g><g transform="translate(-166,-54) scale(1,1)"><rect fill="#ffffff" stroke="none" x="176" y="78" width="400" height="218"/></g><g transform="translate(-166,-54) scale(1,1)"><path fill="none" stroke="#000000" d="M 176 78 L 576 78 L 576 296 L 176 296 L 176 78 Z Z" stroke-miterlimit="10"/></g><g transform="translate(-166,-54) scale(1,1)"><g><path fill="none" stroke="none"/><text fill="#000000" stroke="none" font-family="Arial" font-size="13px" font-style="normal" font-weight="normal" text-decoration="none" x="357.569580078125" y="94.5">«root»</text></g></g><g transform="translate(-166,-54) scale(1,1)"><g><path fill="none" stroke="none"/><text fill="#000000" stroke="none" font-family="Arial" font-size="13px" font-style="normal" font-weight="bold" text-decoration="none" x="363.34912109375" y="110">java</text></g></g><g transform="translate(-166,-54) scale(1,1)"><rect fill="#C0C0C0" stroke="none" x="239" y="151" width="27.5966796875" height="15" opacity="0.2"/></g><g transform="translate(-166,-54) scale(1,1)"><rect fill="#C0C0C0" stroke="none" x="239" y="165" width="68.99169921875" height="25" opacity="0.2"/></g><g transform="translate(-166,-54) scale(1,1)"><rect fill="#ffffff" stroke="none" x="232" y="159" width="68.99169921875" height="24"/></g><g transform="translate(-166,-54) scale(1,1)"><path fill="none" stroke="#000000" d="M 232 159 L 300.99169921875 159 L 300.99169921875 183 L 232 183 L 232 159 Z Z" stroke-miterlimit="10"/></g><g transform="translate(-166,-54) scale(1,1)"><rect fill="#ffffff" stroke="none" x="232" y="144" width="27.5966796875" height="15"/></g><g transform="translate(-166,-54) scale(1,1)"><path fill="none" stroke="#000000" d="M 232 144 L 259.5966796875 144 L 259.5966796875 159 L 232 159 L 232 144 Z Z" stroke-miterlimit="10"/></g><g transform="translate(-166,-54) scale(1,1)"><rect fill="#ffffff" stroke="none" x="232" y="158" width="68.99169921875" height="25"/></g><g transform="translate(-166,-54) scale(1,1)"><path fill="none" stroke="#000000" d="M 232 158 L 300.99169921875 158 L 300.99169921875 183 L 232 183 L 232 158 Z Z" stroke-miterlimit="10"/></g><g transform="translate(-166,-54) scale(1,1)"><g><path fill="none" stroke="none"/><text fill="#000000" stroke="none" font-family="Arial" font-size="13px" font-style="normal" font-weight="bold" text-decoration="none" x="247.3544921875" y="177">model</text></g></g><g transform="translate(-166,-54) scale(1,1)"><rect fill="#C0C0C0" stroke="none" x="463" y="151" width="27.5966796875" height="15" opacity="0.2"/></g><g transform="translate(-166,-54) scale(1,1)"><rect fill="#C0C0C0" stroke="none" x="463" y="165" width="68.99169921875" height="25" opacity="0.2"/></g><g transform="translate(-166,-54) scale(1,1)"><rect fill="#ffffff" stroke="none" x="456" y="159" width="68.99169921875" height="24"/></g><g transform="translate(-166,-54) scale(1,1)"><path fill="none" stroke="#000000" d="M 456 159 L 524.99169921875 159 L 524.99169921875 183 L 456 183 L 456 159 Z Z" stroke-miterlimit="10"/></g><g transform="translate(-166,-54) scale(1,1)"><rect fill="#ffffff" stroke="none" x="456" y="144" width="27.5966796875" height="15"/></g><g transform="translate(-166,-54) scale(1,1)"><path fill="none" stroke="#000000" d="M 456 144 L 483.5966796875 144 L 483.5966796875 159 L 456 159 L 456 144 Z Z" stroke-miterlimit="10"/></g><g transform="translate(-166,-54) scale(1,1)"><rect fill="#ffffff" stroke="none" x="456" y="158" width="68.99169921875" height="25"/></g><g transform="translate(-166,-54) scale(1,1)"><path fill="none" stroke="#000000" d="M 456 158 L 524.99169921875 158 L 524.99169921875 183 L 456 183 L 456 158 Z Z" stroke-miterlimit="10"/></g><g transform="translate(-166,-54) scale(1,1)"><g><path fill="none" stroke="none"/><text fill="#000000" stroke="none" font-family="Arial" font-size="13px" font-style="normal" font-weight="bold" text-decoration="none" x="476.404052734375" y="177">view</text></g></g><g transform="translate(-166,-54) scale(1,1)"><rect fill="#C0C0C0" stroke="none" x="351" y="151" width="28.444726562500023" height="15" opacity="0.2"/></g><g transform="translate(-166,-54) scale(1,1)"><rect fill="#C0C0C0" stroke="none" x="351" y="165" width="71.11181640625" height="25" opacity="0.2"/></g><g transform="translate(-166,-54) scale(1,1)"><rect fill="#ffffff" stroke="none" x="344" y="159" width="71.11181640625" height="24"/></g><g transform="translate(-166,-54) scale(1,1)"><path fill="none" stroke="#000000" d="M 344 159 L 415.11181640625 159 L 415.11181640625 183 L 344 183 L 344 159 Z Z" stroke-miterlimit="10"/></g><g transform="translate(-166,-54) scale(1,1)"><rect fill="#ffffff" stroke="none" x="344" y="144" width="28.444726562500023" height="15"/></g><g transform="translate(-166,-54) scale(1,1)"><path fill="none" stroke="#000000" d="M 344 144 L 372.4447265625 144 L 372.4447265625 159 L 344 159 L 344 144 Z Z" stroke-miterlimit="10"/></g><g transform="translate(-166,-54) scale(1,1)"><rect fill="#ffffff" stroke="none" x="344" y="158" width="71.11181640625" height="25"/></g><g transform="translate(-166,-54) scale(1,1)"><path fill="none" stroke="#000000" d="M 344 158 L 415.11181640625 158 L 415.11181640625 183 L 344 183 L 344 158 Z Z" stroke-miterlimit="10"/></g><g transform="translate(-166,-54) scale(1,1)"><g><path fill="none" stroke="none"/><text fill="#000000" stroke="none" font-family="Arial" font-size="13px" font-style="normal" font-weight="bold" text-decoration="none" x="349.5791015625" y="177">controller</text></g></g><g transform="translate(-166,-54) scale(1,1)"><rect fill="#C0C0C0" stroke="none" x="239" y="215" width="27.5966796875" height="15" opacity="0.2"/></g><g transform="translate(-166,-54) scale(1,1)"><rect fill="#C0C0C0" stroke="none" x="239" y="229" width="68.99169921875" height="25" opacity="0.2"/></g><g transform="translate(-166,-54) scale(1,1)"><rect fill="#ffffff" stroke="none" x="232" y="223" width="68.99169921875" height="24"/></g><g transform="translate(-166,-54) scale(1,1)"><path fill="none" stroke="#000000" d="M 232 223 L 300.99169921875 223 L 300.99169921875 247 L 232 247 L 232 223 Z Z" stroke-miterlimit="10"/></g><g transform="translate(-166,-54) scale(1,1)"><rect fill="#ffffff" stroke="none" x="232" y="208" width="27.5966796875" height="15"/></g><g transform="translate(-166,-54) scale(1,1)"><path fill="none" stroke="#000000" d="M 232 208 L 259.5966796875 208 L 259.5966796875 223 L 232 223 L 232 208 Z Z" stroke-miterlimit="10"/></g><g transform="translate(-166,-54) scale(1,1)"><rect fill="#ffffff" stroke="none" x="232" y="222" width="68.99169921875" height="25"/></g><g transform="translate(-166,-54) scale(1,1)"><path fill="none" stroke="#000000" d="M 232 222 L 300.99169921875 222 L 300.99169921875 247 L 232 247 L 232 222 Z Z" stroke-miterlimit="10"/></g><g transform="translate(-166,-54) scale(1,1)"><g><path fill="none" stroke="none"/><text fill="#000000" stroke="none" font-family="Arial" font-size="13px" font-style="normal" font-weight="bold" text-decoration="none" x="253.130859375" y="241">data</text></g></g></g></svg>