<svg version="1.1" xmlns="http://www.w3.org/2000/svg" xmlns:xlink="http://www.w3.org/1999/xlink" width="818.66259765625" height="680"><defs/><g><text fill="#eeeeee" stroke="none" font-family="Arial" font-size="24px" font-style="normal" font-weight="normal" text-decoration="none" x="0" y="0"></text><text fill="#eeeeee" stroke="none" font-family="Arial" font-size="24px" font-style="normal" font-weight="normal" text-decoration="none" x="0" y="30"></text><text fill="#eeeeee" stroke="none" font-family="Arial" font-size="24px" font-style="normal" font-weight="normal" text-decoration="none" x="0" y="60"></text><text fill="#eeeeee" stroke="none" font-family="Arial" font-size="24px" font-style="normal" font-weight="normal" text-decoration="none" x="0" y="90"></text><text fill="#eeeeee" stroke="none" font-family="Arial" font-size="24px" font-style="normal" font-weight="normal" text-decoration="none" x="0" y="120"></text><text fill="#eeeeee" stroke="none" font-family="Arial" font-size="24px" font-style="normal" font-weight="normal" text-decoration="none" x="0" y="150"></text><text fill="#eeeeee" stroke="none" font-family="Arial" font-size="24px" font-style="normal" font-weight="normal" text-decoration="none" x="0" y="180"></text><text fill="#eeeeee" stroke="none" font-family="Arial" font-size="24px" font-style="normal" font-weight="normal" text-decoration="none" x="0" y="210"></text><text fill="#eeeeee" stroke="none" font-family="Arial" font-size="24px" font-style="normal" font-weight="normal" text-decoration="none" x="0" y="240"></text><text fill="#eeeeee" stroke="none" font-family="Arial" font-size="24px" font-style="normal" font-weight="normal" text-decoration="none" x="0" y="270"></text><text fill="#eeeeee" stroke="none" font-family="Arial" font-size="24px" font-style="normal" font-weight="normal" text-decoration="none" x="0" y="300"></text><text fill="#eeeeee" stroke="none" font-family="Arial" font-size="24px" font-style="normal" font-weight="normal" text-decoration="none" x="0" y="330"></text><text fill="#eeeeee" stroke="none" font-family="Arial" font-size="24px" font-style="normal" font-weight="normal" text-decoration="none" x="0" y="360"></text><text fill="#eeeeee" stroke="none" font-family="Arial" font-size="24px" font-style="normal" font-weight="normal" text-decoration="none" x="0" y="390"></text><text fill="#eeeeee" stroke="none" font-family="Arial" font-size="24px" font-style="normal" font-weight="normal" text-decoration="none" x="0" y="420"></text><text fill="#eeeeee" stroke="none" font-family="Arial" font-size="24px" font-style="normal" font-weight="normal" text-decoration="none" x="0" y="450"></text><text fill="#eeeeee" stroke="none" font-family="Arial" font-size="24px" font-style="normal" font-weight="normal" text-decoration="none" x="0" y="480"></text><text fill="#eeeeee" stroke="none" font-family="Arial" font-size="24px" font-style="normal" font-weight="normal" text-decoration="none" x="0" y="510"></text><text fill="#eeeeee" stroke="none" font-family="Arial" font-size="24px" font-style="normal" font-weight="normal" text-decoration="none" x="0" y="540"></text><text fill="#eeeeee" stroke="none" font-family="Arial" font-size="24px" font-style="normal" font-weight="normal" text-decoration="none" x="0" y="570"></text><text fill="#eeeeee" stroke="none" font-family="Arial" font-size="24px" font-style="normal" font-weight="normal" text-decoration="none" x="0" y="600"></text><text fill="#eeeeee" stroke="none" font-family="Arial" font-size="24px" font-style="normal" font-weight="normal" text-decoration="none" x="0" y="630"></text><text fill="#eeeeee" stroke="none" font-family="Arial" font-size="24px" font-style="normal" font-weight="normal" text-decoration="none" x="0" y="660"></text><text fill="#eeeeee" stroke="none" font-family="Arial" font-size="24px" font-style="normal" font-weight="normal" text-decoration="none" x="200" y="0"></text><text fill="#eeeeee" stroke="none" font-family="Arial" font-size="24px" font-style="normal" font-weight="normal" text-decoration="none" x="200" y="30"></text><text fill="#eeeeee" stroke="none" font-family="Arial" font-size="24px" font-style="normal" font-weight="normal" text-decoration="none" x="200" y="60"></text><text fill="#eeeeee" stroke="none" font-family="Arial" font-size="24px" font-style="normal" font-weight="normal" text-decoration="none" x="200" y="90"></text><text fill="#eeeeee" stroke="none" font-family="Arial" font-size="24px" font-style="normal" font-weight="normal" text-decoration="none" x="200" y="120"></text><text fill="#eeeeee" stroke="none" font-family="Arial" font-size="24px" font-style="normal" font-weight="normal" text-decoration="none" x="200" y="150"></text><text fill="#eeeeee" stroke="none" font-family="Arial" font-size="24px" font-style="normal" font-weight="normal" text-decoration="none" x="200" y="180"></text><text fill="#eeeeee" stroke="none" font-family="Arial" font-size="24px" font-style="normal" font-weight="normal" text-decoration="none" x="200" y="210"></text><text fill="#eeeeee" stroke="none" font-family="Arial" font-size="24px" font-style="normal" font-weight="normal" text-decoration="none" x="200" y="240"></text><text fill="#eeeeee" stroke="none" font-family="Arial" font-size="24px" font-style="normal" font-weight="normal" text-decoration="none" x="200" y="270"></text><text fill="#eeeeee" stroke="none" font-family="Arial" font-size="24px" font-style="normal" font-weight="normal" text-decoration="none" x="200" y="300"></text><text fill="#eeeeee" stroke="none" font-family="Arial" font-size="24px" font-style="normal" font-weight="normal" text-decoration="none" x="200" y="330"></text><text fill="#eeeeee" stroke="none" font-family="Arial" font-size="24px" font-style="normal" font-weight="normal" text-decoration="none" x="200" y="360"></text><text fill="#eeeeee" stroke="none" font-family="Arial" font-size="24px" font-style="normal" font-weight="normal" text-decoration="none" x="200" y="390"></text><text fill="#eeeeee" stroke="none" font-family="Arial" font-size="24px" font-style="normal" font-weight="normal" text-decoration="none" x="200" y="420"></text><text fill="#eeeeee" stroke="none" font-family="Arial" font-size="24px" font-style="normal" font-weight="normal" text-decoration="none" x="200" y="450"></text><text fill="#eeeeee" stroke="none" font-family="Arial" font-size="24px" font-style="normal" font-weight="normal" text-decoration="none" x="200" y="480"></text><text fill="#eeeeee" stroke="none" font-family="Arial" font-size="24px" font-style="normal" font-weight="normal" text-decoration="none" x="200" y="510"></text><text fill="#eeeeee" stroke="none" font-family="Arial" font-size="24px" font-style="normal" font-weight="normal" text-decoration="none" x="200" y="540"></text><text fill="#eeeeee" stroke="none" font-family="Arial" font-size="24px" font-style="normal" font-weight="normal" text-decoration="none" x="200" y="570"></text><text fill="#eeeeee" stroke="none" font-family="Arial" font-size="24px" font-style="normal" font-weight="normal" text-decoration="none" x="200" y="600"></text><text fill="#eeeeee" stroke="none" font-family="Arial" font-size="24px" font-style="normal" font-weight="normal" text-decoration="none" x="200" y="630"></text><text fill="#eeeeee" stroke="none" font-family="Arial" font-size="24px" font-style="normal" font-weight="normal" text-decoration="none" x="200" y="660"></text><text fill="#eeeeee" stroke="none" font-family="Arial" font-size="24px" font-style="normal" font-weight="normal" text-decoration="none" x="400" y="0"></text><text fill="#eeeeee" stroke="none" font-family="Arial" font-size="24px" font-style="normal" font-weight="normal" text-decoration="none" x="400" y="30"></text><text fill="#eeeeee" stroke="none" font-family="Arial" font-size="24px" font-style="normal" font-weight="normal" text-decoration="none" x="400" y="60"></text><text fill="#eeeeee" stroke="none" font-family="Arial" font-size="24px" font-style="normal" font-weight="normal" text-decoration="none" x="400" y="90"></text><text fill="#eeeeee" stroke="none" font-family="Arial" font-size="24px" font-style="normal" font-weight="normal" text-decoration="none" x="400" y="120"></text><text fill="#eeeeee" stroke="none" font-family="Arial" font-size="24px" font-style="normal" font-weight="normal" text-decoration="none" x="400" y="150"></text><text fill="#eeeeee" stroke="none" font-family="Arial" font-size="24px" font-style="normal" font-weight="normal" text-decoration="none" x="400" y="180"></text><text fill="#eeeeee" stroke="none" font-family="Arial" font-size="24px" font-style="normal" font-weight="normal" text-decoration="none" x="400" y="210"></text><text fill="#eeeeee" stroke="none" font-family="Arial" font-size="24px" font-style="normal" font-weight="normal" text-decoration="none" x="400" y="240"></text><text fill="#eeeeee" stroke="none" font-family="Arial" font-size="24px" font-style="normal" font-weight="normal" text-decoration="none" x="400" y="270"></text><text fill="#eeeeee" stroke="none" font-family="Arial" font-size="24px" font-style="normal" font-weight="normal" text-decoration="none" x="400" y="300"></text><text fill="#eeeeee" stroke="none" font-family="Arial" font-size="24px" font-style="normal" font-weight="normal" text-decoration="none" x="400" y="330"></text><text fill="#eeeeee" stroke="none" font-family="Arial" font-size="24px" font-style="normal" font-weight="normal" text-decoration="none" x="400" y="360"></text><text fill="#eeeeee" stroke="none" font-family="Arial" font-size="24px" font-style="normal" font-weight="normal" text-decoration="none" x="400" y="390"></text><text fill="#eeeeee" stroke="none" font-family="Arial" font-size="24px" font-style="normal" font-weight="normal" text-decoration="none" x="400" y="420"></text><text fill="#eeeeee" stroke="none" font-family="Arial" font-size="24px" font-style="normal" font-weight="normal" text-decoration="none" x="400" y="450"></text><text fill="#eeeeee" stroke="none" font-family="Arial" font-size="24px" font-style="normal" font-weight="normal" text-decoration="none" x="400" y="480"></text><text fill="#eeeeee" stroke="none" font-family="Arial" font-size="24px" font-style="normal" font-weight="normal" text-decoration="none" x="400" y="510"></text><text fill="#eeeeee" stroke="none" font-family="Arial" font-size="24px" font-style="normal" font-weight="normal" text-decoration="none" x="400" y="540"></text><text fill="#eeeeee" stroke="none" font-family="Arial" font-size="24px" font-style="normal" font-weight="normal" text-decoration="none" x="400" y="570"></text><text fill="#eeeeee" stroke="none" font-family="Arial" font-size="24px" font-style="normal" font-weight="normal" text-decoration="none" x="400" y="600"></text><text fill="#eeeeee" stroke="none" font-family="Arial" font-size="24px" font-style="normal" font-weight="normal" text-decoration="none" x="400" y="630"></text><text fill="#eeeeee" stroke="none" font-family="Arial" font-size="24px" font-style="normal" font-weight="normal" text-decoration="none" x="400" y="660"></text><text fill="#eeeeee" stroke="none" font-family="Arial" font-size="24px" font-style="normal" font-weight="normal" text-decoration="none" x="600" y="0"></text><text fill="#eeeeee" stroke="none" font-family="Arial" font-size="24px" font-style="normal" font-weight="normal" text-decoration="none" x="600" y="30"></text><text fill="#eeeeee" stroke="none" font-family="Arial" font-size="24px" font-style="normal" font-weight="normal" text-decoration="none" x="600" y="60"></text><text fill="#eeeeee" stroke="none" font-family="Arial" font-size="24px" font-style="normal" font-weight="normal" text-decoration="none" x="600" y="90"></text><text fill="#eeeeee" stroke="none" font-family="Arial" font-size="24px" font-style="normal" font-weight="normal" text-decoration="none" x="600" y="120"></text><text fill="#eeeeee" stroke="none" font-family="Arial" font-size="24px" font-style="normal" font-weight="normal" text-decoration="none" x="600" y="150"></text><text fill="#eeeeee" stroke="none" font-family="Arial" font-size="24px" font-style="normal" font-weight="normal" text-decoration="none" x="600" y="180"></text><text fill="#eeeeee" stroke="none" font-family="Arial" font-size="24px" font-style="normal" font-weight="normal" text-decoration="none" x="600" y="210"></text><text fill="#eeeeee" stroke="none" font-family="Arial" font-size="24px" font-style="normal" font-weight="normal" text-decoration="none" x="600" y="240"></text><text fill="#eeeeee" stroke="none" font-family="Arial" font-size="24px" font-style="normal" font-weight="normal" text-decoration="none" x="600" y="270"></text><text fill="#eeeeee" stroke="none" font-family="Arial" font-size="24px" font-style="normal" font-weight="normal" text-decoration="none" x="600" y="300"></text><text fill="#eeeeee" stroke="none" font-family="Arial" font-size="24px" font-style="normal" font-weight="normal" text-decoration="none" x="600" y="330"></text><text fill="#eeeeee" stroke="none" font-family="Arial" font-size="24px" font-style="normal" font-weight="normal" text-decoration="none" x="600" y="360"></text><text fill="#eeeeee" stroke="none" font-family="Arial" font-size="24px" font-style="normal" font-weight="normal" text-decoration="none" x="600" y="390"></text><text fill="#eeeeee" stroke="none" font-family="Arial" font-size="24px" font-style="normal" font-weight="normal" text-decoration="none" x="600" y="420"></text><text fill="#eeeeee" stroke="none" font-family="Arial" font-size="24px" font-style="normal" font-weight="normal" text-decoration="none" x="600" y="450"></text><text fill="#eeeeee" stroke="none" font-family="Arial" font-size="24px" font-style="normal" font-weight="normal" text-decoration="none" x="600" y="480"></text><text fill="#eeeeee" stroke="none" font-family="Arial" font-size="24px" font-style="normal" font-weight="normal" text-decoration="none" x="600" y="510"></text><text fill="#eeeeee" stroke="none" font-family="Arial" font-size="24px" font-style="normal" font-weight="normal" text-decoration="none" x="600" y="540"></text><text fill="#eeeeee" stroke="none" font-family="Arial" font-size="24px" font-style="normal" font-weight="normal" text-decoration="none" x="600" y="570"></text><text fill="#eeeeee" stroke="none" font-family="Arial" font-size="24px" font-style="normal" font-weight="normal" text-decoration="none" x="600" y="600"></text><text fill="#eeeeee" stroke="none" font-family="Arial" font-size="24px" font-style="normal" font-weight="normal" text-decoration="none" x="600" y="630"></text><text fill="#eeeeee" stroke="none" font-family="Arial" font-size="24px" font-style="normal" font-weight="normal" text-decoration="none" x="600" y="660"></text><text fill="#eeeeee" stroke="none" font-family="Arial" font-size="24px" font-style="normal" font-weight="normal" text-decoration="none" x="800" y="0"></text><text fill="#eeeeee" stroke="none" font-family="Arial" font-size="24px" font-style="normal" font-weight="normal" text-decoration="none" x="800" y="30"></text><text fill="#eeeeee" stroke="none" font-family="Arial" font-size="24px" font-style="normal" font-weight="normal" text-decoration="none" x="800" y="60"></text><text fill="#eeeeee" stroke="none" font-family="Arial" font-size="24px" font-style="normal" font-weight="normal" text-decoration="none" x="800" y="90"></text><text fill="#eeeeee" stroke="none" font-family="Arial" font-size="24px" font-style="normal" font-weight="normal" text-decoration="none" x="800" y="120"></text><text fill="#eeeeee" stroke="none" font-family="Arial" font-size="24px" font-style="normal" font-weight="normal" text-decoration="none" x="800" y="150"></text><text fill="#eeeeee" stroke="none" font-family="Arial" font-size="24px" font-style="normal" font-weight="normal" text-decoration="none" x="800" y="180"></text><text fill="#eeeeee" stroke="none" font-family="Arial" font-size="24px" font-style="normal" font-weight="normal" text-decoration="none" x="800" y="210"></text><text fill="#eeeeee" stroke="none" font-family="Arial" font-size="24px" font-style="normal" font-weight="normal" text-decoration="none" x="800" y="240"></text><text fill="#eeeeee" stroke="none" font-family="Arial" font-size="24px" font-style="normal" font-weight="normal" text-decoration="none" x="800" y="270"></text><text fill="#eeeeee" stroke="none" font-family="Arial" font-size="24px" font-style="normal" font-weight="normal" text-decoration="none" x="800" y="300"></text><text fill="#eeeeee" stroke="none" font-family="Arial" font-size="24px" font-style="normal" font-weight="normal" text-decoration="none" x="800" y="330"></text><text fill="#eeeeee" stroke="none" font-family="Arial" font-size="24px" font-style="normal" font-weight="normal" text-decoration="none" x="800" y="360"></text><text fill="#eeeeee" stroke="none" font-family="Arial" font-size="24px" font-style="normal" font-weight="normal" text-decoration="none" x="800" y="390"></text><text fill="#eeeeee" stroke="none" font-family="Arial" font-size="24px" font-style="normal" font-weight="normal" text-decoration="none" x="800" y="420"></text><text fill="#eeeeee" stroke="none" font-family="Arial" font-size="24px" font-style="normal" font-weight="normal" text-decoration="none" x="800" y="450"></text><text fill="#eeeeee" stroke="none" font-family="Arial" font-size="24px" font-style="normal" font-weight="normal" text-decoration="none" x="800" y="480"></text><text fill="#eeeeee" stroke="none" font-family="Arial" font-size="24px" font-style="normal" font-weight="normal" text-decoration="none" x="800" y="510"></text><text fill="#eeeeee" stroke="none" font-family="Arial" font-size="24px" font-style="normal" font-weight="normal" text-decoration="none" x="800" y="540"></text><text fill="#eeeeee" stroke="none" font-family="Arial" font-size="24px" font-style="normal" font-weight="normal" text-decoration="none" x="800" y="570"></text><text fill="#eeeeee" stroke="none" font-family="Arial" font-size="24px" font-style="normal" font-weight="normal" text-decoration="none" x="800" y="600"></text><text fill="#eeeeee" stroke="none" font-family="Arial" font-size="24px" font-style="normal" font-weight="normal" text-decoration="none" x="800" y="630"></text><text fill="#eeeeee" stroke="none" font-family="Arial" font-size="24px" font-style="normal" font-weight="normal" text-decoration="none" x="800" y="660"></text><g transform="translate(-46,-54) scale(1,1)"><rect fill="#C0C0C0" stroke="none" x="391" y="119" width="149.89892578125" height="87" opacity="0.2"/></g><g transform="translate(-46,-54) scale(1,1)"><rect fill="#ffffff" stroke="none" x="384" y="112" width="149.89892578125" height="87"/></g><g transform="translate(-46,-54) scale(1,1)"><path fill="none" stroke="#000000" d="M 384 112 L 533.89892578125 112 L 533.89892578125 199 L 384 199 L 384 112 Z Z" stroke-miterlimit="10"/></g><g transform="translate(-46,-54) scale(1,1)"><path fill="none" stroke="#000000" d="M 384 137 L 533.89892578125 137" stroke-miterlimit="10"/></g><g transform="translate(-46,-54) scale(1,1)"><path fill="none" stroke="#000000" d="M 384 190 L 533.89892578125 190" stroke-miterlimit="10"/></g><g transform="translate(-46,-54) scale(1,1)"><g><path fill="none" stroke="none"/><text fill="#000000" stroke="none" font-family="Arial" font-size="13px" font-style="normal" font-weight="bold" text-decoration="none" x="432.574951171875" y="130">Vehicule</text></g></g><g transform="translate(-46,-54) scale(1,1)"><g><path fill="none" stroke="none"/><text fill="#000000" stroke="none" font-family="Arial" font-size="13px" font-style="normal" font-weight="normal" text-decoration="none" x="389" y="153">-immat: String</text></g></g><g transform="translate(-46,-54) scale(1,1)"><g><path fill="none" stroke="none"/><text fill="#000000" stroke="none" font-family="Arial" font-size="13px" font-style="normal" font-weight="normal" text-decoration="none" x="389" y="168">-poidsMax: int</text></g></g><g transform="translate(-46,-54) scale(1,1)"><g><path fill="none" stroke="none"/><text fill="#000000" stroke="none" font-family="Arial" font-size="13px" font-style="normal" font-weight="normal" text-decoration="none" x="389" y="183">-proprietaire: Producteur</text></g></g><g transform="translate(-46,-54) scale(1,1)"><rect fill="#C0C0C0" stroke="none" x="63" y="239" width="97.16259765625" height="72" opacity="0.2"/></g><g transform="translate(-46,-54) scale(1,1)"><rect fill="#ffffff" stroke="none" x="56" y="232" width="97.16259765625" height="72"/></g><g transform="translate(-46,-54) scale(1,1)"><path fill="none" stroke="#000000" d="M 56 232 L 153.16259765625 232 L 153.16259765625 304 L 56 304 L 56 232 Z Z" stroke-miterlimit="10"/></g><g transform="translate(-46,-54) scale(1,1)"><path fill="none" stroke="#000000" d="M 56 257 L 153.16259765625 257" stroke-miterlimit="10"/></g><g transform="translate(-46,-54) scale(1,1)"><path fill="none" stroke="#000000" d="M 56 295 L 153.16259765625 295" stroke-miterlimit="10"/></g><g transform="translate(-46,-54) scale(1,1)"><g><path fill="none" stroke="none"/><text fill="#000000" stroke="none" font-family="Arial" font-size="13px" font-style="normal" font-weight="bold" text-decoration="none" x="84.36083984375" y="250">Admin</text></g></g><g transform="translate(-46,-54) scale(1,1)"><g><path fill="none" stroke="none"/><text fill="#000000" stroke="none" font-family="Arial" font-size="13px" font-style="normal" font-weight="normal" text-decoration="none" x="61" y="273">-idAdmin: int</text></g></g><g transform="translate(-46,-54) scale(1,1)"><g><path fill="none" stroke="none"/><text fill="#000000" stroke="none" font-family="Arial" font-size="13px" font-style="normal" font-weight="normal" text-decoration="none" x="61" y="288">-pseudo: String</text></g></g><g transform="translate(-46,-54) scale(1,1)"><rect fill="#C0C0C0" stroke="none" x="407" y="599" width="114.49169921875" height="132" opacity="0.2"/></g><g transform="translate(-46,-54) scale(1,1)"><rect fill="#ffffff" stroke="none" x="400" y="592" width="114.49169921875" height="132"/></g><g transform="translate(-46,-54) scale(1,1)"><path fill="none" stroke="#000000" d="M 400 592 L 514.49169921875 592 L 514.49169921875 724 L 400 724 L 400 592 Z Z" stroke-miterlimit="10"/></g><g transform="translate(-46,-54) scale(1,1)"><path fill="none" stroke="#000000" d="M 400 617 L 514.49169921875 617" stroke-miterlimit="10"/></g><g transform="translate(-46,-54) scale(1,1)"><path fill="none" stroke="#000000" d="M 400 715 L 514.49169921875 715" stroke-miterlimit="10"/></g><g transform="translate(-46,-54) scale(1,1)"><g><path fill="none" stroke="none"/><text fill="#000000" stroke="none" font-family="Arial" font-size="13px" font-style="normal" font-weight="bold" text-decoration="none" x="439.18994140625" y="610">Client</text></g></g><g transform="translate(-46,-54) scale(1,1)"><g><path fill="none" stroke="none"/><text fill="#000000" stroke="none" font-family="Arial" font-size="13px" font-style="normal" font-weight="normal" text-decoration="none" x="405" y="633">-idClient: int</text></g></g><g transform="translate(-46,-54) scale(1,1)"><g><path fill="none" stroke="none"/><text fill="#000000" stroke="none" font-family="Arial" font-size="13px" font-style="normal" font-weight="normal" text-decoration="none" x="405" y="648">-nom: String</text></g></g><g transform="translate(-46,-54) scale(1,1)"><g><path fill="none" stroke="none"/><text fill="#000000" stroke="none" font-family="Arial" font-size="13px" font-style="normal" font-weight="normal" text-decoration="none" x="405" y="663">-prenom: String</text></g></g><g transform="translate(-46,-54) scale(1,1)"><g><path fill="none" stroke="none"/><text fill="#000000" stroke="none" font-family="Arial" font-size="13px" font-style="normal" font-weight="normal" text-decoration="none" x="405" y="678">-numTel: String</text></g></g><g transform="translate(-46,-54) scale(1,1)"><g><path fill="none" stroke="none"/><text fill="#000000" stroke="none" font-family="Arial" font-size="13px" font-style="normal" font-weight="normal" text-decoration="none" x="405" y="693">-gps: String</text></g></g><g transform="translate(-46,-54) scale(1,1)"><g><path fill="none" stroke="none"/><text fill="#000000" stroke="none" font-family="Arial" font-size="13px" font-style="normal" font-weight="normal" text-decoration="none" x="405" y="708">-adresse: Adresse</text></g></g><g transform="translate(-46,-54) scale(1,1)"><rect fill="#C0C0C0" stroke="none" x="215" y="239" width="114.49169921875" height="117" opacity="0.2"/></g><g transform="translate(-46,-54) scale(1,1)"><rect fill="#ffffff" stroke="none" x="208" y="232" width="114.49169921875" height="117"/></g><g transform="translate(-46,-54) scale(1,1)"><path fill="none" stroke="#000000" d="M 208 232 L 322.49169921875 232 L 322.49169921875 349 L 208 349 L 208 232 Z Z" stroke-miterlimit="10"/></g><g transform="translate(-46,-54) scale(1,1)"><path fill="none" stroke="#000000" d="M 208 257 L 322.49169921875 257" stroke-miterlimit="10"/></g><g transform="translate(-46,-54) scale(1,1)"><path fill="none" stroke="#000000" d="M 208 340 L 322.49169921875 340" stroke-miterlimit="10"/></g><g transform="translate(-46,-54) scale(1,1)"><g><path fill="none" stroke="none"/><text fill="#000000" stroke="none" font-family="Arial" font-size="13px" font-style="normal" font-weight="bold" text-decoration="none" x="230.574951171875" y="250">Producteur</text></g></g><g transform="translate(-46,-54) scale(1,1)"><g><path fill="none" stroke="none"/><text fill="#000000" stroke="none" font-family="Arial" font-size="13px" font-style="normal" font-weight="normal" text-decoration="none" x="213" y="273">-SIRET: String</text></g></g><g transform="translate(-46,-54) scale(1,1)"><g><path fill="none" stroke="none"/><text fill="#000000" stroke="none" font-family="Arial" font-size="13px" font-style="normal" font-weight="normal" text-decoration="none" x="213" y="288">-nom: String</text></g></g><g transform="translate(-46,-54) scale(1,1)"><g><path fill="none" stroke="none"/><text fill="#000000" stroke="none" font-family="Arial" font-size="13px" font-style="normal" font-weight="normal" text-decoration="none" x="213" y="303">-prenom: String</text></g></g><g transform="translate(-46,-54) scale(1,1)"><g><path fill="none" stroke="none"/><text fill="#000000" stroke="none" font-family="Arial" font-size="13px" font-style="normal" font-weight="normal" text-decoration="none" x="213" y="318">-numTel: String</text></g></g><g transform="translate(-46,-54) scale(1,1)"><g><path fill="none" stroke="none"/><text fill="#000000" stroke="none" font-family="Arial" font-size="13px" font-style="normal" font-weight="normal" text-decoration="none" x="213" y="333">-adresse: Adresse</text></g></g><g transform="translate(-46,-54) scale(1,1)"><rect fill="#C0C0C0" stroke="none" x="207" y="447" width="125.32080078125" height="162" opacity="0.2"/></g><g transform="translate(-46,-54) scale(1,1)"><rect fill="#ffffff" stroke="none" x="200" y="440" width="125.32080078125" height="162"/></g><g transform="translate(-46,-54) scale(1,1)"><path fill="none" stroke="#000000" d="M 200 440 L 325.32080078125 440 L 325.32080078125 602 L 200 602 L 200 440 Z Z" stroke-miterlimit="10"/></g><g transform="translate(-46,-54) scale(1,1)"><path fill="none" stroke="#000000" d="M 200 465 L 325.32080078125 465" stroke-miterlimit="10"/></g><g transform="translate(-46,-54) scale(1,1)"><path fill="none" stroke="#000000" d="M 200 593 L 325.32080078125 593" stroke-miterlimit="10"/></g><g transform="translate(-46,-54) scale(1,1)"><g><path fill="none" stroke="none"/><text fill="#000000" stroke="none" font-family="Arial" font-size="13px" font-style="normal" font-weight="bold" text-decoration="none" x="237.00634765625" y="458">Adresse</text></g></g><g transform="translate(-46,-54) scale(1,1)"><g><path fill="none" stroke="none"/><text fill="#000000" stroke="none" font-family="Arial" font-size="13px" font-style="normal" font-weight="normal" text-decoration="none" x="205" y="481">-idAdresse: int</text></g></g><g transform="translate(-46,-54) scale(1,1)"><g><path fill="none" stroke="none"/><text fill="#000000" stroke="none" font-family="Arial" font-size="13px" font-style="normal" font-weight="normal" text-decoration="none" x="205" y="496">-pays: String</text></g></g><g transform="translate(-46,-54) scale(1,1)"><g><path fill="none" stroke="none"/><text fill="#000000" stroke="none" font-family="Arial" font-size="13px" font-style="normal" font-weight="normal" text-decoration="none" x="205" y="511">-codePost: String</text></g></g><g transform="translate(-46,-54) scale(1,1)"><g><path fill="none" stroke="none"/><text fill="#000000" stroke="none" font-family="Arial" font-size="13px" font-style="normal" font-weight="normal" text-decoration="none" x="205" y="526">-voie: String</text></g></g><g transform="translate(-46,-54) scale(1,1)"><g><path fill="none" stroke="none"/><text fill="#000000" stroke="none" font-family="Arial" font-size="13px" font-style="normal" font-weight="normal" text-decoration="none" x="205" y="541">-nom: String</text></g></g><g transform="translate(-46,-54) scale(1,1)"><g><path fill="none" stroke="none"/><text fill="#000000" stroke="none" font-family="Arial" font-size="13px" font-style="normal" font-weight="normal" text-decoration="none" x="205" y="556">-numero: int</text></g></g><g transform="translate(-46,-54) scale(1,1)"><g><path fill="none" stroke="none"/><text fill="#000000" stroke="none" font-family="Arial" font-size="13px" font-style="normal" font-weight="normal" text-decoration="none" x="205" y="571">-mention: String</text></g></g><g transform="translate(-46,-54) scale(1,1)"><g><path fill="none" stroke="none"/><text fill="#000000" stroke="none" font-family="Arial" font-size="13px" font-style="normal" font-weight="normal" text-decoration="none" x="205" y="586">-complement: String</text></g></g><g transform="translate(-46,-54) scale(1,1)"><rect fill="#C0C0C0" stroke="none" x="615" y="191" width="276.0078125" height="205" opacity="0.2"/></g><g transform="translate(-46,-54) scale(1,1)"><rect fill="#ffffff" stroke="none" x="608" y="184" width="276.0078125" height="205"/></g><g transform="translate(-46,-54) scale(1,1)"><path fill="none" stroke="#000000" d="M 608 184 L 884.0078125 184 L 884.0078125 389 L 608 389 L 608 184 Z Z" stroke-miterlimit="10"/></g><g transform="translate(-46,-54) scale(1,1)"><path fill="none" stroke="#000000" d="M 608 209 L 884.0078125 209" stroke-miterlimit="10"/></g><g transform="translate(-46,-54) scale(1,1)"><path fill="none" stroke="#000000" d="M 608 322 L 884.0078125 322" stroke-miterlimit="10"/></g><g transform="translate(-46,-54) scale(1,1)"><g><path fill="none" stroke="none"/><text fill="#000000" stroke="none" font-family="Arial" font-size="13px" font-style="normal" font-weight="bold" text-decoration="none" x="720.844970703125" y="202">Tournee</text></g></g><g transform="translate(-46,-54) scale(1,1)"><g><path fill="none" stroke="none"/><text fill="#000000" stroke="none" font-family="Arial" font-size="13px" font-style="normal" font-weight="normal" text-decoration="none" x="613" y="225">-numTournee: int</text></g></g><g transform="translate(-46,-54) scale(1,1)"><g><path fill="none" stroke="none"/><text fill="#000000" stroke="none" font-family="Arial" font-size="13px" font-style="normal" font-weight="normal" text-decoration="none" x="613" y="240">-libelle: String</text></g></g><g transform="translate(-46,-54) scale(1,1)"><g><path fill="none" stroke="none"/><text fill="#000000" stroke="none" font-family="Arial" font-size="13px" font-style="normal" font-weight="normal" text-decoration="none" x="613" y="255">-heureMin: int</text></g></g><g transform="translate(-46,-54) scale(1,1)"><g><path fill="none" stroke="none"/><text fill="#000000" stroke="none" font-family="Arial" font-size="13px" font-style="normal" font-weight="normal" text-decoration="none" x="613" y="270">-heureMax: int</text></g></g><g transform="translate(-46,-54) scale(1,1)"><g><path fill="none" stroke="none"/><text fill="#000000" stroke="none" font-family="Arial" font-size="13px" font-style="normal" font-weight="normal" text-decoration="none" x="613" y="285">-producteur: Producteur</text></g></g><g transform="translate(-46,-54) scale(1,1)"><g><path fill="none" stroke="none"/><text fill="#000000" stroke="none" font-family="Arial" font-size="13px" font-style="normal" font-weight="normal" text-decoration="none" x="613" y="300">-vehicule: Vehicule</text></g></g><g transform="translate(-46,-54) scale(1,1)"><g><path fill="none" stroke="none"/><text fill="#000000" stroke="none" font-family="Arial" font-size="13px" font-style="normal" font-weight="normal" text-decoration="none" x="613" y="315">-commandes: ArrayList&lt;Commande&gt;</text></g></g><g transform="translate(-46,-54) scale(1,1)"><g><path fill="none" stroke="none"/><text fill="#000000" stroke="none" font-family="Arial" font-size="13px" font-style="normal" font-weight="normal" text-decoration="none" x="613" y="338">+estValide(): boolean</text></g></g><g transform="translate(-46,-54) scale(1,1)"><g><path fill="none" stroke="none"/><text fill="#000000" stroke="none" font-family="Arial" font-size="13px" font-style="normal" font-weight="normal" text-decoration="none" x="613" y="353">+possedeCommande(c: Commande): boolean</text></g></g><g transform="translate(-46,-54) scale(1,1)"><g><path fill="none" stroke="none"/><text fill="#000000" stroke="none" font-family="Arial" font-size="13px" font-style="normal" font-weight="normal" text-decoration="none" x="613" y="368">+ajouteCommande(c: Commande)</text></g></g><g transform="translate(-46,-54) scale(1,1)"><g><path fill="none" stroke="none"/><text fill="#000000" stroke="none" font-family="Arial" font-size="13px" font-style="normal" font-weight="normal" text-decoration="none" x="613" y="383">+retireCommande(c: Commande)</text></g></g><g transform="translate(-46,-54) scale(1,1)"><rect fill="#C0C0C0" stroke="none" x="391" y="359" width="146.29345703125" height="162" opacity="0.2"/></g><g transform="translate(-46,-54) scale(1,1)"><rect fill="#ffffff" stroke="none" x="384" y="352" width="146.29345703125" height="162"/></g><g transform="translate(-46,-54) scale(1,1)"><path fill="none" stroke="#000000" d="M 384 352 L 530.29345703125 352 L 530.29345703125 514 L 384 514 L 384 352 Z Z" stroke-miterlimit="10"/></g><g transform="translate(-46,-54) scale(1,1)"><path fill="none" stroke="#000000" d="M 384 377 L 530.29345703125 377" stroke-miterlimit="10"/></g><g transform="translate(-46,-54) scale(1,1)"><path fill="none" stroke="#000000" d="M 384 505 L 530.29345703125 505" stroke-miterlimit="10"/></g><g transform="translate(-46,-54) scale(1,1)"><g><path fill="none" stroke="none"/><text fill="#000000" stroke="none" font-family="Arial" font-size="13px" font-style="normal" font-weight="bold" text-decoration="none" x="421.752197265625" y="370">Commande</text></g></g><g transform="translate(-46,-54) scale(1,1)"><g><path fill="none" stroke="none"/><text fill="#000000" stroke="none" font-family="Arial" font-size="13px" font-style="normal" font-weight="normal" text-decoration="none" x="389" y="393">-numCom: int</text></g></g><g transform="translate(-46,-54) scale(1,1)"><g><path fill="none" stroke="none"/><text fill="#000000" stroke="none" font-family="Arial" font-size="13px" font-style="normal" font-weight="normal" text-decoration="none" x="389" y="408">-libelle: String</text></g></g><g transform="translate(-46,-54) scale(1,1)"><g><path fill="none" stroke="none"/><text fill="#000000" stroke="none" font-family="Arial" font-size="13px" font-style="normal" font-weight="normal" text-decoration="none" x="389" y="423">-poids: int</text></g></g><g transform="translate(-46,-54) scale(1,1)"><g><path fill="none" stroke="none"/><text fill="#000000" stroke="none" font-family="Arial" font-size="13px" font-style="normal" font-weight="normal" text-decoration="none" x="389" y="438">-dateCom: String</text></g></g><g transform="translate(-46,-54) scale(1,1)"><g><path fill="none" stroke="none"/><text fill="#000000" stroke="none" font-family="Arial" font-size="13px" font-style="normal" font-weight="normal" text-decoration="none" x="389" y="453">-heureDeb: int</text></g></g><g transform="translate(-46,-54) scale(1,1)"><g><path fill="none" stroke="none"/><text fill="#000000" stroke="none" font-family="Arial" font-size="13px" font-style="normal" font-weight="normal" text-decoration="none" x="389" y="468">-heureFin: int</text></g></g><g transform="translate(-46,-54) scale(1,1)"><g><path fill="none" stroke="none"/><text fill="#000000" stroke="none" font-family="Arial" font-size="13px" font-style="normal" font-weight="normal" text-decoration="none" x="389" y="483">-producteur: Producteur</text></g></g><g transform="translate(-46,-54) scale(1,1)"><g><path fill="none" stroke="none"/><text fill="#000000" stroke="none" font-family="Arial" font-size="13px" font-style="normal" font-weight="normal" text-decoration="none" x="389" y="498">-client: Client</text></g></g><g transform="translate(-46,-54) scale(1,1)"><rect fill="#C0C0C0" stroke="none" x="95" y="71" width="176.29248046875" height="85" opacity="0.2"/></g><g transform="translate(-46,-54) scale(1,1)"><rect fill="#ffffff" stroke="none" x="88" y="64" width="176.29248046875" height="85"/></g><g transform="translate(-46,-54) scale(1,1)"><path fill="none" stroke="#000000" d="M 88 64 L 264.29248046875 64 L 264.29248046875 149 L 88 149 L 88 64 Z Z" stroke-miterlimit="10"/></g><g transform="translate(-46,-54) scale(1,1)"><path fill="none" stroke="#000000" d="M 88 89 L 264.29248046875 89" stroke-miterlimit="10"/></g><g transform="translate(-46,-54) scale(1,1)"><path fill="none" stroke="#000000" d="M 88 127 L 264.29248046875 127" stroke-miterlimit="10"/></g><g transform="translate(-46,-54) scale(1,1)"><g><path fill="none" stroke="none"/><text fill="#000000" stroke="none" font-family="Arial" font-size="13px" font-style="italic" font-weight="bold" text-decoration="none" x="144.3603515625" y="82">Utilisateur</text></g></g><g transform="translate(-46,-54) scale(1,1)"><g><path fill="none" stroke="none"/><text fill="#000000" stroke="none" font-family="Arial" font-size="13px" font-style="normal" font-weight="normal" text-decoration="none" x="93" y="105">-mail: String</text></g></g><g transform="translate(-46,-54) scale(1,1)"><g><path fill="none" stroke="none"/><text fill="#000000" stroke="none" font-family="Arial" font-size="13px" font-style="normal" font-weight="normal" text-decoration="none" x="93" y="120">-mdp: String</text></g></g><g transform="translate(-46,-54) scale(1,1)"><g><path fill="none" stroke="none"/><text fill="#000000" stroke="none" font-family="Arial" font-size="13px" font-style="italic" font-weight="normal" text-decoration="none" x="93" y="143">+verifieIdentifiants(): boolean</text></g></g><g transform="translate(-46,-54) scale(1,1)"><path fill="none" stroke="#000000" d="M 326 566 L 399 617" stroke-miterlimit="10"/></g><g transform="translate(-46,-54) scale(1,1)"><path fill="#FFFFFF" stroke="none" d="M 388.258228078053 614.6305409948955 L 399 617 L 393.079880762285 607.7289597017791 L 380.96529896666107 604.4004143465714"/></g><g transform="translate(-46,-54) scale(1,1)"><path fill="none" stroke="#000000" d="M 388.258228078053 614.6305409948955 L 399 617 L 393.079880762285 607.7289597017791 L 380.96529896666107 604.4004143465714 L 388.258228078053 614.6305409948955" stroke-miterlimit="10"/></g><g transform="translate(-46,-54) scale(1,1)"><path fill="none" stroke="#000000" d="M 263 439 L 264 350" stroke-miterlimit="10"/></g><g transform="translate(-46,-54) scale(1,1)"><path fill="#FFFFFF" stroke="none" d="M 268.09507191159423 360.20932838334 L 264 350 L 259.6765677869148 360.11473844935483 L 263.7528245908098 371.99861141793025"/></g><g transform="translate(-46,-54) scale(1,1)"><path fill="none" stroke="#000000" d="M 268.09507191159423 360.20932838334 L 264 350 L 259.6765677869148 360.11473844935483 L 263.7528245908098 371.99861141793025 L 268.09507191159423 360.20932838334" stroke-miterlimit="10"/></g><g transform="translate(-46,-54) scale(1,1)"><path fill="none" stroke="#000000" d="M 323 334 L 383 378" stroke-miterlimit="10"/></g><g transform="translate(-46,-54) scale(1,1)"><path fill="#FFFFFF" stroke="none" d="M 372.31541238125203 375.38473951253474 L 383 378 L 377.29412406585743 368.5955872153455 L 365.25909009117447 364.9899994001946"/></g><g transform="translate(-46,-54) scale(1,1)"><path fill="none" stroke="#000000" d="M 372.31541238125203 375.38473951253474 L 383 378 L 377.29412406585743 368.5955872153455 L 365.25909009117447 364.9899994001946 L 372.31541238125203 375.38473951253474" stroke-miterlimit="10"/></g><g transform="translate(-46,-54) scale(1,1)"><path fill="none" stroke="#000000" d="M 531 395 L 607 357" stroke-miterlimit="10"/></g><g transform="translate(-46,-54) scale(1,1)"><path fill="#FFFFFF" stroke="none" d="M 599.7927808450386 365.3099935049528 L 607 357 L 596.0276737030609 357.77977922099745 L 587.3226017980019 366.83869910099907"/></g><g transform="translate(-46,-54) scale(1,1)"><path fill="none" stroke="#000000" d="M 599.7927808450386 365.3099935049528 L 607 357 L 596.0276737030609 357.77977922099745 L 587.3226017980019 366.83869910099907 L 599.7927808450386 365.3099935049528" stroke-miterlimit="10"/></g><g transform="translate(-46,-54) scale(1,1)"><g><path fill="none" stroke="none"/><text fill="#000000" stroke="none" font-family="Arial" font-size="13px" font-style="normal" font-weight="normal" text-decoration="none" x="541.5" y="412">*</text></g></g><g transform="translate(-46,-54) scale(1,1)"><path fill="none" stroke="#000000" d="M 323 290 L 607 287" stroke-miterlimit="10"/></g><g transform="translate(-46,-54) scale(1,1)"><path fill="#FFFFFF" stroke="none" d="M 596.8823563521372 291.31662912639734 L 607 287 L 596.7934278398243 282.8980632941101 L 585.0012273323198 287.23238140141916"/></g><g transform="translate(-46,-54) scale(1,1)"><path fill="none" stroke="#000000" d="M 596.8823563521372 291.31662912639734 L 607 287 L 596.7934278398243 282.8980632941101 L 585.0012273323198 287.23238140141916 L 596.8823563521372 291.31662912639734" stroke-miterlimit="10"/></g><g transform="translate(-46,-54) scale(1,1)"><path fill="none" stroke="#000000" d="M 457 591 L 457 515" stroke-miterlimit="10"/></g><g transform="translate(-46,-54) scale(1,1)"><path fill="#FFFFFF" stroke="none" d="M 461.209517756016 525.1626748576241 L 457 515 L 452.790482243984 525.1626748576241 L 457 537"/></g><g transform="translate(-46,-54) scale(1,1)"><path fill="none" stroke="#000000" d="M 461.209517756016 525.1626748576241 L 457 515 L 452.790482243984 525.1626748576241 L 457 537 L 461.209517756016 525.1626748576241" stroke-miterlimit="10"/></g><g transform="translate(-46,-54) scale(1,1)"><path fill="none" stroke="#000000" d="M 323 249 L 394 200" stroke-miterlimit="10"/></g><g transform="translate(-46,-54) scale(1,1)"><path fill="#FFFFFF" stroke="none" d="M 388.0268772328717 209.23698026461105 L 394 200 L 383.24483300371105 202.3078957692966 L 375.89342963584613 212.49608377244422"/></g><g transform="translate(-46,-54) scale(1,1)"><path fill="none" stroke="#000000" d="M 388.0268772328717 209.23698026461105 L 394 200 L 383.24483300371105 202.3078957692966 L 375.89342963584613 212.49608377244422 L 388.0268772328717 209.23698026461105" stroke-miterlimit="10"/></g><g transform="translate(-46,-54) scale(1,1)"><path fill="none" stroke="#000000" d="M 535 190 L 607 223" stroke-miterlimit="10"/></g><g transform="translate(-46,-54) scale(1,1)"><path fill="#FFFFFF" stroke="none" d="M 596.0075543784728 222.59239816270298 L 607 223 L 599.5153851823706 214.93894913601693 L 587.0005738963257 213.8335963691493"/></g><g transform="translate(-46,-54) scale(1,1)"><path fill="none" stroke="#000000" d="M 596.0075543784728 222.59239816270298 L 607 223 L 599.5153851823706 214.93894913601693 L 587.0005738963257 213.8335963691493 L 596.0075543784728 222.59239816270298" stroke-miterlimit="10"/></g><g transform="translate(-46,-54) scale(1,1)"><path fill="none" stroke="#000000" d="M 120 231 L 156 150" stroke-miterlimit="10"/></g><g transform="translate(-46,-54) scale(1,1)"><path fill="#FFFFFF" stroke="none" d="M 155.43850552378805 171.99283346804552 L 156 150 L 140.0516817655103 165.1542451310332"/></g><g transform="translate(-46,-54) scale(1,1)"><path fill="none" stroke="#000000" d="M 155.43850552378805 171.99283346804552 L 156 150 L 140.0516817655103 165.1542451310332 L 155.43850552378805 171.99283346804552" stroke-miterlimit="10"/></g><g transform="translate(-46,-54) scale(1,1)"><path fill="none" stroke="#000000" d="M 236 231 L 197 150" stroke-miterlimit="10"/></g><g transform="translate(-46,-54) scale(1,1)"><path fill="#FFFFFF" stroke="none" d="M 213.403019217598 164.6608649317532 L 197 150 L 198.23188910939407 171.96548313199955"/></g><g transform="translate(-46,-54) scale(1,1)"><path fill="none" stroke="#000000" d="M 213.403019217598 164.6608649317532 L 197 150 L 198.23188910939407 171.96548313199955 L 213.403019217598 164.6608649317532" stroke-miterlimit="10"/></g><g transform="translate(-46,-54) scale(1,1)"><rect fill="#C0C0C0" stroke="none" x="663" y="495" width="184.59521484375" height="57" opacity="0.2"/></g><g transform="translate(-46,-54) scale(1,1)"><rect fill="#ffffff" stroke="none" x="656" y="488" width="184.59521484375" height="57"/></g><g transform="translate(-46,-54) scale(1,1)"><path fill="none" stroke="#000000" d="M 656 488 L 840.59521484375 488 L 840.59521484375 545 L 656 545 L 656 488 Z Z" stroke-miterlimit="10"/></g><g transform="translate(-46,-54) scale(1,1)"><path fill="none" stroke="#000000" d="M 656 513 L 840.59521484375 513" stroke-miterlimit="10"/></g><g transform="translate(-46,-54) scale(1,1)"><path fill="none" stroke="#000000" d="M 656 536 L 840.59521484375 536" stroke-miterlimit="10"/></g><g transform="translate(-46,-54) scale(1,1)"><g><path fill="none" stroke="none"/><text fill="#000000" stroke="none" font-family="Arial" font-size="13px" font-style="normal" font-weight="bold" text-decoration="none" x="672.208251953125" y="506">ListeTourneesCourantes</text></g></g><g transform="translate(-46,-54) scale(1,1)"><g><path fill="none" stroke="none"/><text fill="#000000" stroke="none" font-family="Arial" font-size="13px" font-style="normal" font-weight="normal" text-decoration="none" x="661" y="529">-tournees: ArrayList&lt;Tournee&gt;</text></g></g><g transform="translate(-46,-54) scale(1,1)"><path fill="none" stroke="#000000" d="M 747 390 L 748 487" stroke-miterlimit="10"/></g><g transform="translate(-46,-54) scale(1,1)"><path fill="#FFFFFF" stroke="none" d="M 743.6859416456928 476.8812599343776 L 748 487 L 752.1045298007004 476.79447036576926 L 747.7732079278376 465.00116900023994"/></g><g transform="translate(-46,-54) scale(1,1)"><path fill="none" stroke="#000000" d="M 743.6859416456928 476.8812599343776 L 748 487 L 752.1045298007004 476.79447036576926 L 747.7732079278376 465.00116900023994 L 743.6859416456928 476.8812599343776" stroke-miterlimit="10"/></g><g transform="translate(-46,-54) scale(1,1)"><g><path fill="none" stroke="none"/><text fill="#000000" stroke="none" font-family="Arial" font-size="13px" font-style="normal" font-weight="normal" text-decoration="none" x="731.5" y="416">*</text></g></g></g></svg>